<?xml version="1.0" encoding="utf-8"?>
<!-- Generator: Adobe Illustrator 21.0.0, SVG Export Plug-In . SVG Version: 6.00 Build 0)  -->
<svg version="1.1" id="Calque_1" xmlns="http://www.w3.org/2000/svg" xmlns:xlink="http://www.w3.org/1999/xlink" x="0px" y="0px"
	 viewBox="0 0 500 500" style="enable-background:new 0 0 500 500;" xml:space="preserve">
<style type="text/css">
	.st0{fill:#472611;}
	.st1{fill:#855830;}
	.st2{fill:#57A07D;}
	.st3{fill:#90CBB0;}
</style>
<path class="st0" d="M390.9,225.4l-25.8-14.3l-16.8,22.5l-19.2-9.8l-3.3,16l-61-22.1c0,0-5.5,23.6-6.6,22c-1.1-1.6-13.7-22-13.7-22
	l-52.2,11.9l-11-9.2l-17.6,9.2c1.4-64.3,47.3-117.2,106.7-120.6C332.4,105.5,386,157.4,390.9,225.4z"/>
<path class="st0" d="M284.6,359.3c-43,2.4-81.8-21.7-103.4-59.3l10.5-23.5l13.2,5.5l35.2-39.6l27.5,13.4l9.7-23.9l51.3,20.9
	l7.7-18.7l14.3,5.6l14.5-18.2l25.8,3.9c0.1,0.8,0.1,1.5,0.2,2.3C395,296.9,347.3,355.8,284.6,359.3z"/>
<path class="st0" d="M192.2,320.1L192.2,320.1L192.2,320.1C192.2,320.1,192.2,320.1,192.2,320.1z"/>
<polygon class="st1" points="163.7,229.6 165.3,236.5 179.9,225.2 191.3,236.5 243.7,225.2 260.4,243.4 268.4,221.5 326.5,243.4 
	332.3,228.7 348.3,233.6 329.2,223.7 325.9,239.8 264.9,217.7 258.9,236.9 244.5,217.7 192.3,229.6 181.2,220.4 "/>
<g>
	<path class="st2" d="M59.3,321.6L59.3,321.6c-8.3-8.6-8-22.5,0.6-30.8l98.1-94.2c8.6-8.3,22.5-8,30.8,0.6l0,0
		c8.3,8.6,8,22.5-0.6,30.8l-98.1,94.2C81.5,330.5,67.6,330.2,59.3,321.6z"/>
	<path class="st2" d="M92.4,350.1L92.4,350.1c-8.3-8.6-8-22.5,0.6-30.8l98.1-94.2c8.6-8.3,22.5-8,30.8,0.6l0,0
		c8.3,8.6,8,22.5-0.6,30.8l-98.1,94.2C114.6,359,100.7,358.7,92.4,350.1z"/>
	<path class="st2" d="M127.9,376.4L127.9,376.4c-8.3-8.6-8-22.5,0.6-30.8l79.8-76.7c8.6-8.3,22.5-8,30.8,0.6l0,0
		c8.3,8.6,8,22.5-0.6,30.8L158.7,377C150.1,385.3,136.2,385,127.9,376.4z"/>
	<path class="st2" d="M159.3,406.6L159.3,406.6c-8.3-8.6-8-22.5,0.6-30.8l65.6-63c8.6-8.3,22.5-8,30.8,0.6l0,0
		c8.3,8.6,8,22.5-0.6,30.8l-65.6,63C181.4,415.5,167.6,415.3,159.3,406.6z"/>
	
		<rect x="22.6" y="340" transform="matrix(0.6926 0.7213 -0.7213 0.6926 294.4774 30.2831)" class="st3" width="178.1" height="41.2"/>
	<path class="st3" d="M155.6,306l-72.1-55.7c-10-7.8-11.9-22.3-4.1-32.4l0,0c7.8-10,22.3-11.9,32.4-4.1l72.1,55.7
		c10,7.8,11.9,22.3,4.1,32.4l0,0C180.2,311.9,165.6,313.7,155.6,306z"/>
	<path class="st3" d="M79.3,217.8c-14.4,31.6-12.5,66.3-12.5,66.3l58.6,61c0,0-29.1-85-19.5-77.6"/>
</g>
</svg>
