<?xml version="1.0" encoding="utf-8"?>
<!-- Generator: Adobe Illustrator 21.0.0, SVG Export Plug-In . SVG Version: 6.00 Build 0)  -->
<svg version="1.1" id="Calque_1" xmlns="http://www.w3.org/2000/svg" xmlns:xlink="http://www.w3.org/1999/xlink" x="0px" y="0px"
	 viewBox="0 0 541.9 500" style="enable-background:new 0 0 541.9 500;" xml:space="preserve">
<style type="text/css">
	.st0{fill:#472611;}
	.st1{fill:#855830;}
	.st2{fill:#57A07D;}
	.st3{fill:#90CBB0;}
</style>
<path class="st0" d="M541.3,176.5l-39.1-21.7l-25.4,34l-29-14.9l-5,24.3l-92.3-33.4c0,0-8.4,35.8-10,33.3
	c-1.7-2.5-20.8-33.3-20.8-33.3l-79.1,18.1l-16.7-13.9l-26.6,13.9C199.4,85.5,268.9,5.4,358.8,0.3C452.7-5.1,533.8,73.5,541.3,176.5z
	"/>
<path class="st0" d="M380.3,379.2c-65,3.7-123.9-32.8-156.5-89.8l15.9-35.5l20,8.3l53.3-59.9l41.6,20.3l14.7-36.2l77.7,31.6
	l11.6-28.3l21.6,8.4l22-27.6l39.1,5.9c0.1,1.2,0.2,2.3,0.2,3.5C547.5,284.6,475.3,373.8,380.3,379.2z"/>
<path class="st0" d="M240.5,319.8L240.5,319.8l-0.1-0.1C240.4,319.7,240.5,319.8,240.5,319.8z"/>
<polygon class="st1" points="197.2,182.8 199.8,193.2 221.9,176.1 239.1,193.2 318.3,176.1 343.7,203.6 355.8,170.6 443.8,203.6 
	452.6,181.4 476.8,188.7 447.8,173.9 442.8,198.1 350.5,164.7 341.4,193.9 319.6,164.7 240.5,182.8 223.8,168.9 "/>
<g>
	<path class="st2" d="M47,330.1l-15.5-16.1c-8.3-8.6-8-22.5,0.6-30.8L196.9,125c8.6-8.3,22.5-8,30.8,0.6l15.5,16.1
		c8.3,8.6,8,22.5-0.6,30.8L77.8,330.7C69.2,339,55.3,338.7,47,330.1z"/>
	<path class="st2" d="M97.2,373.3l-15.5-16.1c-8.3-8.6-8-22.5,0.6-30.8L247,168.2c8.6-8.3,22.5-8,30.8,0.6l15.5,16.1
		c8.3,8.6,8,22.5-0.6,30.8L128,373.9C119.3,382.2,105.5,381.9,97.2,373.3z"/>
	<path class="st2" d="M150.9,413l-15.5-16.1c-8.3-8.6-8-22.5,0.6-30.8l137-131.5c8.6-8.3,22.5-8,30.8,0.6l15.5,16.1
		c8.3,8.6,8,22.5-0.6,30.8l-137,131.5C173.1,421.9,159.2,421.6,150.9,413z"/>
	<path class="st2" d="M198.4,458.8l-15.5-16.1c-8.3-8.6-8-22.5,0.6-30.8l115.4-110.8c8.6-8.3,22.5-8,30.8,0.6l15.5,16.1
		c8.3,8.6,8,22.5-0.6,30.8L229.1,459.4C220.5,467.7,206.6,467.4,198.4,458.8z"/>
	
		<rect x="-16.2" y="349.9" transform="matrix(0.6926 0.7213 -0.7213 0.6926 311.3708 31.6111)" class="st3" width="269.7" height="62.4"/>
	<path class="st3" d="M194.4,305.6L66.5,206.7c-10-7.8-11.9-22.3-4.1-32.4l14.5-18.8c7.8-10,22.3-11.9,32.4-4.1l127.9,98.9
		c10,7.8,11.9,22.3,4.1,32.4l-14.5,18.8C219,311.5,204.4,313.4,194.4,305.6z"/>
	<path class="st3" d="M69.6,164.9c-21.8,47.9-18.9,100.4-18.9,100.4l88.7,92.4c0,0-44-128.7-29.5-117.5"/>
</g>
</svg>
