<?xml version="1.0" encoding="utf-8"?>
<!-- Generator: Adobe Illustrator 21.0.0, SVG Export Plug-In . SVG Version: 6.00 Build 0)  -->
<svg version="1.1" id="Capa_1" xmlns="http://www.w3.org/2000/svg" xmlns:xlink="http://www.w3.org/1999/xlink" x="0px" y="0px"
	 viewBox="0 0 314.1 314.1" style="enable-background:new 0 0 314.1 314.1;" xml:space="preserve">
<style type="text/css">
	.st0{fill:#90CBB0;}
</style>
<g>
	<path class="st0" d="M283.6,122.5c-8.6-24.2-29.9-64.8-75.4-64.8c-4.2,0-8.6,0.4-13,1.1c0,0-0.1,0-0.1,0
		c11.2-10.4,27.7-21.4,47.9-32.2c11.5-6.1,11.3-13.3,10.7-16.1c-0.6-2.7-3.2-9.2-15.3-10.1C214.2-1.6,175,3.6,151.3,48
		c-1.4,2.7-3.9,5.9-7.5,5.9c-1.9,0-4.2-0.9-6.6-2.5C120.8,40,103.6,34.3,85.9,34.3c-20.4,0-37.5,7.8-48.2,14.4
		c-10.3,6.3-9.8,13.3-9,15.9c0.8,2.8,3.9,9.3,16.9,9.5c22.9,0.4,42.7,2.7,57.3,6.9c0,0-0.1,0-0.1,0c-52,16.9-53.5,68-49.7,97
		c0.5,4,1.9,14.5,10.3,14.5c7.3,0,10.3-8.9,11.7-13.1c7.9-23.7,24.9-38.6,37.9-47c3.3-2.1,6.5-3.9,9.1-5.2c0.9,2.5,2.1,4.9,3.7,7.2
		c3,4.2,2.7,11.2-0.8,18.9c-9.9,21.8-22.2,62.6-23.9,132.9c-0.2,7.4,2.6,14.4,7.7,19.7c5.3,5.4,12.3,8.4,19.9,8.4h9.9
		c7.4,0,14.2-2.9,19.2-8.2c5-5.4,7.5-12.5,7-20.1c-1.7-24.5-3.6-71.3,2.2-109.4c1-6.6,3-10.9,4.2-12.9c24.8,2.5,45.9-17.2,45.9-41.6
		c0-3.8-0.5-7.5-1.5-11.2c1.4-0.2,4.2-0.2,7.1,0.5c16.6,3.8,30.8,11.3,42.1,22.5c5.3,5.2,8.9,7.3,12.6,7.3c2.7,0,5.2-1.3,6.8-3.5
		C286.9,133.4,285.6,127.9,283.6,122.5z"/>
</g>
</svg>
