<?xml version="1.0" encoding="iso-8859-1"?>
<!-- Generator: Adobe Illustrator 18.1.1, SVG Export Plug-In . SVG Version: 6.00 Build 0)  -->
<svg version="1.1" id="Capa_1" xmlns="http://www.w3.org/2000/svg" xmlns:xlink="http://www.w3.org/1999/xlink" x="0px" y="0px"
	 viewBox="0 0 314.1 314.1" style="enable-background:new 0 0 314.1 314.1;" xml:space="preserve">
<g>
	<path style="fill:#010002;" d="M283.65,122.509c-8.632-24.22-29.92-64.85-75.423-64.85c-4.194,0-8.55,0.359-12.956,1.061
		c-0.027,0-0.06,0.005-0.092,0.011c11.183-10.351,27.701-21.446,47.924-32.178c11.455-6.081,11.33-13.309,10.737-16.132
		c-0.566-2.725-3.193-9.165-15.284-10.095c-24.394-1.887-63.577,3.236-87.292,47.695c-1.43,2.681-3.889,5.88-7.533,5.88
		c-1.947,0-4.221-0.865-6.565-2.491c-16.334-11.389-33.57-17.16-51.231-17.16c-20.391,0-37.453,7.827-48.174,14.392
		c-10.34,6.337-9.758,13.26-9.018,15.947c0.761,2.785,3.932,9.279,16.888,9.486c22.893,0.359,42.659,2.725,57.311,6.859
		c-0.027,0.011-0.054,0.016-0.082,0.027C50.82,97.837,49.4,148.981,53.18,177.965c0.511,3.965,1.887,14.501,10.291,14.501
		c7.316,0,10.258-8.877,11.678-13.141c7.865-23.671,24.949-38.623,37.889-47.004c3.285-2.121,6.456-3.873,9.127-5.211
		c0.876,2.535,2.116,4.944,3.704,7.163c2.964,4.172,2.654,11.232-0.821,18.895c-9.932,21.838-22.153,62.615-23.948,132.882
		c-0.185,7.375,2.562,14.365,7.734,19.668c5.27,5.401,12.347,8.382,19.923,8.382h9.872c7.435,0,14.239-2.894,19.151-8.153
		c5.004-5.352,7.473-12.494,6.951-20.114c-1.681-24.492-3.612-71.279,2.225-109.396c1.012-6.565,2.959-10.938,4.188-12.912
		c24.753,2.513,45.857-17.204,45.862-41.593c0-3.78-0.517-7.522-1.534-11.172c1.414-0.25,4.221-0.169,7.147,0.495
		c16.649,3.791,30.818,11.346,42.093,22.452c5.26,5.183,8.898,7.294,12.57,7.294c2.747,0,5.211-1.262,6.766-3.476
		C286.946,133.414,285.57,127.877,283.65,122.509z"/>
</g>
<g>
</g>
<g>
</g>
<g>
</g>
<g>
</g>
<g>
</g>
<g>
</g>
<g>
</g>
<g>
</g>
<g>
</g>
<g>
</g>
<g>
</g>
<g>
</g>
<g>
</g>
<g>
</g>
<g>
</g>
</svg>
