<svg id="Calque_1" data-name="Calque 1" xmlns="http://www.w3.org/2000/svg" viewBox="0 0 325.94 426.5"><defs><style>.cls-1{fill:#91c474;}.cls-2{fill:#b2f78d;}.cls-3{fill:#54120a;}.cls-4{fill:#682315;}.cls-5{fill:none;stroke:#231f20;stroke-miterlimit:10;}.cls-6{fill:#5e7c4a;}.cls-7{fill:#231513;}.cls-8{fill:#492620;}</style></defs><title>coconuttree</title><path class="cls-1" d="M222,190.34c-4.69,3-9.31,9.64-14.68,17.86l-12.71-14.32,9.77,18.85c-1.1,1.7-2.25,3.46-3.43,5.24-.22.33-.44.66-.68,1l-12.38-14,9.32,18c-1.6,1.93-3.33,3.81-5.17,5.64L180,215l8.74,16.88c-2,1.78-4,3.5-6,5.14L169.29,221.9l9.4,18.15c-1.76,1.32-3.53,2.58-5.27,3.78l-12.09-13.64,8.36,16.15A200.92,200.92,0,0,1,149.5,258s-3.59-29.14,1.79-51.6c.44-1.85.94-3.65,1.52-5.39q.38-1.19.81-2.31l2.27-1,1.56-.7q2.4-1.09,5.06-2.26l.84,6.1,5.94,0-3.12-7.72.83-.36c.71-.31,1.42-.6,2.13-.88.52-.21,1-.41,1.55-.6l1.18-.44.72-.26,1-.34,1.48-.49,1.7-.53.83,6.05,5.94,0-2.89-7.14,1.7-.4,1.69-.36,1.19-.23,1.17-.21h0l1.16-.19,1.16-.17,1.13-.15,1.12-.13,1.11-.11c.65-.06,1.29-.11,1.94-.15s1.53-.09,2.29-.11l1,0h1.25A62.34,62.34,0,0,1,222,190.34Z" transform="translate(-76.5 -28.5)"/><path class="cls-1" d="M233.11,185.55c-.15,1.48-.29,3.09-.4,4.84a8.9,8.9,0,0,0-8-1.34,167.32,167.32,0,0,0-17.47-6.8c-4.46-1.5-9.23-2.93-14.23-4.2C208.81,177.35,223.85,179.93,233.11,185.55Z" transform="translate(-76.5 -28.5)"/><path class="cls-2" d="M174.68,174.37l2,14.84-1.7.53-1.48.49-1,.34-.72.26-1.18.44c-.52.19-1,.39-1.55.6-.71.28-1.42.57-2.13.88l-.83.36-5.88-14.53,2.22,16.13q-2.66,1.17-5.06,2.26l-1.56.7-2.27,1-1.47.67L146,184.16l2.33,16.91c-2.92,1.29-5.66,2.45-8.39,3.47l-6-14.83,2.23,16.16a78.91,78.91,0,0,1-10.24,2.62l-6.38-15.78,2.26,16.45c-8.28,1.14-18.48,1.43-33.06.84C106.38,174.74,142.35,169.7,174.68,174.37Z" transform="translate(-76.5 -28.5)"/><path class="cls-2" d="M232.54,193.33l-.14,2.73A47.91,47.91,0,0,0,222,190.34a62.34,62.34,0,0,0-23.53-4.44h-1.25l-1,0c-.76,0-1.52.06-2.29.11s-1.29.09-1.94.15l-1.11.11-1.12.13-1.13.15-1.16.17-1.16.19h0l-1.17.21-1.19.23-1.69.36-1.7.4-5.55-13.73A174.44,174.44,0,0,1,193,178c5,1.27,9.77,2.7,14.23,4.2a167.32,167.32,0,0,1,17.47,6.8A60.54,60.54,0,0,1,232.54,193.33Z" transform="translate(-76.5 -28.5)"/><path class="cls-1" d="M233.78,167c-.71-.88-1.45-1.76-2.2-2.63l1.59-.12Z" transform="translate(-76.5 -28.5)"/><path class="cls-1" d="M255.7,162.77c-.31.33-.62.69-.92,1.08l-.51-1h.26Z" transform="translate(-76.5 -28.5)"/><path class="cls-3" d="M270.2,455H257c-7.75-80.75-8.25-175.25-9.5-223.14-3.75-.65-7-7.86-7-7.86a44.81,44.81,0,0,1-8.45,4.75c-.1-12.91,0-24,.35-32.69l.14-2.73c.05-1,.11-2,.17-2.94.11-1.75.25-3.36.4-4.84.51-5.07,1.23-8.49,2.22-10h0c.63-1,1.21-1.84,1.75-2.59h0l.5-.72c4.2,6.35,7,13,7.17,19.39,0,1.6,2,2.7,2.25,0,.7-8.86,2.08-15.44,3.85-20.28,3.62,2.61,5.34,7.26,6,12.83a51.39,51.39,0,0,1,.32,5.52c0,1.81,0,3.68-.13,5.56,0,.12,0,.27,0,.42h0c-.18.63-2.18,20.9-2.3,25.84C254.37,235.53,249.08,362.32,270.2,455Z" transform="translate(-76.5 -28.5)"/><path class="cls-4" d="M247.5,231.86c1.25,47.89,1.75,142.39,9.5,223.14H235.78q-.5-7.71-.45-16c.43-77.1-2.88-158.48-3.28-210.25A44.81,44.81,0,0,0,240.5,224S243.75,231.21,247.5,231.86Z" transform="translate(-76.5 -28.5)"/><path class="cls-4" d="M256.66,200.31c.09-1.22.26-3.38.34-4.65h0S257,197,256.66,200.31Z" transform="translate(-76.5 -28.5)"/><path class="cls-2" d="M401,218c-13.33-4.87-21.72-10.23-28.28-15.41l-2.09-16.66L369,199.46c-3.85-3.29-7.21-6.44-10.91-9.28l-1.92-15.29-1.58,12.78a49.91,49.91,0,0,0-12.19-5.84l-2-15.8-1.81,14.68a86,86,0,0,0-10.16-1.92l-2-16-1.93,15.6c-1.73-.17-3.56-.3-5.47-.41s-3.83-.19-5.66-.23l-2.28-18.2-2.24,18.13c-30.64,0-46.11,8.19-51.66,12a51.39,51.39,0,0,0-.32-5.52c20.34-21.52,54.37-36.52,101.91-23.89C410.5,174,402.75,208.69,401,218Z" transform="translate(-76.5 -28.5)"/><path class="cls-2" d="M303.5,271s-9.86-2.61-12.94-14.86l5.94-3.43-6.25,2a33.66,33.66,0,0,1-.58-7.25c0-1.2,0-2.45,0-3.74l5.14-3-5.15,1.69c0-2.79-.1-5.74-.32-8.75l4.79-2.77-4.89,1.6a79.76,79.76,0,0,0-1.05-8l5.94-3.43-6.22,2a52.14,52.14,0,0,0-1.75-6.47l5.3-3.06-5.73,1.87a34.09,34.09,0,0,0-2.82-5.86l3.72-2.15-4.21,1.38c-4.82-7.36-12.74-11.87-25.67-9.92.17-1.87.14-1.88.24-3.74,12.54-5.87,34.78-2.63,47.47,22.75C318,245,303.5,271,303.5,271Z" transform="translate(-76.5 -28.5)"/><line class="cls-5" x1="180.12" y1="172.33" x2="180.11" y2="172.33"/><path class="cls-2" d="M273.75,162.08s-6.76.11-18,.69l-1.17.06h-.26l-9.66-19.21,4.32,19.51-1.26.08-1.28.08-1.31.08-4.09.27-2.8.2-9.12-18.15,4.1,18.52-1.59.12-4.44.36c-4.5.38-9.23.81-14.14,1.3a62.41,62.41,0,0,1-12.67-14.56h0A54.83,54.83,0,0,1,194.66,140c6.82-2.27,12.68-4,17.83-5.22,2.7-.64,5.2-1.14,7.54-1.51,9.29-1.42,16.13-.68,22.81,2.09C248,137.49,253,140.8,259,145.25a111.3,111.3,0,0,1,9.49,7.75C276.68,160.64,273.75,162.08,273.75,162.08Z" transform="translate(-76.5 -28.5)"/><path class="cls-1" d="M237.08,172.93c-.54.75-1.12,1.61-1.75,2.59a35.92,35.92,0,0,0-8.19-10.82l4.44-.36c1.5,1.73,2.92,3.5,4.24,5.31h0c.44,1.13.86,2.21,1.24,3.26h0Z" transform="translate(-76.5 -28.5)"/><path class="cls-1" d="M194.66,140a54.83,54.83,0,0,0,5.66,11.44c-3.1-.84-6.32-1.57-9.63-2.21v-17.6l-4.26,16.83c-5.14-.87-10.48-1.56-15.93-2.12V129l-4.28,16.92c-6.67-.63-13.46-1.11-20.22-1.56V129l-3.82,15.1c-7-.46-14-.92-20.68-1.51V124l-4.59,18.16a203.45,203.45,0,0,1-20.41-2.93V123.36l-3.8,15a67.14,67.14,0,0,1-16.2-5.82C99.75,79.82,151.61,100,199,125.25a66.9,66.9,0,0,1,13.49,9.53C207.34,136,201.48,137.73,194.66,140Z" transform="translate(-76.5 -28.5)"/><line class="cls-5" x1="160.58" y1="144.42" x2="160.57" y2="144.42"/><path class="cls-1" d="M331.69,89.07l-6-13.94,3.36,18.21a98.23,98.23,0,0,1-9,11.56l-7-16.43,3.7,20c-2.44,2.57-5.07,5.19-7.92,7.91l-6.45-15.11,3.33,18.06q-3.53,3.3-7.44,6.83l-6.67-15.63,3.42,18.56c-2.81,2.52-5.77,5.15-8.87,7.92l-6.6-15.48L283,139.92q-3.36,3-6.93,6.2L269.2,130l3.53,19.15c-1.39,1.25-2.8,2.54-4.24,3.85a111.3,111.3,0,0,0-9.49-7.75c-6-4.45-11-7.76-16.16-9.89,1-8.66,4.2-17.47,8.91-26,19.41-35.15,64.6-65.31,88.75-58.87C340.5,66.54,337.71,78.32,331.69,89.07Z" transform="translate(-76.5 -28.5)"/><path class="cls-6" d="M251.75,109.37c-4.71,8.52-7.9,17.33-8.91,26-6.68-2.77-13.52-3.51-22.81-2.09-3.45-4.19-6.66-8.54-9.64-13l10.49-7.53-12.17,4.95q-2.84-4.36-5.37-8.81l10.58-7.59-12.09,4.92c-2.32-4.18-4.45-8.38-6.42-12.53L207,85.42,194,90.69c-2.47-5.42-4.66-10.76-6.6-15.88l9.48-6.8-10.42,4.24c-1.71-4.67-3.2-9.14-4.5-13.32L193,51l-12,4.87A232.87,232.87,0,0,1,174.5,28.5S236.5,31.25,251.75,109.37Z" transform="translate(-76.5 -28.5)"/><line class="cls-5" x1="143.54" y1="104.78" x2="143.53" y2="104.77"/><ellipse class="cls-7" cx="233.62" cy="191.77" rx="25.26" ry="22.07" transform="translate(-145.12 161.75) rotate(-39.09)"/><polygon class="cls-1" points="92.79 172.33 86.85 172.31 86.01 166.21 83.79 150.08 89.67 164.61 92.79 172.33"/><path class="cls-1" d="M183.5,195.29l-5.94,0-.83-6.05-2-14.84.38,0,5.55,13.73Z" transform="translate(-76.5 -28.5)"/><path class="cls-8" d="M234.25,167.57l-.33,0-.14-.63Z" transform="translate(-76.5 -28.5)"/><path class="cls-1" d="M254.78,163.85c-.32.41-.64.86-1,1.34a29.6,29.6,0,0,0-3,6.12c-1.77,4.84-3.15,11.42-3.85,20.28-.24,2.7-2.25,1.6-2.25,0-.2-6.36-3-13-7.17-19.39-.56-.85-1.14-1.7-1.75-2.54h0c-.51-.7-1-1.39-1.57-2.08l-.47-.6-.61-2.75-4.1-18.52,9.12,18.15,2.8-.2,4.09-.27,1.31-.08,1.28-.08,1.26-.08-4.32-19.51,9.66,19.21Z" transform="translate(-76.5 -28.5)"/><ellipse class="cls-8" cx="250" cy="195.87" rx="21.36" ry="26.29" transform="translate(-143 141.11) rotate(-33.34)"/></svg>