<?xml version="1.0" encoding="utf-8"?>
<!-- Generator: Adobe Illustrator 21.0.0, SVG Export Plug-In . SVG Version: 6.00 Build 0)  -->
<svg version="1.1" id="Calque_1" xmlns="http://www.w3.org/2000/svg" xmlns:xlink="http://www.w3.org/1999/xlink" x="0px" y="0px"
	 viewBox="0 0 500 500" style="enable-background:new 0 0 500 500;" xml:space="preserve">
<style type="text/css">
	.st0{fill:#FFFFFF;}
	.st1{fill:#90CBB0;}
	.st2{fill:#F2F2F2;}
	.st3{fill:#57A07D;}
	.st4{fill:#F93E3E;}
	.st5{fill:#472611;}
	.st6{fill:#855830;}
	.st7{fill:#F9F6F2;}
	.st8{fill:#EAE9E8;}
	.st9{fill:#D3D3D3;}
	.st10{fill:#E0E0E0;}
</style>
<g>
	<path class="st0" d="M137.2,231.4V424c-35.1,17-47.4-55.7-40.3-73.5c5-12.5,12.3-21.2,14.2-28.8c0.9-3.7,0.5-7.1-2.1-10.6
		c-1.3-1.8-2.6-2.3-3.9-2.2c-7.1,0.6-16.2,21.1-34.1,8.3c-21.3-15.3-11.1-80.7-2.3-85.8H137.2z"/>
	<path class="st1" d="M137.2,424v35h-10.6c-22.5-0.1-45.7-0.1-50.3-0.1c-8.8,0-10.4-12.9-18.6-22.5c-0.7-0.9-1.7-1.8-2.5-2.5V231.4
		h13.3c-8.8,5.1-19,70.5,2.3,85.8c17.9,12.8,27-7.6,34.1-8.3c1.4-0.1,2.7,0.5,3.9,2.2c2.6,3.4,3,6.9,2.1,10.6
		c-1.9,7.6-9.2,16.3-14.2,28.8c-3.4,8.6-2.3,30.5,4,48.6c0.4,1.1,0.7,2.2,1.2,3.2l0,0c0.7,1.9,1.6,3.8,2.5,5.7c0,0,0,0,0,0.1
		c5.1,10.4,12.3,18,21.7,18.5l0,0c3.2,0.2,6.6-0.6,10.3-2.2c0,0,0.1,0,0.1-0.1C136.8,424.2,137,424.1,137.2,424z"/>
	<path class="st2" d="M171.8,231.4v195.3c-1.8-8.5-6.4-15.3-17.2-12.1c-3.4,1-7.5,3.1-12.3,6.4c-1.8,1.2-3.4,2.2-5.1,3V231.4H171.8z
		"/>
	<path class="st3" d="M171.8,426.7V459h-34.6v-35c1.7-0.8,3.3-1.8,5.1-3c4.8-3.3,8.9-5.4,12.3-6.4
		C165.4,411.4,170.1,418.2,171.8,426.7z"/>
	<rect x="78" y="226.3" class="st3" width="71" height="5.1"/>
	<path class="st2" d="M142.3,205.5v20.8H84.8v-20.8c0-1,0.8-1.9,1.9-1.9h53.8C141.5,203.6,142.3,204.5,142.3,205.5z"/>
	<path class="st4" d="M123.8,203.6c0,0,13-63.6,14.8-74.3c1.9-10.7,6-11.6,16.7-5.6s30.1,18.1,36.2,22.3s0.7,8.9-3.7,6
		c-4.5-2.9-29.7-18.1-36.6-22.7s-7.9,7-8.8,11.6c-0.9,4.6-9.7,62.7-9.7,62.7H123.8z"/>
	<path class="st5" d="M140.2,439.5L140.2,439.5c-0.8,2.2-1.9,4.4-3,6.4c-0.1,0.1-0.2,0.3-0.2,0.4c-2.7,4.8-6.2,9.1-10.4,12.7H55.2
		v-48.9c0.6-2.5,1.4-4.5,2-5.6c-1.8,7.4,3.3,13.7,3.3,13.7l-0.4,12.8c0,0,6.9,3.9,14.6,6.8c1.4,0.6,2.8,1,4.2,1.5
		c0.4,0.1,0.7,0.3,1.1,0.4c0.3,0.2,0.5,0.4,0.7,0.6c0.6,0.4,1.2,0.7,1.9,1.1c0.3,0.2,0.6,0.3,0.9,0.5c1.7,0.8,3.8,1.8,6.2,2.6
		c0.3,0.1,0.6,0.2,0.8,0.3c0.4,0.2,0.8,0.3,1.2,0.5c1,0.4,2,0.6,3.2,1c0.5,0.1,0.8,0.3,1.3,0.4c0.4,0.1,0.8,0.2,1.3,0.4
		c0.5,0.1,0.8,0.2,1.3,0.4c1,0.3,2,0.5,3.2,0.7c1.1,0.3,2.2,0.5,3.4,0.6l0,0c0.6,0.1,1.4,0.2,2,0.3c0.1,0,0.3,0,0.4,0
		c0.6,0.1,1,0.2,1.6,0.2c0.8,0.1,1.8,0.2,2.6,0.3c0.5,0,0.9,0.1,1.4,0.1c4.5,0.2,8.9-0.1,13.1-1.1c4.9-1.1,8.3-2.9,10.6-4.9
		c0.4-0.3,0.6-0.6,0.9-0.9c0.5-0.5,0.8-0.9,1.2-1.5c0.1-0.2,0.2-0.4,0.3-0.5c0.1-0.2,0.2-0.4,0.3-0.5
		C140,439.9,140.1,439.7,140.2,439.5z"/>
	<path class="st6" d="M141.4,429.9L141.4,429.9c-0.4-2.5-0.9-5-1.8-7.4c-1.3-4.1-6.2-8.2-12.2-11.9c-1.9-1.1-3.8-2.2-5.8-3.2
		c-0.6-0.4-1.3-0.6-1.9-1c-4.7-2.3-9.6-4.4-14.6-6c-11.1-3.7-31.3-3-31.3-3l-0.7-1.4c0,0-13.7,0.5-15.7,8.6
		c-1.8,7.4,3.3,13.7,3.3,13.7L60.5,431c0,0,10.4,5.8,19.8,8.6c0.2,0.2,0.5,0.4,0.7,0.6c3.3,2.2,11.5,5.7,21.1,7.6
		c7.9,1.7,16.7,2.3,24.6,0.5c7.6-1.8,11.7-5.1,13.5-8.9c0.5-1.3,0.8-2.6,1.2-3.9c0.1-0.4,0.2-0.8,0.2-1.3
		C141.7,432.8,141.6,431.4,141.4,429.9z M138.3,431.6c0,0.2-0.1,0.5-0.1,0.6c0,0.2,0,0.4,0,0.6v0.1c0,0.2-0.1,0.4-0.1,0.6
		s-0.1,0.5-0.1,0.6s-0.1,0.5-0.1,0.5s-0.1,0.2-0.1,0.3c-0.1,0.3-0.1,0.6-0.3,0.8l-0.1,0.3c-0.1,0.2-0.2,0.4-0.3,0.6
		s-0.2,0.4-0.3,0.6l-0.3,0.5c-0.1,0.3-0.3,0.6-0.4,0.7c-0.1,0.2-0.3,0.5-0.4,0.6c-0.1,0.1-0.1,0.2-0.2,0.3l-0.2,0.3
		c-0.1,0.2-0.3,0.4-0.5,0.6l-0.5,0.6l-0.5,0.6l-0.5,0.5c-0.3,0.3-0.6,0.5-0.8,0.7l-0.4,0.3l-0.4,0.3c-0.3,0.2-0.6,0.4-0.8,0.6
		l-0.6,0.4l-0.4,0.3l-0.6,0.4c-0.2,0.1-0.4,0.2-0.6,0.3l-0.8,0.4c-0.6,0.3-1.2,0.6-1.9,0.8c-7.2,2.2-14.9,2.6-22.4,0.9
		c-3.9-0.8-7.7-1.9-11.3-3.5l0,0c-1.9-0.2-3.5-1-4.9-2.3c-2.1-1.1-4.2-2.3-6.1-3.7h-4.9l-9.6-5.1c0,0-1.4-4.7-3.5-16.3
		c-8.6-12,1.2-16.7,8.8-18.5l2.6,1.9l4.7-0.9c0.7,0.4,1.4,1,1.8,1.8c0.8-0.4,5.7-0.4,5.7-0.4l1.9,2.1H91c0,0,0.7-4,24.1,5.1
		c1.1,0.5,2.2,0.9,3.2,1.4l0.9,0.5l1,0.5l0.9,0.5l0.7,0.4l1.1,0.6c1.6,0.9,3.1,1.9,4.5,3.1l0.6,0.5l0.5,0.4l0.5,0.4
		c0.4,0.4,0.7,0.6,1.1,1l0.5,0.5c0.6,0.6,1.2,1.2,1.8,1.8c0.4,0.5,0.7,0.8,1.1,1.4c0.4,0.6,0.7,0.9,1,1.4c0.2,0.3,0.4,0.6,0.5,0.7
		c0.1,0.2,0.3,0.4,0.4,0.6s0.3,0.4,0.4,0.6l0.3,0.6c0.2,0.4,0.5,0.8,0.6,1.3c0.1,0.2,0.2,0.6,0.3,0.6c0.1,0.1,0.1,0.4,0.2,0.5
		c0.1,0.1,0.1,0.3,0.2,0.5s0.1,0.5,0.2,0.5s0,0.1,0.1,0.3c0.1,0.2,0.1,0.4,0.2,0.6c0.1,0.2,0.1,0.5,0.2,0.7c0.1,0.3,0.1,0.6,0.1,0.7
		l0.1,0.4c0,0.1,0,0.2,0,0.4c0,0.2,0,0.3,0,0.5c0,0.2,0,0.2,0,0.4S138.3,431.5,138.3,431.6L138.3,431.6z"/>
	<path class="st7" d="M115.2,407c-23.4-9.1-24.1-5.1-24.1-5.1h-1.9l-1.9-2.1c0,0-4.9,0-5.7,0.4c-0.4-0.7-1-1.4-1.8-1.8l-4.7,0.9
		l-2.6-1.9c-7.7,1.8-17.4,6.5-8.8,18.5c2.1,11.6,3.5,16.3,3.5,16.3l9.6,5.1h4.9c1.9,1.4,4,2.6,6.1,3.7c1.4,0.7,3.1,1.6,4.9,2.3l0,0
		c3.7,1.6,7.5,2.8,11.5,3.6c7.4,1.7,15.1,1.3,22.4-0.9C147.4,437.6,138.6,416.1,115.2,407z M126,427.5v2.7l-2.7,2.8l-0.6,1.8
		l-1.3,0.9h-1.3l-2.3,2.2h-3l-1.8,2.1l-2.3-0.8l-0.9-0.4l-4.5,1.2l-3.9-1.3l-7.9-2.7l-5.1-4.1l-1.2,0.9c0,0-0.6-0.3-1.6-0.9
		c-1.1-0.6-3-1.8-5.5-3.2c-0.1-0.1-0.2-0.3-0.4-0.6c-1.1-2.1-4.2-8.6-3.6-10.2c0.6-1.8-0.5-3.8-3.8-5.8c0-4,2.5-7.5,3.8-8.1l4.1,0.7
		h1.7c4.3,1.9,8.7,3.5,13.3,4.7c6.4-3.1,13.4-0.8,21.4,2.7c8.1,3.4,9.9,13.1,9.9,13.1L126,427.5z"/>
	<path class="st8" d="M116.7,412c-8.1-3.4-15-5.8-21.4-2.7c-4.5-1.2-9-2.8-13.3-4.7h-1.7l-4.1-0.7c-1.3,0.6-3.8,4.1-3.8,8.1
		c3.3,2,4.5,4.1,3.8,5.8c-0.6,1.6,2.5,8.2,3.6,10.2c0.2-0.5,0.3-0.9,0.5-1.4c3.4-8.4,13.1-12.4,21.4-9c8.4,3.4,12.4,13.1,9,21.4
		l2.3,0.8l1.8-2.1h3l2.3-2.2h1.3l1.3-0.9l0.6-1.8l2.7-2.8v-2.6l0.6-2.3C126.6,425.1,124.8,415.5,116.7,412z"/>
	<path class="st9" d="M102.5,434.6c0-3.7-2.3-7-5.8-8.2c-4.5-1.6-9.5,0.8-11,5.3c1.1,0.6,1.6,0.9,1.6,0.9l1.2-0.9l5.1,4.1l7.9,2.7
		C102.2,437.4,102.4,436,102.5,434.6L102.5,434.6z"/>
	<path class="st10" d="M100.3,417c-8.7-2.6-17.8,2.3-20.4,11c0.2,0.3,0.3,0.5,0.4,0.6c2.5,1.5,4.3,2.5,5.5,3.2
		c0.1-0.4,0.3-0.7,0.5-1c2.1-4.3,7.4-5.9,11.7-3.8c4.3,2.1,5.9,7.4,3.8,11.7l3.9,1.3l4.5-1.2l0.9,0.4c0.8-1.9,1.2-4.1,1.2-6.2
		C112.1,425.5,107.3,419,100.3,417z"/>
	<path class="st2" d="M179.7,368.7h1.3c-0.5,0.4-0.8,0.7-1.3,1.1C179.7,369.4,179.7,369,179.7,368.7z"/>
</g>
<g>
	<path class="st0" d="M360.4,198.4v238.4c-43.4,21-58.6-69-49.9-90.9c6.2-15.5,15.3-26.3,17.6-35.7c1.1-4.6,0.6-8.8-2.6-13.1
		c-1.6-2.2-3.2-2.9-4.8-2.8c-8.8,0.7-20.1,26.1-42.2,10.2c-26.4-18.9-13.8-99.8-2.9-106.2H360.4z"/>
	<path class="st1" d="M360.4,436.7V480h-13.1c-27.9-0.1-56.6-0.1-62.2-0.1c-10.9,0-12.9-16-23-27.9c-0.9-1.1-2.1-2.2-3.1-3.1V198.4
		h16.4c-10.9,6.3-23.5,87.2,2.9,106.2c22.2,15.8,33.4-9.4,42.2-10.2c1.7-0.1,3.3,0.6,4.8,2.8c3.2,4.2,3.7,8.5,2.6,13.1
		c-2.3,9.4-11.4,20.2-17.6,35.7c-4.2,10.7-2.9,37.8,4.9,60.1c0.5,1.4,0.9,2.8,1.5,4l0,0c0.9,2.4,2,4.7,3.1,7c0,0,0,0,0,0.1
		c6.3,12.9,15.3,22.3,26.9,22.8l0,0c3.9,0.2,8.1-0.7,12.7-2.8c0,0,0.1,0,0.1-0.1C360,437,360.2,436.8,360.4,436.7z"/>
	<path class="st2" d="M403.2,198.4v241.7c-2.2-10.6-7.9-18.9-21.2-14.9c-4.2,1.3-9.3,3.8-15.3,7.9c-2.2,1.5-4.2,2.8-6.3,3.7V198.4
		H403.2z"/>
	<path class="st3" d="M403.2,440.1V480h-42.8v-43.3c2.1-1,4.1-2.2,6.3-3.7c6-4.1,11-6.7,15.3-7.9
		C395.3,421.1,401.1,429.5,403.2,440.1z"/>
	<rect x="287.2" y="192" class="st3" width="87.8" height="6.3"/>
	<path class="st2" d="M366.7,166.3V192h-71.2v-25.7c0-1.3,1-2.3,2.3-2.3h66.6C365.7,164,366.7,165.1,366.7,166.3z"/>
	<path class="st4" d="M343.8,164c0,0,16.1-78.7,18.4-91.9s7.5-14.3,20.7-6.9c13.2,7.5,37.2,22.4,44.8,27.5c7.6,5.2,0.9,11-4.6,7.5
		c-5.5-3.6-36.7-22.4-45.3-28.1c-8.6-5.7-9.8,8.6-10.9,14.3c-1.1,5.7-12.1,77.6-12.1,77.6H343.8z"/>
	<path class="st5" d="M364.1,455.9L364.1,455.9c-1,2.8-2.3,5.4-3.7,7.9c-0.1,0.1-0.2,0.3-0.2,0.5c-3.3,6-7.7,11.2-12.9,15.7H259
		v-60.5c0.8-3.1,1.7-5.5,2.5-6.9c-2.2,9.2,4.1,17,4.1,17l-0.5,15.8c0,0,8.5,4.8,18,8.4c1.7,0.7,3.4,1.3,5.2,1.8
		c0.5,0.1,0.9,0.3,1.4,0.5c0.3,0.2,0.6,0.5,0.9,0.7c0.7,0.5,1.5,0.9,2.4,1.4c0.3,0.2,0.8,0.3,1.1,0.6c2.1,1,4.7,2.2,7.7,3.2
		c0.3,0.1,0.7,0.2,1,0.3c0.5,0.2,1,0.3,1.5,0.6c1.3,0.5,2.5,0.8,3.9,1.3c0.6,0.1,1,0.3,1.6,0.5c0.5,0.1,1,0.2,1.6,0.5
		c0.6,0.1,1,0.2,1.6,0.5c1.3,0.3,2.5,0.6,3.9,0.9c1.4,0.3,2.8,0.6,4.2,0.8l0,0c0.8,0.1,1.7,0.2,2.5,0.3c0.1,0,0.3,0,0.5,0
		c0.7,0.1,1.3,0.2,2,0.2c1,0.1,2.2,0.2,3.2,0.3c0.6,0,1.1,0.1,1.7,0.1c5.5,0.2,11-0.1,16.2-1.4c6.1-1.4,10.2-3.6,13.1-6.1
		c0.5-0.3,0.8-0.8,1.1-1.1c0.6-0.6,1-1.1,1.5-1.8c0.1-0.2,0.2-0.5,0.3-0.6c0.1-0.2,0.2-0.5,0.3-0.6
		C363.9,456.4,364,456.1,364.1,455.9z"/>
	<path class="st6" d="M365.6,444L365.6,444c-0.5-3.1-1.1-6.2-2.2-9.2c-1.6-5-7.7-10.1-15-14.7c-2.3-1.4-4.7-2.8-7.1-4
		c-0.8-0.5-1.6-0.8-2.4-1.3c-5.9-2.9-11.9-5.4-18-7.5c-13.8-4.6-38.7-3.7-38.7-3.7l-0.9-1.7c0,0-17,0.6-19.4,10.7
		c-2.2,9.2,4.1,17,4.1,17l-0.5,15.7c0,0,12.9,7.2,24.6,10.7c0.2,0.2,0.6,0.5,0.9,0.7c4.1,2.8,14.2,7,26.2,9.4
		c9.8,2.1,20.7,2.9,30.4,0.6c9.4-2.2,14.5-6.3,16.8-11c0.6-1.6,1-3.2,1.5-4.8c0.1-0.5,0.2-1,0.2-1.6
		C365.9,447.6,365.8,445.8,365.6,444z M361.8,446.1c0,0.2-0.1,0.6-0.1,0.8s0,0.5,0,0.7v0.1c0,0.2-0.1,0.5-0.1,0.7s-0.1,0.6-0.1,0.8
		s-0.1,0.6-0.1,0.6s-0.1,0.2-0.1,0.3c-0.1,0.3-0.1,0.7-0.3,1l-0.1,0.3c-0.1,0.2-0.2,0.5-0.3,0.7s-0.2,0.5-0.3,0.7l-0.3,0.6
		c-0.1,0.3-0.3,0.7-0.5,0.9c-0.1,0.2-0.3,0.6-0.5,0.7c-0.1,0.1-0.1,0.2-0.2,0.3l-0.2,0.3c-0.1,0.2-0.3,0.5-0.6,0.7l-0.6,0.7
		l-0.6,0.7l-0.6,0.6c-0.3,0.3-0.7,0.6-1,0.9l-0.5,0.3l-0.5,0.3c-0.3,0.2-0.7,0.5-1,0.7l-0.7,0.5l-0.5,0.3l-0.8,0.5
		c-0.2,0.1-0.5,0.2-0.7,0.3l-1,0.5c-0.7,0.3-1.5,0.7-2.3,1c-9,2.8-18.5,3.2-27.8,1.1c-4.8-1-9.5-2.4-14-4.4l0,0
		c-2.3-0.2-4.4-1.3-6.1-2.9c-2.6-1.4-5.2-2.9-7.6-4.6h-6.1l-11.9-6.3c0,0-1.7-5.9-4.4-20.2c-10.7-14.8,1.5-20.7,10.9-22.8l3.2,2.4
		l5.9-1.1c0.9,0.5,1.7,1.3,2.2,2.2c1-0.5,7-0.5,7-0.5l2.4,2.6h2.4c0,0,0.9-4.9,29.8,6.3c1.4,0.6,2.8,1.1,4,1.7l1.1,0.6l1.3,0.6
		l1.1,0.6l0.9,0.5l1.4,0.8c2,1.1,3.8,2.4,5.5,3.8l0.8,0.6l0.6,0.5l0.6,0.5c0.5,0.5,0.9,0.8,1.4,1.3l0.6,0.6c0.8,0.7,1.5,1.5,2.2,2.2
		c0.5,0.6,0.9,1,1.4,1.7c0.5,0.7,0.9,1.1,1.3,1.7c0.2,0.3,0.5,0.7,0.6,0.9c0.1,0.2,0.3,0.5,0.5,0.7c0.1,0.2,0.3,0.5,0.5,0.7l0.3,0.7
		c0.2,0.5,0.6,1,0.8,1.6c0.1,0.2,0.2,0.7,0.3,0.8s0.1,0.5,0.2,0.6c0.1,0.1,0.1,0.3,0.2,0.6c0.1,0.2,0.1,0.6,0.2,0.6
		c0.1,0,0,0.1,0.1,0.3c0.1,0.2,0.1,0.5,0.2,0.7c0.1,0.2,0.1,0.6,0.2,0.9c0.1,0.3,0.1,0.7,0.1,0.9l0.1,0.5c0,0.1,0,0.2,0,0.5
		s0,0.3,0,0.6c0,0.2,0,0.2,0,0.5S361.8,445.9,361.8,446.1L361.8,446.1z"/>
	<path class="st7" d="M333.2,415.6c-28.9-11.2-29.8-6.3-29.8-6.3H301l-2.4-2.6c0,0-6.1,0-7,0.5c-0.5-0.9-1.3-1.7-2.2-2.2l-5.9,1.1
		l-3.2-2.4c-9.5,2.2-21.6,8-10.9,22.8c2.6,14.3,4.4,20.2,4.4,20.2l11.9,6.3h6.1c2.4,1.7,4.9,3.2,7.6,4.6c1.7,0.9,3.8,2,6.1,2.9l0,0
		c4.6,2,9.3,3.4,14.2,4.5c9.2,2.1,18.7,1.6,27.8-1.1C373,453.5,362.1,426.9,333.2,415.6z M346.5,441v3.3l-3.3,3.4l-0.7,2.2l-1.6,1.1
		h-1.6l-2.9,2.8h-3.7l-2.2,2.6l-2.9-1l-1.1-0.5l-5.6,1.5l-4.8-1.6l-9.8-3.3l-6.3-5l-1.5,1.1c0,0-0.7-0.3-2-1.1
		c-1.4-0.8-3.7-2.2-6.8-3.9c-0.1-0.1-0.2-0.3-0.5-0.7c-1.4-2.6-5.2-10.7-4.5-12.6c0.7-2.2-0.6-4.7-4.7-7.2c0-4.9,3.1-9.3,4.7-10
		l5,0.9h2.1c5.3,2.4,10.8,4.4,16.4,5.9c7.9-3.8,16.5-1,26.5,3.3c10,4.2,12.3,16.2,12.3,16.2L346.5,441z"/>
	<path class="st8" d="M335.1,421.8c-10-4.2-18.6-7.1-26.5-3.3c-5.6-1.5-11.1-3.4-16.4-5.9h-2.1l-5-0.9c-1.6,0.7-4.7,5-4.7,10
		c4.1,2.5,5.5,5,4.7,7.2c-0.7,2,3.1,10.1,4.5,12.6c0.2-0.6,0.3-1.1,0.6-1.7c4.2-10.4,16.2-15.4,26.5-11.1
		c10.4,4.2,15.4,16.2,11.1,26.5l2.9,1l2.2-2.6h3.7l2.9-2.8h1.6l1.6-1.1l0.7-2.2l3.3-3.4v-3.2l0.8-2.9
		C347.3,438,345,426.2,335.1,421.8z"/>
	<path class="st9" d="M317.5,449.8c0-4.6-2.9-8.6-7.2-10.1c-5.6-2-11.7,1-13.7,6.5c1.4,0.8,2,1.1,2,1.1l1.5-1.1l6.3,5l9.8,3.3
		C317,453.3,317.4,451.5,317.5,449.8L317.5,449.8z"/>
	<path class="st10" d="M314.7,428c-10.8-3.2-22,2.9-25.2,13.7c0.2,0.3,0.3,0.6,0.5,0.7c3.1,1.8,5.3,3.1,6.8,3.9
		c0.1-0.5,0.3-0.9,0.6-1.3c2.6-5.3,9.2-7.3,14.5-4.7c5.3,2.6,7.3,9.2,4.7,14.5l4.8,1.6l5.6-1.5l1.1,0.5c1-2.4,1.5-5,1.5-7.7
		C329.3,438.6,323.4,430.5,314.7,428z"/>
	<path class="st2" d="M413,368.2h1.6c-0.6,0.5-1,0.9-1.6,1.4C413,369.1,413,368.7,413,368.2z"/>
</g>
<path class="st0" d="M269.9,164.2v284.2c-51.7,25-69.9-82.2-59.5-108.4c7.4-18.5,18.2-31.3,20.9-42.6c1.4-5.5,0.7-10.5-3.1-15.6
	c-1.9-2.6-3.8-3.4-5.7-3.3c-10.5,0.8-23.9,31.1-50.4,12.2c-31.5-22.6-16.4-119-3.4-126.6H269.9z"/>
<path class="st1" d="M269.9,448.4V500h-15.6c-33.3-0.1-67.5-0.1-74.2-0.1c-13,0-15.3-19-27.4-33.3c-1.1-1.4-2.5-2.6-3.7-3.7V164.2
	h19.6c-13,7.5-28.1,104,3.4,126.6c26.4,18.9,39.8-11.2,50.4-12.2c2.1-0.1,4,0.7,5.7,3.3c3.8,5.1,4.4,10.1,3.1,15.6
	c-2.7,11.2-13.5,24.1-20.9,42.6c-5.1,12.7-3.4,45,5.9,71.7c0.5,1.6,1.1,3.3,1.8,4.8l0,0c1.1,2.9,2.3,5.6,3.7,8.3c0,0,0,0,0,0.1
	c7.5,15.3,18.2,26.5,32,27.2l0,0c4.7,0.3,9.7-0.8,15.2-3.3c0,0,0.1,0,0.1-0.1C269.4,448.7,269.7,448.6,269.9,448.4z"/>
<path class="st2" d="M321,164.2v288.2c-2.6-12.6-9.4-22.6-25.3-17.8c-5.1,1.5-11.1,4.5-18.2,9.4c-2.6,1.8-5.1,3.3-7.5,4.4V164.2H321
	z"/>
<path class="st3" d="M321,452.4V500h-51v-51.6c2.5-1.2,4.9-2.6,7.5-4.4c7.1-4.9,13.1-7.9,18.2-9.4
	C311.5,429.8,318.4,439.8,321,452.4z"/>
<rect x="182.6" y="156.7" class="st3" width="104.7" height="7.5"/>
<path class="st2" d="M277.5,126v30.7h-84.8V126c0-1.5,1.2-2.7,2.7-2.7h79.4C276.2,123.3,277.5,124.5,277.5,126z"/>
<path class="st4" d="M250.1,123.3c0,0,19.2-93.9,21.9-109.6s8.9-17.1,24.6-8.2s44.3,26.7,53.4,32.8s1.1,13.1-5.5,8.9
	s-43.8-26.7-54-33.5c-10.3-6.8-11.6,10.3-13,17.1c-1.4,6.8-14.4,92.5-14.4,92.5H250.1z"/>
<path class="st5" d="M274.3,471.3L274.3,471.3c-1.2,3.3-2.7,6.4-4.4,9.4c-0.1,0.1-0.3,0.4-0.3,0.5c-4,7.1-9.2,13.4-15.3,18.7H149
	v-72.1c1-3.7,2.1-6.6,3-8.2c-2.6,10.9,4.9,20.3,4.9,20.3l-0.5,18.9c0,0,10.1,5.7,21.5,10c2.1,0.8,4.1,1.5,6.2,2.2
	c0.5,0.1,1.1,0.4,1.6,0.5c0.4,0.3,0.7,0.5,1.1,0.8c0.8,0.5,1.8,1.1,2.9,1.6c0.4,0.3,1,0.4,1.4,0.7c2.5,1.2,5.6,2.6,9.2,3.8
	c0.4,0.1,0.8,0.3,1.2,0.4c0.5,0.3,1.2,0.4,1.8,0.7c1.5,0.5,3,1,4.7,1.5c0.7,0.1,1.2,0.4,1.9,0.5c0.5,0.1,1.2,0.3,1.9,0.5
	c0.7,0.1,1.2,0.3,1.9,0.5c1.5,0.4,3,0.7,4.7,1.1c1.6,0.4,3.3,0.7,5.1,1l0,0c1,0.1,2.1,0.3,3,0.4c0.1,0,0.4,0,0.5,0
	c0.8,0.1,1.5,0.3,2.3,0.3c1.2,0.1,2.6,0.3,3.8,0.4c0.7,0,1.4,0.1,2.1,0.1c6.6,0.3,13.1-0.1,19.3-1.6c7.3-1.6,12.2-4.2,15.6-7.3
	c0.5-0.4,1-1,1.4-1.4c0.7-0.7,1.2-1.4,1.8-2.2c0.1-0.3,0.3-0.5,0.4-0.7c0.1-0.3,0.3-0.5,0.4-0.7C274,471.8,274.2,471.5,274.3,471.3z
	"/>
<path class="st6" d="M276.1,457L276.1,457c-0.5-3.7-1.4-7.4-2.6-10.9c-1.9-6-9.2-12-17.9-17.5c-2.7-1.6-5.6-3.3-8.5-4.8
	c-1-0.5-1.9-1-2.9-1.5c-7-3.4-14.2-6.4-21.5-8.9c-16.4-5.5-46.1-4.4-46.1-4.4l-1.1-2.1c0,0-20.3,0.7-23.1,12.7
	c-2.6,10.9,4.9,20.3,4.9,20.3l-0.5,18.7c0,0,15.3,8.6,29.3,12.7c0.3,0.3,0.7,0.5,1.1,0.8c4.9,3.3,17,8.3,31.2,11.2
	c11.6,2.5,24.6,3.4,36.3,0.7c11.2-2.6,17.2-7.5,20-13.1c0.7-1.9,1.2-3.8,1.8-5.7c0.1-0.5,0.3-1.2,0.3-1.9
	C276.5,461.4,276.4,459.2,276.1,457z M271.6,459.6c0,0.3-0.1,0.7-0.1,1s0,0.5,0,0.8v0.1c0,0.3-0.1,0.5-0.1,0.8c0,0.3-0.1,0.7-0.1,1
	S271,464,271,464s-0.1,0.3-0.1,0.4c-0.1,0.4-0.1,0.8-0.4,1.2l-0.1,0.4c-0.1,0.3-0.3,0.5-0.4,0.8s-0.3,0.5-0.4,0.8l-0.4,0.7
	c-0.1,0.4-0.4,0.8-0.5,1.1s-0.4,0.7-0.5,0.8c-0.1,0.1-0.1,0.3-0.3,0.4l-0.3,0.4c-0.1,0.3-0.4,0.5-0.7,0.8l-0.7,0.8l-0.7,0.8
	l-0.7,0.7c-0.4,0.4-0.8,0.7-1.2,1.1l-0.5,0.4l-0.5,0.4c-0.4,0.3-0.8,0.5-1.2,0.8l-0.8,0.5l-0.5,0.4l-1,0.5c-0.3,0.1-0.5,0.3-0.8,0.4
	l-1.2,0.5c-0.8,0.4-1.8,0.8-2.7,1.2c-10.7,3.3-22,3.8-33.1,1.4c-5.7-1.2-11.4-2.9-16.7-5.2l0,0c-2.7-0.3-5.2-1.5-7.3-3.4
	c-3.1-1.6-6.2-3.4-9-5.5h-7.3l-14.2-7.5c0,0-2.1-7-5.2-24.1c-12.7-17.7,1.8-24.6,13-27.2l3.8,2.9l7-1.4c1.1,0.5,2.1,1.5,2.6,2.6
	c1.2-0.5,8.3-0.5,8.3-0.5l2.9,3.1h2.9c0,0,1.1-5.9,35.6,7.5c1.6,0.7,3.3,1.4,4.8,2.1l1.4,0.7l1.5,0.7l1.4,0.7l1.1,0.5l1.6,1
	c2.3,1.4,4.5,2.9,6.6,4.5l1,0.7l0.7,0.5l0.7,0.5c0.5,0.5,1.1,1,1.6,1.5l0.7,0.7c1,0.8,1.8,1.8,2.6,2.6c0.5,0.7,1.1,1.2,1.6,2.1
	s1.1,1.4,1.5,2.1c0.3,0.4,0.5,0.8,0.7,1.1c0.1,0.3,0.4,0.5,0.5,0.8c0.1,0.3,0.4,0.5,0.5,0.8l0.4,0.8c0.3,0.5,0.7,1.2,1,1.9
	c0.1,0.3,0.3,0.8,0.4,1s0.1,0.5,0.3,0.7c0.1,0.1,0.1,0.4,0.3,0.7c0.1,0.3,0.1,0.7,0.3,0.7s0,0.1,0.1,0.4c0.1,0.3,0.1,0.5,0.3,0.8
	c0.1,0.3,0.1,0.7,0.3,1.1c0.1,0.4,0.1,0.8,0.1,1.1l0.1,0.5c0,0.1,0,0.3,0,0.5c0,0.3,0,0.4,0,0.7s0,0.3,0,0.5
	S271.6,459.4,271.6,459.6L271.6,459.6z"/>
<path class="st7" d="M237.5,423.2c-34.5-13.4-35.6-7.5-35.6-7.5H199l-2.9-3.1c0,0-7.3,0-8.3,0.5c-0.5-1.1-1.5-2.1-2.6-2.6l-7,1.4
	l-3.8-2.9c-11.4,2.6-25.7,9.6-13,27.2c3.1,17.1,5.2,24.1,5.2,24.1l14.2,7.5h7.3c2.9,2.1,5.9,3.8,9,5.5c2.1,1.1,4.5,2.3,7.3,3.4l0,0
	c5.5,2.3,11.1,4.1,17,5.3c10.9,2.5,22.3,1.9,33.1-1.4C285,468.4,272,436.6,237.5,423.2z M253.4,453.5v4l-4,4.1l-0.8,2.6l-1.9,1.4
	h-1.9l-3.4,3.3H237l-2.6,3.1l-3.4-1.2l-1.4-0.5l-6.7,1.8l-5.7-1.9l-11.6-4l-7.5-6l-1.8,1.4c0,0-0.8-0.4-2.3-1.4
	c-1.6-1-4.4-2.6-8.1-4.7c-0.1-0.1-0.3-0.4-0.5-0.8c-1.6-3.1-6.2-12.7-5.3-15.1c0.8-2.6-0.7-5.6-5.6-8.6c0-5.9,3.7-11.1,5.6-11.9
	l6,1.1h2.5c6.3,2.9,12.9,5.2,19.6,7c9.4-4.5,19.7-1.2,31.6,4c11.9,5.1,14.6,19.3,14.6,19.3L253.4,453.5z"/>
<path class="st8" d="M239.7,430.6c-11.9-5.1-22.2-8.5-31.6-4c-6.7-1.8-13.3-4.1-19.6-7H186l-6-1.1c-1.9,0.8-5.6,6-5.6,11.9
	c4.9,3,6.6,6,5.6,8.6c-0.8,2.3,3.7,12,5.3,15.1c0.3-0.7,0.4-1.4,0.7-2.1c5.1-12.5,19.3-18.3,31.6-13.3c12.5,5.1,18.3,19.3,13.3,31.6
	l3.4,1.2l2.6-3.1h4.4l3.4-3.3h1.9l1.9-1.4l0.8-2.6l4-4.1v-3.8l1-3.4C254.3,449.9,251.6,435.8,239.7,430.6z"/>
<path class="st9" d="M218.8,464c0-5.5-3.4-10.3-8.6-12c-6.7-2.3-14,1.2-16.3,7.8c1.6,1,2.3,1.4,2.3,1.4l1.8-1.4l7.5,6l11.6,4
	C218.2,468.1,218.6,466.1,218.8,464L218.8,464z"/>
<path class="st10" d="M215.5,438c-12.9-3.8-26.3,3.4-30.1,16.3c0.3,0.4,0.4,0.7,0.5,0.8c3.7,2.2,6.3,3.7,8.1,4.7
	c0.1-0.5,0.4-1.1,0.7-1.5c3.1-6.3,10.9-8.8,17.2-5.6s8.8,10.9,5.6,17.2l5.7,1.9l6.7-1.8l1.4,0.5c1.2-2.9,1.8-6,1.8-9.2
	C232.8,450.6,225.7,441,215.5,438z"/>
<path class="st2" d="M332.6,366.7h1.9c-0.7,0.5-1.2,1.1-1.9,1.6C332.6,367.8,332.6,367.3,332.6,366.7z"/>
</svg>
