<?xml version="1.0" encoding="utf-8"?>
<!-- Generator: Adobe Illustrator 21.0.0, SVG Export Plug-In . SVG Version: 6.00 Build 0)  -->
<svg version="1.1" id="Calque_1" xmlns="http://www.w3.org/2000/svg" xmlns:xlink="http://www.w3.org/1999/xlink" x="0px" y="0px"
	 viewBox="0 0 500 500" style="enable-background:new 0 0 500 500;" xml:space="preserve">
<style type="text/css">
	.st0{fill:#FFFFFF;}
	.st1{fill:#90CBB0;}
	.st2{fill:#F2F2F2;}
	.st3{fill:#57A07D;}
	.st4{fill:#F93E3E;}
	.st5{fill:#472611;}
	.st6{fill:#855830;}
	.st7{fill:#F9F6F2;}
	.st8{fill:#EAE9E8;}
	.st9{fill:#D3D3D3;}
	.st10{fill:#E0E0E0;}
	.st11{fill:#B7B7B7;}
</style>
<path class="st0" d="M171.5,188v207.7c-37.8,18.3-51.1-60.1-43.5-79.2c5.4-13.5,13.3-22.9,15.3-31.1c1-4,0.5-7.7-2.3-11.4
	c-1.4-1.9-2.8-2.5-4.2-2.4c-7.7,0.6-17.5,22.7-36.8,8.9c-23-16.5-12-87-2.5-92.5H171.5z"/>
<path class="st1" d="M171.5,395.7v37.7h-11.4c-24.3-0.1-49.3-0.1-54.2-0.1c-9.5,0-11.2-13.9-20-24.3c-0.8-1-1.8-1.9-2.7-2.7V188
	h14.3c-9.5,5.5-20.5,76,2.5,92.5c19.3,13.8,29.1-8.2,36.8-8.9c1.5-0.1,2.9,0.5,4.2,2.4c2.8,3.7,3.2,7.4,2.3,11.4
	c-2,8.2-9.9,17.6-15.3,31.1c-3.7,9.3-2.5,32.9,4.3,52.4c0.4,1.2,0.8,2.4,1.3,3.5c0,0,0,0,0,0c0.8,2.1,1.7,4.1,2.7,6.1c0,0,0,0,0,0.1
	c5.5,11.2,13.3,19.4,23.4,19.9c0,0,0,0,0,0c3.4,0.2,7.1-0.6,11.1-2.4c0,0,0.1,0,0.1-0.1C171.1,395.9,171.3,395.8,171.5,395.7z"/>
<path class="st2" d="M208.8,188v210.6c-1.9-9.2-6.9-16.5-18.5-13c-3.7,1.1-8.1,3.3-13.3,6.9c-1.9,1.3-3.7,2.4-5.5,3.2V188H208.8z"/>
<path class="st3" d="M208.8,398.6v34.8h-37.3v-37.7c1.8-0.9,3.6-1.9,5.5-3.2c5.2-3.6,9.6-5.8,13.3-6.9
	C201.9,382.1,206.9,389.4,208.8,398.6z"/>
<rect x="107.7" y="182.5" class="st3" width="76.5" height="5.5"/>
<path class="st2" d="M177,160.1v22.4h-62v-22.4c0-1.1,0.9-2,2-2h58C176.1,158.1,177,159,177,160.1z"/>
<path class="st4" d="M157,158.1c0,0,14-68.6,16-80.1s6.5-12.5,18-6s32.4,19.5,39,24s0.8,9.6-4,6.5c-4.8-3.1-32-19.5-39.5-24.5
	s-8.5,7.5-9.5,12.5s-10.5,67.6-10.5,67.6H157z"/>
<path class="st5" d="M174.7,412.4C174.7,412.4,174.7,412.4,174.7,412.4c-0.9,2.4-2,4.7-3.2,6.9c-0.1,0.1-0.2,0.3-0.2,0.4
	c-2.9,5.2-6.7,9.8-11.2,13.7H83.1v-52.7c0.7-2.7,1.5-4.8,2.2-6c-1.9,8,3.6,14.8,3.6,14.8l-0.4,13.8c0,0,7.4,4.2,15.7,7.3
	c1.5,0.6,3,1.1,4.5,1.6c0.4,0.1,0.8,0.3,1.2,0.4c0.3,0.2,0.5,0.4,0.8,0.6c0.6,0.4,1.3,0.8,2.1,1.2c0.3,0.2,0.7,0.3,1,0.5
	c1.8,0.9,4.1,1.9,6.7,2.8c0.3,0.1,0.6,0.2,0.9,0.3c0.4,0.2,0.9,0.3,1.3,0.5c1.1,0.4,2.2,0.7,3.4,1.1c0.5,0.1,0.9,0.3,1.4,0.4
	c0.4,0.1,0.9,0.2,1.4,0.4c0.5,0.1,0.9,0.2,1.4,0.4c1.1,0.3,2.2,0.5,3.4,0.8c1.2,0.3,2.4,0.5,3.7,0.7c0,0,0,0,0,0
	c0.7,0.1,1.5,0.2,2.2,0.3c0.1,0,0.3,0,0.4,0c0.6,0.1,1.1,0.2,1.7,0.2c0.9,0.1,1.9,0.2,2.8,0.3c0.5,0,1,0.1,1.5,0.1
	c4.8,0.2,9.6-0.1,14.1-1.2c5.3-1.2,8.9-3.1,11.4-5.3c0.4-0.3,0.7-0.7,1-1c0.5-0.5,0.9-1,1.3-1.6c0.1-0.2,0.2-0.4,0.3-0.5
	c0.1-0.2,0.2-0.4,0.3-0.5C174.5,412.8,174.6,412.6,174.7,412.4z"/>
<path class="st6" d="M176,402L176,402c-0.4-2.7-1-5.4-1.9-8c-1.4-4.4-6.7-8.8-13.1-12.8c-2-1.2-4.1-2.4-6.2-3.5
	c-0.7-0.4-1.4-0.7-2.1-1.1c-5.1-2.5-10.4-4.7-15.7-6.5c-12-4-33.7-3.2-33.7-3.2l-0.8-1.5c0,0-14.8,0.5-16.9,9.3
	c-1.9,8,3.6,14.8,3.6,14.8l-0.4,13.7c0,0,11.2,6.3,21.4,9.3c0.2,0.2,0.5,0.4,0.8,0.6c3.6,2.4,12.4,6.1,22.8,8.2
	c8.5,1.8,18,2.5,26.5,0.5c8.2-1.9,12.6-5.5,14.6-9.6c0.5-1.4,0.9-2.8,1.3-4.2c0.1-0.4,0.2-0.9,0.2-1.4
	C176.3,405.2,176.2,403.6,176,402z M172.7,403.9c0,0.2-0.1,0.5-0.1,0.7s0,0.4,0,0.6c0,0,0,0.1,0,0.1c0,0.2-0.1,0.4-0.1,0.6
	s-0.1,0.5-0.1,0.7s-0.1,0.5-0.1,0.5s-0.1,0.2-0.1,0.3c-0.1,0.3-0.1,0.6-0.3,0.9l-0.1,0.3c-0.1,0.2-0.2,0.4-0.3,0.6s-0.2,0.4-0.3,0.6
	l-0.3,0.5c-0.1,0.3-0.3,0.6-0.4,0.8s-0.3,0.5-0.4,0.6s-0.1,0.2-0.2,0.3l-0.2,0.3c-0.1,0.2-0.3,0.4-0.5,0.6l-0.5,0.6l-0.5,0.6
	l-0.5,0.5c-0.3,0.3-0.6,0.5-0.9,0.8l-0.4,0.3l-0.4,0.3c-0.3,0.2-0.6,0.4-0.9,0.6l-0.6,0.4l-0.4,0.3l-0.7,0.4
	c-0.2,0.1-0.4,0.2-0.6,0.3l-0.9,0.4c-0.6,0.3-1.3,0.6-2,0.9c-7.8,2.4-16.1,2.8-24.2,1c-4.2-0.9-8.3-2.1-12.2-3.8l0,0
	c-2-0.2-3.8-1.1-5.3-2.5c-2.3-1.2-4.5-2.5-6.6-4h-5.3l-10.4-5.5c0,0-1.5-5.1-3.8-17.6c-9.3-12.9,1.3-18,9.5-19.9l2.8,2.1l5.1-1
	c0.8,0.4,1.5,1.1,1.9,1.9c0.9-0.4,6.1-0.4,6.1-0.4l2.1,2.3h2.1c0,0,0.8-4.3,26,5.5c1.2,0.5,2.4,1,3.5,1.5l1,0.5l1.1,0.5l1,0.5
	l0.8,0.4l1.2,0.7c1.7,1,3.3,2.1,4.8,3.3l0.7,0.5l0.5,0.4l0.5,0.4c0.4,0.4,0.8,0.7,1.2,1.1l0.5,0.5c0.7,0.6,1.3,1.3,1.9,1.9
	c0.4,0.5,0.8,0.9,1.2,1.5s0.8,1,1.1,1.5c0.2,0.3,0.4,0.6,0.5,0.8s0.3,0.4,0.4,0.6s0.3,0.4,0.4,0.6l0.3,0.6c0.2,0.4,0.5,0.9,0.7,1.4
	c0.1,0.2,0.2,0.6,0.3,0.7s0.1,0.4,0.2,0.5s0.1,0.3,0.2,0.5s0.1,0.5,0.2,0.5s0,0.1,0.1,0.3s0.1,0.4,0.2,0.6s0.1,0.5,0.2,0.8
	s0.1,0.6,0.1,0.8l0.1,0.4c0,0.1,0,0.2,0,0.4s0,0.3,0,0.5s0,0.2,0,0.4S172.7,403.7,172.7,403.9L172.7,403.9z"/>
<path class="st7" d="M147.8,377.3c-25.2-9.8-26-5.5-26-5.5h-2.1l-2.1-2.3c0,0-5.3,0-6.1,0.4c-0.4-0.8-1.1-1.5-1.9-1.9l-5.1,1
	l-2.8-2.1c-8.3,1.9-18.8,7-9.5,19.9c2.3,12.5,3.8,17.6,3.8,17.6l10.4,5.5h5.3c2.1,1.5,4.3,2.8,6.6,4c1.5,0.8,3.3,1.7,5.3,2.5l0,0
	c4,1.7,8.1,3,12.4,3.9c8,1.8,16.3,1.4,24.2-1C182.5,410.3,173,387.1,147.8,377.3z M159.4,399.4v2.9l-2.9,3l-0.6,1.9l-1.4,1h-1.4
	l-2.5,2.4h-3.2l-1.9,2.3l-2.5-0.9l-1-0.4l-4.9,1.3l-4.2-1.4l-8.5-2.9l-5.5-4.4l-1.3,1c0,0-0.6-0.3-1.7-1c-1.2-0.7-3.2-1.9-5.9-3.4
	c-0.1-0.1-0.2-0.3-0.4-0.6c-1.2-2.3-4.5-9.3-3.9-11c0.6-1.9-0.5-4.1-4.1-6.3c0-4.3,2.7-8.1,4.1-8.7l4.4,0.8h1.8
	c4.6,2.1,9.4,3.8,14.3,5.1c6.9-3.3,14.4-0.9,23.1,2.9c8.7,3.7,10.7,14.1,10.7,14.1L159.4,399.4z"/>
<path class="st8" d="M149.4,382.7c-8.7-3.7-16.2-6.2-23.1-2.9c-4.9-1.3-9.7-3-14.3-5.1h-1.8l-4.4-0.8c-1.4,0.6-4.1,4.4-4.1,8.7
	c3.6,2.2,4.8,4.4,4.1,6.3c-0.6,1.7,2.7,8.8,3.9,11c0.2-0.5,0.3-1,0.5-1.5c3.7-9.1,14.1-13.4,23.1-9.7c9.1,3.7,13.4,14.1,9.7,23.1
	l2.5,0.9l1.9-2.3h3.2l2.5-2.4h1.4l1.4-1l0.6-1.9l2.9-3v-2.8l0.7-2.5C160.1,396.8,158.1,386.5,149.4,382.7z"/>
<path class="st9" d="M134.1,407.1c0-4-2.5-7.5-6.3-8.8c-4.9-1.7-10.2,0.9-11.9,5.7c1.2,0.7,1.7,1,1.7,1l1.3-1l5.5,4.4l8.5,2.9
	C133.7,410.1,134,408.6,134.1,407.1L134.1,407.1z"/>
<path class="st10" d="M131.7,388.1c-9.4-2.8-19.2,2.5-22,11.9c0.2,0.3,0.3,0.5,0.4,0.6c2.7,1.6,4.6,2.7,5.9,3.4
	c0.1-0.4,0.3-0.8,0.5-1.1c2.3-4.6,8-6.4,12.6-4.1c4.6,2.3,6.4,8,4.1,12.6l4.2,1.4l4.9-1.3l1,0.4c0.9-2.1,1.3-4.4,1.3-6.7
	C144.4,397.3,139.2,390.3,131.7,388.1z"/>
<path class="st2" d="M217.3,336h1.4c-0.5,0.4-0.9,0.8-1.4,1.2C217.3,336.8,217.3,336.4,217.3,336z"/>
<path class="st11" d="M364,405.8h1.1l0,0l-0.5-8.8L364,405.8z"/>
</svg>
