<svg id="Calque_1" data-name="Calque 1" xmlns="http://www.w3.org/2000/svg" viewBox="0 0 2000 500"><defs><style>.cls-1{fill:#b8e1ed;}.cls-2{fill:#b29b85;}.cls-3{fill:#3a3a3a;}.cls-4{fill:#739d63;}.cls-5{fill:#d1bda6;}.cls-6{fill:#ededed;}.cls-7{fill:#a3a2a2;}.cls-8{fill:#877360;}.cls-9{fill:#eadcce;}.cls-10{fill:#4a753b;}.cls-11{fill:#66391b;}.cls-12{fill:#628754;}.cls-13{fill:#9e9388;}.cls-14{fill:#cfcece;}.cls-15{fill:#e2e2e1;}.cls-16{fill:#e6f4f9;}.cls-17{fill:#fafafa;}.cls-18{fill:#603228;}.cls-19{fill:#3a201c;}.cls-20{fill:#85593b;}.cls-21{fill:#0e0e0e;}</style></defs><title>paris</title><rect class="cls-1" width="2000" height="500"/><polygon class="cls-2" points="1213.58 55.02 1297 55.02 1297 191 1374.2 191 1374.2 238.09 1449 238.09 1449 0 1753 0 1753 228.54 2000 228.54 2000 457.08 0 457.08 0 141.81 45 141.81 1213.58 55.02"/><path class="cls-3" d="M1548.68,341.81,1512,238.09l-22.35-63.25-.75-2.12-.21-.57-1.85-5.27L1482,153.26l-.24-1.34-11-60.82-9.41-52.23-.13-.75L1454.39,0h-74.91c5.17,36.65,11.35,71.5,16.57,98.68v0q1.25,6.48,2.41,12.35c5.11,25.86,20.94,86.21,20.94,86.21h-98.95S1347.95,81.3,1358.63,0h-71.86l-9.63,55L1260,153.26l-32.47,88-79.61,215.8h108.66s0-72.35,21.81-127.53c13.45-34,20.51-61.5,90.32-61.5s72.81,21.31,88.23,49.61a223.58,223.58,0,0,1,14.27,32.62c18,51,21.52,106.8,21.52,106.8h96.75Z" transform="translate(0 0)"/><circle class="cls-4" cx="1613.51" cy="134.56" r="79.54"/><path class="cls-4" d="M1714.05,40.11a173.06,173.06,0,0,1-21.66,84.12,174.64,174.64,0,0,1-52.45,58.36,173.07,173.07,0,0,1-51.23,24.61c-1.53.44-3.08.87-4.63,1.27a174.07,174.07,0,0,1-44,5.63,175.93,175.93,0,0,1-20.12-1.15,174.37,174.37,0,0,1-20.59-3.64h0A172.61,172.61,0,0,1,1449,188.39q-4.5-2.76-8.82-5.8-5.25-3.69-10.21-7.75-1.8-1.47-3.55-3-5.67-4.89-10.89-10.24-3.92-4-7.55-8.26a173.47,173.47,0,0,1-33.47-59.57,172.09,172.09,0,0,1-7.56-36.12A175.42,175.42,0,0,1,1370.72,0H1709.4A174.38,174.38,0,0,1,1714.05,40.11Z" transform="translate(0 0)"/><path class="cls-5" d="M2000,465.07V500H531.82V479.67a5.68,5.68,0,0,0-5.67-5.67H386.67a5.68,5.68,0,0,0-5.67,5.67V500H0V465.07Z" transform="translate(0 0)"/><path class="cls-6" d="M531.82,479.67V500H518.5V488.21a5.68,5.68,0,0,0-5.67-5.67h-1.66a5.68,5.68,0,0,0-5.67,5.67V500h-9V488.21a5.68,5.68,0,0,0-5.67-5.67h-1.66a5.68,5.68,0,0,0-5.67,5.67V500h-9V488.21a5.68,5.68,0,0,0-5.67-5.67h-1.66a5.68,5.68,0,0,0-5.67,5.67V500h-9V488.21a5.68,5.68,0,0,0-5.67-5.67h-1.66a5.68,5.68,0,0,0-5.67,5.67V500h-9V488.21a5.68,5.68,0,0,0-5.67-5.67h-1.66a5.68,5.68,0,0,0-5.67,5.67V500h-9V488.21a5.68,5.68,0,0,0-5.67-5.67h-1.66a5.68,5.68,0,0,0-5.67,5.67V500H381V479.67a5.68,5.68,0,0,1,5.67-5.67H526.15A5.68,5.68,0,0,1,531.82,479.67Z" transform="translate(0 0)"/><path class="cls-7" d="M408.5,488.21V500h-13V488.21a5.68,5.68,0,0,1,5.67-5.67h1.66A5.68,5.68,0,0,1,408.5,488.21Z" transform="translate(0 0)"/><path class="cls-7" d="M430.5,488.21V500h-13V488.21a5.68,5.68,0,0,1,5.67-5.67h1.66A5.68,5.68,0,0,1,430.5,488.21Z" transform="translate(0 0)"/><path class="cls-7" d="M452.5,488.21V500h-13V488.21a5.68,5.68,0,0,1,5.67-5.67h1.66A5.68,5.68,0,0,1,452.5,488.21Z" transform="translate(0 0)"/><path class="cls-7" d="M474.5,488.21V500h-13V488.21a5.68,5.68,0,0,1,5.67-5.67h1.66A5.68,5.68,0,0,1,474.5,488.21Z" transform="translate(0 0)"/><path class="cls-7" d="M496.5,488.21V500h-13V488.21a5.68,5.68,0,0,1,5.67-5.67h1.66A5.68,5.68,0,0,1,496.5,488.21Z" transform="translate(0 0)"/><path class="cls-7" d="M518.5,488.21V500h-13V488.21a5.68,5.68,0,0,1,5.67-5.67h1.66A5.68,5.68,0,0,1,518.5,488.21Z" transform="translate(0 0)"/><path class="cls-6" d="M1513.87,479.67V500h-13.32V488.21a5.68,5.68,0,0,0-5.67-5.67h-1.66a5.68,5.68,0,0,0-5.67,5.67V500h-9V488.21a5.68,5.68,0,0,0-5.67-5.67h-1.66a5.68,5.68,0,0,0-5.67,5.67V500h-9V488.21a5.68,5.68,0,0,0-5.67-5.67h-1.66a5.68,5.68,0,0,0-5.67,5.67V500h-9V488.21a5.68,5.68,0,0,0-5.67-5.67h-1.66a5.68,5.68,0,0,0-5.67,5.67V500h-9V488.21a5.68,5.68,0,0,0-5.67-5.67h-1.66a5.68,5.68,0,0,0-5.67,5.67V500h-9V488.21a5.68,5.68,0,0,0-5.67-5.67h-1.66a5.68,5.68,0,0,0-5.67,5.67V500h-14.5V479.67a5.68,5.68,0,0,1,5.67-5.67H1508.2A5.68,5.68,0,0,1,1513.87,479.67Z" transform="translate(0 0)"/><path class="cls-7" d="M1390.55,488.21V500h-13V488.21a5.68,5.68,0,0,1,5.67-5.67h1.66A5.68,5.68,0,0,1,1390.55,488.21Z" transform="translate(0 0)"/><path class="cls-7" d="M1412.55,488.21V500h-13V488.21a5.68,5.68,0,0,1,5.67-5.67h1.66A5.68,5.68,0,0,1,1412.55,488.21Z" transform="translate(0 0)"/><path class="cls-7" d="M1434.55,488.21V500h-13V488.21a5.68,5.68,0,0,1,5.67-5.67h1.66A5.68,5.68,0,0,1,1434.55,488.21Z" transform="translate(0 0)"/><path class="cls-7" d="M1456.55,488.21V500h-13V488.21a5.68,5.68,0,0,1,5.67-5.67h1.66A5.68,5.68,0,0,1,1456.55,488.21Z" transform="translate(0 0)"/><path class="cls-7" d="M1478.55,488.21V500h-13V488.21a5.68,5.68,0,0,1,5.67-5.67h1.66A5.68,5.68,0,0,1,1478.55,488.21Z" transform="translate(0 0)"/><path class="cls-7" d="M1500.55,488.21V500h-13V488.21a5.68,5.68,0,0,1,5.67-5.67h1.66A5.68,5.68,0,0,1,1500.55,488.21Z" transform="translate(0 0)"/><rect class="cls-8" y="457.08" width="2000" height="7.99"/><rect class="cls-5" x="45" width="65.71" height="457.08"/><rect class="cls-5" x="1147.87" width="65.71" height="457.08"/><path class="cls-5" d="M155.33,457.08H141.67s-5-4.41-5-7.75V280s-4-1.67-4-11,4-10,4-10V244.09h5V443.41A13.67,13.67,0,0,0,155.33,457.08Z" transform="translate(0 0)"/><path class="cls-5" d="M141.67,0V228.54h-5V67s-4-3.67-4-8,4-8,4-8V0Z" transform="translate(0 0)"/><path class="cls-9" d="M623.25,0V457.08H155.33a13.67,13.67,0,0,1-13.66-13.67V244.09h-5V259s-4,.67-4,10,4,11,4,11V449.33c0,3.34,5,7.75,5,7.75h-31V0h26V51s-4,3.67-4,8,4,8,4,8V228.54h5V0Z" transform="translate(0 0)"/><rect class="cls-9" x="690.79" width="457.08" height="457.08"/><rect class="cls-2" x="623.25" y="141.81" width="67.54" height="315.27"/><rect class="cls-1" x="623.25" width="67.54" height="141.81"/><path class="cls-4" d="M1281.24,421.92a72.54,72.54,0,0,0,9,35.16h246.06a61.59,61.59,0,0,0,4.45-23.08c0-30.73-22.34-56.16-51.4-60.38-3.17-36.22-33.08-64.62-69.51-64.62a69.73,69.73,0,0,0-63.31,41.07c-1.49-.1-3-.15-4.52-.15C1312.93,349.92,1281.24,382.16,1281.24,421.92Z" transform="translate(0 0)"/><path class="cls-10" d="M1463,421.92a71.57,71.57,0,0,1-9.16,35.16H1203.53a61,61,0,0,1,47.76-83.46,71,71,0,0,1,135.11-23.55c1.52-.1,3-.15,4.6-.15A72,72,0,0,1,1463,421.92Z" transform="translate(0 0)"/><polygon class="cls-11" points="1586.94 153.72 1597 457.08 1513 457.08 1519.74 220.11 1429.07 172.09 1399.07 91.1 1417.07 91.1 1439.57 155.6 1520.29 200.59 1525 35 1583 35 1586.25 133.01 1622.56 19.1 1636.06 19.1 1586.94 153.72"/><path class="cls-4" d="M1675.67,0c-.25,1.54-.53,3.06-.85,4.58a118.36,118.36,0,0,1-17.11,41.31c-1.2,1.84-2.46,3.65-3.77,5.41-.51.69-1,1.38-1.57,2.06q-3.33,4.3-7,8.29a119.34,119.34,0,0,1-29.08,22.88q-2.48,1.39-5,2.67a118.81,118.81,0,0,1-12,5.2h0c-1.87.69-3.75,1.33-5.67,1.92q-4.17,1.3-8.48,2.31c-1,.23-2,.45-3,.65a120.88,120.88,0,0,1-45.66,56.89,117.82,117.82,0,0,1-15,8.56,119.59,119.59,0,0,1-23.61,8.34h0a119.78,119.78,0,0,1-24.57,3.26c-1.2,0-2.4.06-3.61.06-2.46,0-4.9-.07-7.33-.23a115.32,115.32,0,0,1-13.24-1.53,116.65,116.65,0,0,1-21.35-5.75c-.2-.06-.39-.14-.59-.21a111.73,111.73,0,0,1-11.53-5,117.43,117.43,0,0,1-15.16-9.06,120.24,120.24,0,0,1-14.59-12h0a120.7,120.7,0,0,1-29.27-128.7A96.81,96.81,0,0,1,1352.42,0Z" transform="translate(0 0)"/><circle class="cls-12" cx="1449" cy="100.53" r="74.8"/><circle class="cls-12" cx="1593.09" cy="67.64" r="60.96"/><circle class="cls-12" cx="1516" cy="95.71" r="77.54"/><path class="cls-12" d="M1530.5,21.62a46,46,0,0,1-5.75,22.3h0A46.21,46.21,0,0,1,1511.25,59a46,46,0,0,1-72.54-32.61,45.24,45.24,0,0,1-.25-4.82A45.81,45.81,0,0,1,1443.85,0h81.26a45.67,45.67,0,0,1,5.34,19.52C1530.48,20.22,1530.5,20.92,1530.5,21.62Z" transform="translate(0 0)"/><circle class="cls-10" cx="1410.35" cy="95.71" r="57.72"/><path class="cls-10" d="M1675.06,9.51a51.76,51.76,0,0,1-16.44,37.9,53,53,0,0,1-4.68,3.89c-.58.42-1.16.84-1.76,1.25a51.76,51.76,0,0,1-29,8.86c-.84,0-1.68,0-2.51-.06a51.74,51.74,0,0,1-11-1.72,46.22,46.22,0,0,1-4.67-1.5,51.88,51.88,0,0,1-21.71-15.43h0a50.37,50.37,0,0,1-5.32-7.69,51.4,51.4,0,0,1-6.67-24.29c0-.4,0-.8,0-1.2a52.24,52.24,0,0,1,.87-9.51h102.07c.28,1.51.49,3,.63,4.58S1675.06,7.85,1675.06,9.51Z" transform="translate(0 0)"/><circle class="cls-10" cx="1633.54" cy="61.52" r="28.78"/><rect class="cls-9" x="1654.06" width="262.22" height="457.08" transform="translate(3570.34 457.08) rotate(180)"/><rect class="cls-5" x="1916.28" width="62.97" height="457.08"/><rect class="cls-13" x="35.54" y="228.54" width="75.17" height="15.55"/><rect class="cls-5" x="110.71" y="228.54" width="25.96" height="15.55"/><rect class="cls-5" x="141.67" y="228.54" width="489.58" height="15.55"/><rect class="cls-13" x="1147.87" y="228.54" width="75.17" height="15.55"/><rect class="cls-13" x="1916.28" y="228.54" width="68.5" height="15.55"/><rect class="cls-5" x="683.17" y="228.54" width="464.7" height="15.55" transform="translate(1831.04 472.63) rotate(180)"/><rect class="cls-5" x="1646.39" y="228.54" width="269.9" height="15.55" transform="translate(3562.67 472.63) rotate(180)"/><path class="cls-14" d="M169,0V443.41a13.67,13.67,0,1,1-27.33,0V0Z" transform="translate(0 0)"/><rect class="cls-14" x="136.67" y="264" width="38.33" height="10" rx="5" ry="5"/><rect class="cls-14" x="136.67" y="54" width="38.33" height="10" rx="5" ry="5"/><path class="cls-15" d="M151.75,0V414.19c0,3-.81,5.39-1.81,5.39s-1.82-2.43-1.82-5.39V0Z" transform="translate(0 0)"/><rect class="cls-13" x="136.67" y="228.54" width="5" height="15.55"/><path class="cls-5" d="M155.33,457.08H141.67s-5-4.41-5-7.75V280s-4-1.67-4-11,4-10,4-10V244.09h5V443.41A13.67,13.67,0,0,0,155.33,457.08Z" transform="translate(0 0)"/><path class="cls-5" d="M141.67,0V228.54h-5V67s-4-3.67-4-8,4-8,4-8V0Z" transform="translate(0 0)"/><path class="cls-14" d="M169,0V443.41a13.67,13.67,0,1,1-27.33,0V0Z" transform="translate(0 0)"/><rect class="cls-14" x="136.67" y="264" width="38.33" height="10" rx="5" ry="5"/><rect class="cls-14" x="136.67" y="54" width="38.33" height="10" rx="5" ry="5"/><path class="cls-15" d="M151.75,0V414.19c0,3-.81,5.39-1.81,5.39s-1.82-2.43-1.82-5.39V0Z" transform="translate(0 0)"/><rect class="cls-13" x="136.67" y="228.54" width="5" height="15.55"/><path class="cls-5" d="M909.19,457.08H895.53s-5-4.41-5-7.75V280s-4-1.67-4-11,4-10,4-10V244.09h5V443.41A13.67,13.67,0,0,0,909.19,457.08Z" transform="translate(0 0)"/><path class="cls-5" d="M895.53,0V228.54h-5V67s-4-3.67-4-8,4-8,4-8V0Z" transform="translate(0 0)"/><path class="cls-14" d="M922.86,0V443.41a13.67,13.67,0,1,1-27.33,0V0Z" transform="translate(0 0)"/><rect class="cls-14" x="890.53" y="264" width="38.33" height="10" rx="5" ry="5"/><rect class="cls-14" x="890.53" y="54" width="38.33" height="10" rx="5" ry="5"/><path class="cls-15" d="M905.61,0V414.19c0,3-.81,5.39-1.81,5.39s-1.82-2.43-1.82-5.39V0Z" transform="translate(0 0)"/><rect class="cls-13" x="890.53" y="228.54" width="5" height="15.55"/><rect class="cls-3" x="420.46" y="145.13" width="4.42" height="36.24"/><rect class="cls-3" x="547.82" y="145.13" width="4.42" height="36.24"/><rect class="cls-5" x="424.88" y="42.38" width="122.93" height="145.63"/><rect class="cls-16" x="432.26" y="49.02" width="108.18" height="132.34"/><rect class="cls-2" x="416.33" y="35.19" width="140.33" height="7.19"/><rect class="cls-2" x="437.61" y="21.36" width="97.77" height="7.19"/><polygon class="cls-17" points="493.42 49.02 432.26 133.07 432.26 149.88 506.84 49.02 493.42 49.02"/><polygon class="cls-17" points="517.78 49.02 432.26 162.4 432.26 181.37 540.44 181.37 540.44 49.02 517.78 49.02"/><polygon class="cls-5" points="424.88 35.19 437.62 28.55 535.38 28.55 547.82 35.19 424.88 35.19"/><rect class="cls-3" x="416.33" y="181.37" width="140.33" height="10.07"/><rect class="cls-3" x="416.33" y="140.1" width="140.33" height="5.04"/><path class="cls-3" d="M465.72,163.22c0-.21-.05-.42-.09-.64a20.47,20.47,0,1,0,.23,3A19.48,19.48,0,0,0,465.72,163.22Zm-20.34,19.3a16.9,16.9,0,1,1,16.89-16.9A16.91,16.91,0,0,1,445.37,182.52Z" transform="translate(0 0)"/><path class="cls-3" d="M456.87,157c0-.12,0-.24,0-.36a11.57,11.57,0,1,0,.13,1.71A11,11,0,0,0,456.87,157Zm-11.5,10.91a9.55,9.55,0,1,1,9.55-9.55A9.56,9.56,0,0,1,445.37,167.93Z" transform="translate(0 0)"/><path class="cls-3" d="M538.83,157c0-.12,0-.24,0-.36a11.57,11.57,0,1,0,.13,1.71A11,11,0,0,0,538.83,157Zm-11.5,10.91a9.55,9.55,0,1,1,9.55-9.55A9.56,9.56,0,0,1,527.33,167.93Z" transform="translate(0 0)"/><path class="cls-3" d="M527.33,145.13a20.49,20.49,0,1,0,20.48,20.48A20.49,20.49,0,0,0,527.33,145.13Zm0,37.38a16.9,16.9,0,1,1,16.89-16.9A16.91,16.91,0,0,1,527.33,182.52Z" transform="translate(0 0)"/><path class="cls-3" d="M490.32,163.26A9.46,9.46,0,1,0,477,154.6a7,7,0,0,0,0,.75h0a9.45,9.45,0,0,0,1.93,5,9.56,9.56,0,0,0,3.67,2.87,9.51,9.51,0,0,0-3.25,2.37,9.39,9.39,0,0,0-2.28,5,8.18,8.18,0,0,0-.1,1.32,9.46,9.46,0,1,0,13.28-8.65Zm-9.9-3.76a7.8,7.8,0,1,1,6.08,2.9A7.86,7.86,0,0,1,480.42,159.5Zm6.08,20.21a7.8,7.8,0,1,1,7.8-7.8A7.8,7.8,0,0,1,486.5,179.71Z" transform="translate(0 0)"/><path class="cls-3" d="M479.42,165.63a9.39,9.39,0,0,0-2.28,5c-1.87-5-7.84-6.76-11.42-7.37,0-.21-.05-.42-.09-.64,3.52-.6,9.49-2.33,11.44-7.23a9.45,9.45,0,0,0,1.93,5,24.06,24.06,0,0,1-9.35,2.5A23.66,23.66,0,0,1,479.42,165.63Z" transform="translate(0 0)"/><path class="cls-3" d="M493.42,165.63a9.39,9.39,0,0,1,2.28,5c1.87-5,7.84-6.76,11.42-7.37,0-.21.05-.42.09-.64-3.52-.6-9.49-2.33-11.44-7.23a9.45,9.45,0,0,1-1.93,5,24.06,24.06,0,0,0,9.35,2.5A23.66,23.66,0,0,0,493.42,165.63Z" transform="translate(0 0)"/><rect class="cls-3" x="226.63" y="145.13" width="4.42" height="36.24"/><rect class="cls-3" x="353.99" y="145.13" width="4.42" height="36.24"/><rect class="cls-5" x="231.05" y="42.38" width="122.93" height="145.63"/><rect class="cls-16" x="238.43" y="49.02" width="108.18" height="132.34"/><rect class="cls-2" x="222.5" y="35.19" width="140.33" height="7.19"/><rect class="cls-2" x="243.78" y="21.36" width="97.77" height="7.19"/><polygon class="cls-17" points="299.59 49.02 238.43 133.07 238.43 149.88 313.01 49.02 299.59 49.02"/><polygon class="cls-17" points="323.95 49.02 238.43 162.4 238.43 181.37 346.61 181.37 346.61 49.02 323.95 49.02"/><polygon class="cls-5" points="231.05 35.19 243.78 28.55 341.55 28.55 353.99 35.19 231.05 35.19"/><rect class="cls-3" x="222.5" y="181.37" width="140.33" height="10.07"/><rect class="cls-3" x="222.5" y="140.1" width="140.33" height="5.04"/><path class="cls-3" d="M271.89,163.22c0-.21-.05-.42-.09-.64a20.47,20.47,0,1,0,.23,3A19.48,19.48,0,0,0,271.89,163.22Zm-20.34,19.3a16.9,16.9,0,1,1,16.89-16.9A16.91,16.91,0,0,1,251.54,182.52Z" transform="translate(0 0)"/><path class="cls-3" d="M263,157c0-.12,0-.24,0-.36a11.57,11.57,0,1,0,.13,1.71A11,11,0,0,0,263,157Zm-11.5,10.91a9.55,9.55,0,1,1,9.55-9.55A9.56,9.56,0,0,1,251.54,167.93Z" transform="translate(0 0)"/><path class="cls-3" d="M345,157c0-.12,0-.24,0-.36a11.57,11.57,0,1,0,.13,1.71A11,11,0,0,0,345,157Zm-11.5,10.91a9.55,9.55,0,1,1,9.55-9.55A9.56,9.56,0,0,1,333.5,167.93Z" transform="translate(0 0)"/><path class="cls-3" d="M333.5,145.13A20.49,20.49,0,1,0,354,165.62,20.49,20.49,0,0,0,333.5,145.13Zm0,37.38a16.9,16.9,0,1,1,16.89-16.9A16.91,16.91,0,0,1,333.5,182.52Z" transform="translate(0 0)"/><path class="cls-3" d="M296.49,163.26a9.46,9.46,0,1,0-13.28-8.66,7,7,0,0,0,0,.75h0a9.45,9.45,0,0,0,1.93,5,9.56,9.56,0,0,0,3.67,2.87,9.51,9.51,0,0,0-3.25,2.37,9.39,9.39,0,0,0-2.28,5,8.18,8.18,0,0,0-.1,1.32,9.46,9.46,0,1,0,13.28-8.65Zm-9.9-3.76a7.8,7.8,0,1,1,6.08,2.9A7.86,7.86,0,0,1,286.59,159.5Zm6.08,20.21a7.8,7.8,0,1,1,7.8-7.8A7.8,7.8,0,0,1,292.67,179.71Z" transform="translate(0 0)"/><path class="cls-3" d="M285.59,165.63a9.39,9.39,0,0,0-2.28,5c-1.87-5-7.84-6.76-11.42-7.37,0-.21-.05-.42-.09-.64,3.52-.6,9.49-2.33,11.44-7.23a9.45,9.45,0,0,0,1.93,5,24.06,24.06,0,0,1-9.35,2.5A23.66,23.66,0,0,1,285.59,165.63Z" transform="translate(0 0)"/><path class="cls-3" d="M299.59,165.63a9.39,9.39,0,0,1,2.28,5c1.87-5,7.84-6.76,11.42-7.37,0-.21.05-.42.09-.64-3.52-.6-9.49-2.33-11.44-7.23a9.45,9.45,0,0,1-1.93,5,24.06,24.06,0,0,0,9.35,2.5A23.66,23.66,0,0,0,299.59,165.63Z" transform="translate(0 0)"/><rect class="cls-3" x="226.63" y="393.31" width="4.42" height="36.24"/><rect class="cls-3" x="353.99" y="393.31" width="4.42" height="36.24"/><rect class="cls-5" x="231.05" y="290.56" width="122.93" height="145.63"/><rect class="cls-16" x="238.43" y="297.2" width="108.18" height="132.34"/><rect class="cls-2" x="222.5" y="283.37" width="140.33" height="7.19"/><rect class="cls-2" x="243.78" y="269.54" width="97.77" height="7.19"/><polygon class="cls-17" points="299.59 297.2 238.43 381.25 238.43 398.06 313.01 297.2 299.59 297.2"/><polygon class="cls-17" points="323.95 297.2 238.43 410.58 238.43 429.55 346.61 429.55 346.61 297.2 323.95 297.2"/><polygon class="cls-5" points="231.05 283.37 243.78 276.73 341.55 276.73 353.99 283.37 231.05 283.37"/><rect class="cls-3" x="222.5" y="429.55" width="140.33" height="10.07"/><rect class="cls-3" x="222.5" y="388.27" width="140.33" height="5.04"/><path class="cls-3" d="M271.89,411.4c0-.21-.05-.42-.09-.64a20.47,20.47,0,1,0,.23,3A19.48,19.48,0,0,0,271.89,411.4Zm-20.34,19.3a16.9,16.9,0,1,1,16.89-16.9A16.91,16.91,0,0,1,251.54,430.7Z" transform="translate(0 0)"/><path class="cls-3" d="M263,405.2c0-.12,0-.24,0-.36a11.57,11.57,0,1,0,.13,1.71A11,11,0,0,0,263,405.2Zm-11.5,10.91a9.55,9.55,0,1,1,9.55-9.55A9.56,9.56,0,0,1,251.54,416.11Z" transform="translate(0 0)"/><path class="cls-3" d="M345,405.2c0-.12,0-.24,0-.36a11.57,11.57,0,1,0,.13,1.71A11,11,0,0,0,345,405.2Zm-11.5,10.91a9.55,9.55,0,1,1,9.55-9.55A9.56,9.56,0,0,1,333.5,416.11Z" transform="translate(0 0)"/><path class="cls-3" d="M333.5,393.31A20.49,20.49,0,1,0,354,413.8,20.49,20.49,0,0,0,333.5,393.31Zm0,37.38a16.9,16.9,0,1,1,16.89-16.9A16.91,16.91,0,0,1,333.5,430.7Z" transform="translate(0 0)"/><path class="cls-3" d="M296.49,411.44a9.46,9.46,0,1,0-13.28-8.66,7,7,0,0,0,0,.75h0a9.45,9.45,0,0,0,1.93,5,9.56,9.56,0,0,0,3.67,2.87,9.51,9.51,0,0,0-3.25,2.37,9.39,9.39,0,0,0-2.28,5,8.18,8.18,0,0,0-.1,1.32,9.46,9.46,0,1,0,13.28-8.65Zm-9.9-3.76a7.8,7.8,0,1,1,6.08,2.9A7.86,7.86,0,0,1,286.59,407.68Zm6.08,20.21a7.8,7.8,0,1,1,7.8-7.8A7.8,7.8,0,0,1,292.67,427.89Z" transform="translate(0 0)"/><path class="cls-3" d="M285.59,413.81a9.39,9.39,0,0,0-2.28,5c-1.87-5-7.84-6.76-11.42-7.37,0-.21-.05-.42-.09-.64,3.52-.6,9.49-2.33,11.44-7.23a9.45,9.45,0,0,0,1.93,5,24.06,24.06,0,0,1-9.35,2.5A23.66,23.66,0,0,1,285.59,413.81Z" transform="translate(0 0)"/><path class="cls-3" d="M299.59,413.81a9.39,9.39,0,0,1,2.28,5c1.87-5,7.84-6.76,11.42-7.37,0-.21.05-.42.09-.64-3.52-.6-9.49-2.33-11.44-7.23a9.45,9.45,0,0,1-1.93,5,24.06,24.06,0,0,0,9.35,2.5A23.66,23.66,0,0,0,299.59,413.81Z" transform="translate(0 0)"/><rect class="cls-3" x="960.21" y="145.13" width="4.42" height="36.24"/><rect class="cls-3" x="1087.56" y="145.13" width="4.42" height="36.24"/><rect class="cls-5" x="964.63" y="42.38" width="122.93" height="145.63"/><rect class="cls-16" x="972" y="49.02" width="108.18" height="132.34"/><rect class="cls-2" x="956.08" y="35.19" width="140.33" height="7.19"/><rect class="cls-2" x="977.36" y="21.36" width="97.77" height="7.19"/><polygon class="cls-17" points="1033.17 49.02 972 133.07 972 149.88 1046.59 49.02 1033.17 49.02"/><polygon class="cls-17" points="1057.52 49.02 972 162.4 972 181.37 1080.19 181.37 1080.19 49.02 1057.52 49.02"/><polygon class="cls-5" points="964.63 35.19 977.36 28.55 1075.13 28.55 1087.56 35.19 964.63 35.19"/><rect class="cls-3" x="956.08" y="181.37" width="140.33" height="10.07"/><rect class="cls-3" x="956.08" y="140.1" width="140.33" height="5.04"/><path class="cls-3" d="M1005.46,163.22c0-.21-.05-.42-.09-.64a20.47,20.47,0,1,0,.23,3A19.48,19.48,0,0,0,1005.46,163.22Zm-20.34,19.3a16.9,16.9,0,1,1,16.89-16.9A16.91,16.91,0,0,1,985.12,182.52Z" transform="translate(0 0)"/><path class="cls-3" d="M996.62,157c0-.12,0-.24,0-.36a11.57,11.57,0,1,0,.13,1.71A11,11,0,0,0,996.62,157Zm-11.5,10.91a9.55,9.55,0,1,1,9.55-9.55A9.56,9.56,0,0,1,985.12,167.93Z" transform="translate(0 0)"/><path class="cls-3" d="M1078.58,157c0-.12,0-.24,0-.36a11.57,11.57,0,1,0,.13,1.71A11,11,0,0,0,1078.58,157Zm-11.5,10.91a9.55,9.55,0,1,1,9.55-9.55A9.56,9.56,0,0,1,1067.08,167.93Z" transform="translate(0 0)"/><path class="cls-3" d="M1067.08,145.13a20.49,20.49,0,1,0,20.48,20.48A20.49,20.49,0,0,0,1067.08,145.13Zm0,37.38a16.9,16.9,0,1,1,16.89-16.9A16.91,16.91,0,0,1,1067.08,182.52Z" transform="translate(0 0)"/><path class="cls-3" d="M1030.07,163.26a9.46,9.46,0,1,0-13.28-8.66,7,7,0,0,0,0,.75h0a9.45,9.45,0,0,0,1.93,5,9.56,9.56,0,0,0,3.67,2.87,9.51,9.51,0,0,0-3.25,2.37,9.39,9.39,0,0,0-2.28,5,8.18,8.18,0,0,0-.1,1.32,9.46,9.46,0,1,0,13.28-8.65Zm-9.9-3.76a7.8,7.8,0,1,1,6.08,2.9A7.86,7.86,0,0,1,1020.17,159.5Zm6.08,20.21a7.8,7.8,0,1,1,7.8-7.8A7.8,7.8,0,0,1,1026.25,179.71Z" transform="translate(0 0)"/><path class="cls-3" d="M1019.16,165.63a9.39,9.39,0,0,0-2.28,5c-1.87-5-7.84-6.76-11.42-7.37,0-.21-.05-.42-.09-.64,3.52-.6,9.49-2.33,11.44-7.23a9.45,9.45,0,0,0,1.93,5,24.06,24.06,0,0,1-9.35,2.5A23.66,23.66,0,0,1,1019.16,165.63Z" transform="translate(0 0)"/><path class="cls-3" d="M1033.17,165.63a9.39,9.39,0,0,1,2.28,5c1.87-5,7.84-6.76,11.42-7.37,0-.21.05-.42.09-.64-3.52-.6-9.49-2.33-11.44-7.23a9.45,9.45,0,0,1-1.93,5,24.06,24.06,0,0,0,9.35,2.5A23.66,23.66,0,0,0,1033.17,165.63Z" transform="translate(0 0)"/><rect class="cls-3" x="960.21" y="393.3" width="4.42" height="36.24"/><rect class="cls-3" x="1087.56" y="393.3" width="4.42" height="36.24"/><rect class="cls-5" x="964.63" y="290.55" width="122.93" height="145.63"/><rect class="cls-16" x="972" y="297.19" width="108.18" height="132.34"/><rect class="cls-2" x="956.08" y="283.36" width="140.33" height="7.19"/><rect class="cls-2" x="977.36" y="269.53" width="97.77" height="7.19"/><polygon class="cls-17" points="1033.17 297.19 972 381.24 972 398.05 1046.59 297.19 1033.17 297.19"/><polygon class="cls-17" points="1057.52 297.19 972 410.57 972 429.54 1080.19 429.54 1080.19 297.19 1057.52 297.19"/><polygon class="cls-5" points="964.63 283.36 977.36 276.72 1075.13 276.72 1087.56 283.36 964.63 283.36"/><rect class="cls-3" x="956.08" y="429.54" width="140.33" height="10.07"/><rect class="cls-3" x="956.08" y="388.27" width="140.33" height="5.04"/><path class="cls-3" d="M1005.46,411.39c0-.21-.05-.42-.09-.64a20.47,20.47,0,1,0,.23,3A19.48,19.48,0,0,0,1005.46,411.39Zm-20.34,19.3a16.9,16.9,0,1,1,16.89-16.9A16.91,16.91,0,0,1,985.12,430.69Z" transform="translate(0 0)"/><path class="cls-3" d="M996.62,405.19c0-.12,0-.24,0-.36a11.57,11.57,0,1,0,.13,1.71A11,11,0,0,0,996.62,405.19Zm-11.5,10.91a9.55,9.55,0,1,1,9.55-9.55A9.56,9.56,0,0,1,985.12,416.1Z" transform="translate(0 0)"/><path class="cls-3" d="M1078.58,405.19c0-.12,0-.24,0-.36a11.57,11.57,0,1,0,.13,1.71A11,11,0,0,0,1078.58,405.19Zm-11.5,10.91a9.55,9.55,0,1,1,9.55-9.55A9.56,9.56,0,0,1,1067.08,416.1Z" transform="translate(0 0)"/><path class="cls-3" d="M1067.08,393.3a20.49,20.49,0,1,0,20.48,20.48A20.49,20.49,0,0,0,1067.08,393.3Zm0,37.38a16.9,16.9,0,1,1,16.89-16.9A16.91,16.91,0,0,1,1067.08,430.69Z" transform="translate(0 0)"/><path class="cls-3" d="M1030.07,411.43a9.46,9.46,0,1,0-13.28-8.66,7,7,0,0,0,0,.75h0a9.45,9.45,0,0,0,1.93,5,9.56,9.56,0,0,0,3.67,2.87,9.51,9.51,0,0,0-3.25,2.37,9.39,9.39,0,0,0-2.28,5,8.18,8.18,0,0,0-.1,1.32,9.46,9.46,0,1,0,13.28-8.65Zm-9.9-3.76a7.8,7.8,0,1,1,6.08,2.9A7.86,7.86,0,0,1,1020.17,407.67Zm6.08,20.21a7.8,7.8,0,1,1,7.8-7.8A7.8,7.8,0,0,1,1026.25,427.88Z" transform="translate(0 0)"/><path class="cls-3" d="M1019.16,413.8a9.39,9.39,0,0,0-2.28,5c-1.87-5-7.84-6.76-11.42-7.37,0-.21-.05-.42-.09-.64,3.52-.6,9.49-2.33,11.44-7.23a9.45,9.45,0,0,0,1.93,5,24.06,24.06,0,0,1-9.35,2.5A23.66,23.66,0,0,1,1019.16,413.8Z" transform="translate(0 0)"/><path class="cls-3" d="M1033.17,413.8a9.39,9.39,0,0,1,2.28,5c1.87-5,7.84-6.76,11.42-7.37,0-.21.05-.42.09-.64-3.52-.6-9.49-2.33-11.44-7.23a9.45,9.45,0,0,1-1.93,5,24.06,24.06,0,0,0,9.35,2.5A23.66,23.66,0,0,0,1033.17,413.8Z" transform="translate(0 0)"/><rect class="cls-3" x="1715.3" y="145.13" width="4.42" height="36.24"/><rect class="cls-3" x="1842.65" y="145.13" width="4.42" height="36.24"/><rect class="cls-5" x="1719.72" y="42.38" width="122.93" height="145.63"/><rect class="cls-16" x="1727.09" y="49.02" width="108.18" height="132.34"/><rect class="cls-2" x="1711.17" y="35.19" width="140.33" height="7.19"/><rect class="cls-2" x="1732.45" y="21.36" width="97.77" height="7.19"/><polygon class="cls-17" points="1788.26 49.02 1727.09 133.07 1727.09 149.88 1801.68 49.02 1788.26 49.02"/><polygon class="cls-17" points="1812.62 49.02 1727.09 162.4 1727.09 181.37 1835.28 181.37 1835.28 49.02 1812.62 49.02"/><polygon class="cls-5" points="1719.72 35.19 1732.45 28.55 1830.22 28.55 1842.65 35.19 1719.72 35.19"/><rect class="cls-3" x="1711.17" y="181.37" width="140.33" height="10.07"/><rect class="cls-3" x="1711.17" y="140.1" width="140.33" height="5.04"/><path class="cls-3" d="M1760.55,163.22c0-.21-.05-.42-.09-.64a20.47,20.47,0,1,0,.23,3A19.48,19.48,0,0,0,1760.55,163.22Zm-20.34,19.3a16.9,16.9,0,1,1,16.89-16.9A16.91,16.91,0,0,1,1740.21,182.52Z" transform="translate(0 0)"/><path class="cls-3" d="M1751.71,157c0-.12,0-.24,0-.36a11.57,11.57,0,1,0,.13,1.71A11,11,0,0,0,1751.71,157Zm-11.5,10.91a9.55,9.55,0,1,1,9.55-9.55A9.56,9.56,0,0,1,1740.21,167.93Z" transform="translate(0 0)"/><path class="cls-3" d="M1833.67,157c0-.12,0-.24,0-.36a11.57,11.57,0,1,0,.13,1.71A11,11,0,0,0,1833.67,157Zm-11.5,10.91a9.55,9.55,0,1,1,9.55-9.55A9.56,9.56,0,0,1,1822.17,167.93Z" transform="translate(0 0)"/><path class="cls-3" d="M1822.17,145.13a20.49,20.49,0,1,0,20.48,20.48A20.49,20.49,0,0,0,1822.17,145.13Zm0,37.38a16.9,16.9,0,1,1,16.89-16.9A16.91,16.91,0,0,1,1822.17,182.52Z" transform="translate(0 0)"/><path class="cls-3" d="M1785.16,163.26a9.46,9.46,0,1,0-13.28-8.66,7,7,0,0,0,0,.75h0a9.45,9.45,0,0,0,1.93,5,9.56,9.56,0,0,0,3.67,2.87,9.51,9.51,0,0,0-3.25,2.37,9.39,9.39,0,0,0-2.28,5,8.18,8.18,0,0,0-.1,1.32,9.46,9.46,0,1,0,13.28-8.65Zm-9.9-3.76a7.8,7.8,0,1,1,6.08,2.9A7.86,7.86,0,0,1,1775.26,159.5Zm6.08,20.21a7.8,7.8,0,1,1,7.8-7.8A7.8,7.8,0,0,1,1781.34,179.71Z" transform="translate(0 0)"/><path class="cls-3" d="M1774.25,165.63a9.39,9.39,0,0,0-2.28,5c-1.87-5-7.84-6.76-11.42-7.37,0-.21-.05-.42-.09-.64,3.52-.6,9.49-2.33,11.44-7.23a9.45,9.45,0,0,0,1.93,5,24.06,24.06,0,0,1-9.35,2.5A23.66,23.66,0,0,1,1774.25,165.63Z" transform="translate(0 0)"/><path class="cls-3" d="M1788.26,165.63a9.39,9.39,0,0,1,2.28,5c1.87-5,7.84-6.76,11.42-7.37,0-.21.05-.42.09-.64-3.52-.6-9.49-2.33-11.44-7.23a9.45,9.45,0,0,1-1.93,5,24.06,24.06,0,0,0,9.35,2.5A23.66,23.66,0,0,0,1788.26,165.63Z" transform="translate(0 0)"/><rect class="cls-3" x="1715.3" y="393.31" width="4.42" height="36.24"/><rect class="cls-3" x="1842.65" y="393.31" width="4.42" height="36.24"/><rect class="cls-5" x="1719.72" y="290.56" width="122.93" height="145.63"/><rect class="cls-16" x="1727.09" y="297.2" width="108.18" height="132.34"/><rect class="cls-2" x="1711.17" y="283.37" width="140.33" height="7.19"/><rect class="cls-2" x="1732.45" y="269.54" width="97.77" height="7.19"/><polygon class="cls-17" points="1788.26 297.2 1727.09 381.25 1727.09 398.06 1801.68 297.2 1788.26 297.2"/><polygon class="cls-17" points="1812.62 297.2 1727.09 410.58 1727.09 429.55 1835.28 429.55 1835.28 297.2 1812.62 297.2"/><polygon class="cls-5" points="1719.72 283.37 1732.45 276.73 1830.22 276.73 1842.65 283.37 1719.72 283.37"/><rect class="cls-3" x="1711.17" y="429.55" width="140.33" height="10.07"/><rect class="cls-3" x="1711.17" y="388.28" width="140.33" height="5.04"/><path class="cls-3" d="M1760.55,411.4c0-.21-.05-.42-.09-.64a20.47,20.47,0,1,0,.23,3A19.48,19.48,0,0,0,1760.55,411.4Zm-20.34,19.3a16.9,16.9,0,1,1,16.89-16.9A16.91,16.91,0,0,1,1740.21,430.7Z" transform="translate(0 0)"/><path class="cls-3" d="M1751.71,405.2c0-.12,0-.24,0-.36a11.57,11.57,0,1,0,.13,1.71A11,11,0,0,0,1751.71,405.2Zm-11.5,10.91a9.55,9.55,0,1,1,9.55-9.55A9.56,9.56,0,0,1,1740.21,416.11Z" transform="translate(0 0)"/><path class="cls-3" d="M1833.67,405.2c0-.12,0-.24,0-.36a11.57,11.57,0,1,0,.13,1.71A11,11,0,0,0,1833.67,405.2Zm-11.5,10.91a9.55,9.55,0,1,1,9.55-9.55A9.56,9.56,0,0,1,1822.17,416.11Z" transform="translate(0 0)"/><path class="cls-3" d="M1822.17,393.31a20.49,20.49,0,1,0,20.48,20.48A20.49,20.49,0,0,0,1822.17,393.31Zm0,37.38a16.9,16.9,0,1,1,16.89-16.9A16.91,16.91,0,0,1,1822.17,430.7Z" transform="translate(0 0)"/><path class="cls-3" d="M1785.16,411.44a9.46,9.46,0,1,0-13.28-8.66,7,7,0,0,0,0,.75h0a9.45,9.45,0,0,0,1.93,5,9.56,9.56,0,0,0,3.67,2.87,9.51,9.51,0,0,0-3.25,2.37,9.39,9.39,0,0,0-2.28,5,8.18,8.18,0,0,0-.1,1.32,9.46,9.46,0,1,0,13.28-8.65Zm-9.9-3.76a7.8,7.8,0,1,1,6.08,2.9A7.86,7.86,0,0,1,1775.26,407.68Zm6.08,20.21a7.8,7.8,0,1,1,7.8-7.8A7.8,7.8,0,0,1,1781.34,427.89Z" transform="translate(0 0)"/><path class="cls-3" d="M1774.25,413.81a9.39,9.39,0,0,0-2.28,5c-1.87-5-7.84-6.76-11.42-7.37,0-.21-.05-.42-.09-.64,3.52-.6,9.49-2.33,11.44-7.23a9.45,9.45,0,0,0,1.93,5,24.06,24.06,0,0,1-9.35,2.5A23.66,23.66,0,0,1,1774.25,413.81Z" transform="translate(0 0)"/><path class="cls-3" d="M1788.26,413.81a9.39,9.39,0,0,1,2.28,5c1.87-5,7.84-6.76,11.42-7.37,0-.21.05-.42.09-.64-3.52-.6-9.49-2.33-11.44-7.23a9.45,9.45,0,0,1-1.93,5,24.06,24.06,0,0,0,9.35,2.5A23.66,23.66,0,0,0,1788.26,413.81Z" transform="translate(0 0)"/><rect class="cls-3" x="727.38" y="145.13" width="4.42" height="36.24"/><rect class="cls-3" x="854.73" y="145.13" width="4.42" height="36.24"/><rect class="cls-5" x="731.8" y="42.38" width="122.93" height="145.63"/><rect class="cls-16" x="739.17" y="49.02" width="108.18" height="132.34"/><rect class="cls-2" x="723.25" y="35.19" width="140.33" height="7.19"/><rect class="cls-2" x="744.53" y="21.36" width="97.77" height="7.19"/><polygon class="cls-17" points="800.34 49.02 739.17 133.07 739.17 149.88 813.76 49.02 800.34 49.02"/><polygon class="cls-17" points="824.69 49.02 739.17 162.4 739.17 181.37 847.36 181.37 847.36 49.02 824.69 49.02"/><polygon class="cls-5" points="731.8 35.19 744.53 28.55 842.3 28.55 854.73 35.19 731.8 35.19"/><rect class="cls-3" x="723.25" y="181.37" width="140.33" height="10.07"/><rect class="cls-3" x="723.25" y="140.1" width="140.33" height="5.04"/><path class="cls-3" d="M772.63,163.22c0-.21-.05-.42-.09-.64a20.47,20.47,0,1,0,.23,3A19.48,19.48,0,0,0,772.63,163.22Zm-20.34,19.3a16.9,16.9,0,1,1,16.89-16.9A16.91,16.91,0,0,1,752.29,182.52Z" transform="translate(0 0)"/><path class="cls-3" d="M763.79,157c0-.12,0-.24,0-.36a11.57,11.57,0,1,0,.13,1.71A11,11,0,0,0,763.79,157Zm-11.5,10.91a9.55,9.55,0,1,1,9.55-9.55A9.56,9.56,0,0,1,752.29,167.93Z" transform="translate(0 0)"/><path class="cls-3" d="M845.75,157c0-.12,0-.24,0-.36a11.57,11.57,0,1,0,.13,1.71A11,11,0,0,0,845.75,157Zm-11.5,10.91a9.55,9.55,0,1,1,9.55-9.55A9.56,9.56,0,0,1,834.25,167.93Z" transform="translate(0 0)"/><path class="cls-3" d="M834.25,145.13a20.49,20.49,0,1,0,20.48,20.48A20.49,20.49,0,0,0,834.25,145.13Zm0,37.38a16.9,16.9,0,1,1,16.89-16.9A16.91,16.91,0,0,1,834.25,182.52Z" transform="translate(0 0)"/><path class="cls-3" d="M797.24,163.26A9.46,9.46,0,1,0,784,154.6a7,7,0,0,0,0,.75h0a9.45,9.45,0,0,0,1.93,5,9.56,9.56,0,0,0,3.67,2.87,9.51,9.51,0,0,0-3.25,2.37,9.39,9.39,0,0,0-2.28,5,8.18,8.18,0,0,0-.1,1.32,9.46,9.46,0,1,0,13.28-8.65Zm-9.9-3.76a7.8,7.8,0,1,1,6.08,2.9A7.86,7.86,0,0,1,787.34,159.5Zm6.08,20.21a7.8,7.8,0,1,1,7.8-7.8A7.8,7.8,0,0,1,793.42,179.71Z" transform="translate(0 0)"/><path class="cls-3" d="M786.33,165.63a9.39,9.39,0,0,0-2.28,5c-1.87-5-7.84-6.76-11.42-7.37,0-.21-.05-.42-.09-.64,3.52-.6,9.49-2.33,11.44-7.23a9.45,9.45,0,0,0,1.93,5,24.06,24.06,0,0,1-9.35,2.5A23.66,23.66,0,0,1,786.33,165.63Z" transform="translate(0 0)"/><path class="cls-3" d="M800.34,165.63a9.39,9.39,0,0,1,2.28,5c1.87-5,7.84-6.76,11.42-7.37,0-.21.05-.42.09-.64-3.52-.6-9.49-2.33-11.44-7.23a9.45,9.45,0,0,1-1.93,5,24.06,24.06,0,0,0,9.35,2.5A23.66,23.66,0,0,0,800.34,165.63Z" transform="translate(0 0)"/><rect class="cls-5" x="420.46" y="274" width="129.57" height="183.08"/><rect class="cls-18" x="428.47" y="283.36" width="113.54" height="173.72"/><rect class="cls-19" x="439.5" y="294.32" width="91.49" height="162.76"/><rect class="cls-18" x="445.43" y="299.44" width="79.64" height="81.23"/><rect class="cls-19" x="449.16" y="303.25" width="72.18" height="73.62"/><rect class="cls-18" x="453.45" y="307.63" width="63.59" height="64.87"/><rect class="cls-16" x="456.77" y="311.01" width="56.95" height="58.09"/><polygon class="cls-20" points="449.16 376.87 445.43 380.68 525.06 380.68 525.06 299.44 521.33 303.25 521.33 376.87 449.16 376.87"/><rect class="cls-18" x="483.49" y="311.01" width="3.51" height="58.09"/><rect class="cls-18" x="483.49" y="298.21" width="3.51" height="58.09" transform="translate(812.5 -157.99) rotate(90)"/><polygon class="cls-18" points="454.5 390.75 454.5 410.75 450.25 414.75 446 410.75 446 390.75 454.5 390.75"/><circle class="cls-7" cx="450.25" cy="396" r="5.25"/><circle class="cls-6" cx="450.25" cy="396" r="3.2"/><path class="cls-21" d="M451.25,404.06a1,1,0,0,1-.5.86V407h-1v-2.08a1,1,0,0,1-.5-.86,1,1,0,0,1,2,0Z" transform="translate(0 0)"/><rect class="cls-5" x="731.6" y="274" width="129.57" height="183.08"/><rect class="cls-18" x="739.61" y="283.36" width="113.54" height="173.72"/><rect class="cls-19" x="750.64" y="294.32" width="91.49" height="162.76"/><rect class="cls-18" x="756.57" y="299.44" width="79.64" height="81.23"/><rect class="cls-19" x="760.29" y="303.25" width="72.18" height="73.62"/><rect class="cls-18" x="764.59" y="307.63" width="63.59" height="64.87"/><rect class="cls-16" x="767.91" y="311.01" width="56.95" height="58.09"/><polygon class="cls-20" points="760.29 376.87 756.57 380.68 836.2 380.68 836.2 299.44 832.47 303.25 832.47 376.87 760.29 376.87"/><rect class="cls-18" x="794.63" y="311.01" width="3.51" height="58.09"/><rect class="cls-18" x="794.63" y="298.21" width="3.51" height="58.09" transform="translate(1123.64 -469.13) rotate(90)"/><polygon class="cls-18" points="765.64 390.75 765.64 410.75 761.39 414.75 757.14 410.75 757.14 390.75 765.64 390.75"/><circle class="cls-7" cx="761.39" cy="396" r="5.25"/><circle class="cls-6" cx="761.39" cy="396" r="3.2"/><path class="cls-21" d="M762.39,404.06a1,1,0,0,1-.5.86V407h-1v-2.08a1,1,0,0,1-.5-.86,1,1,0,0,1,2,0Z" transform="translate(0 0)"/></svg>