<svg id="Calque_1" data-name="Calque 1" xmlns="http://www.w3.org/2000/svg" viewBox="0 0 478.07 463"><defs><style>.cls-1{fill:#90cbb0;}</style></defs><title>snap</title><path class="cls-1" d="M482.63,359.63c-7.07,12-42.48,23.36-53.8,26.21S410.41,400,412.54,407.78s-.7,12.74-34.68,7.79-51,4.25-65.84,15.57S270.24,463,244.75,463s-52.4-20.54-67.26-31.86-31.86-20.54-65.84-15.57-36.81,0-34.68-7.79S72,388.67,60.68,385.84,14,371.67,6.88,359.63,26,343.36,56.33,331.32s58.87-66.54,59.57-80-16.27-13.44-44.6-29-11.32-51,8.5-38.23a44.91,44.91,0,0,0,39,4.95c0-111.86,12.74-189,126-189s126,77.16,126,189a44.91,44.91,0,0,0,39-4.95c19.82-12.74,36.81,22.64,8.5,38.23s-45.32,15.57-44.6,29,29.27,68,59.57,80S489.7,347.61,482.63,359.63Z" transform="translate(-5.72)"/></svg>