<?xml version="1.0" encoding="utf-8"?>
<!-- Generator: Adobe Illustrator 21.0.0, SVG Export Plug-In . SVG Version: 6.00 Build 0)  -->
<svg version="1.1" id="Calque_1" xmlns="http://www.w3.org/2000/svg" xmlns:xlink="http://www.w3.org/1999/xlink" x="0px" y="0px"
	 viewBox="0 0 445.8 229.9" style="enable-background:new 0 0 445.8 229.9;" xml:space="preserve">
<style type="text/css">
	.st0{fill:#0F271B;}
	.st1{fill:#090A0A;}
	.st2{fill:#E4E1E0;}
	.st3{fill:#B3ABB1;}
	.st4{fill:#FFFFFF;}
	.st5{fill:#90CBB0;}
	.st6{fill:#57A07D;}
	.st7{fill:#EAF5F2;}
	.st8{fill:#E2E2E1;}
	.st9{fill:#B8E2F8;}
	.st10{fill:#E6F5FD;}
	.st11{fill:#F4FAFF;}
	.st12{fill:#B7B7B7;}
	.st13{fill:none;}
	.st14{fill:#EFF5E4;}
	.st15{fill:#EFAF2E;}
	.st16{fill:#472611;}
	.st17{fill:#855830;}
	.st18{fill:#F9F6F2;}
	.st19{fill:#EAE9E8;}
	.st20{fill:#D3D3D3;}
	.st21{fill:#E0E0E0;}
	.st22{fill:none;stroke:#FFFFFF;stroke-miterlimit:10;}
	.st23{fill:#316E50;}
</style>
<title>vaivan</title>
<path class="st0" d="M287.7,178.1l84.9-1.4c-1.4-4.1-2.6-8.3-3.5-12.6c-3.3-13.6-20.1-19.1-36.5-19.1s-32.7,7.1-37,16.3
	C293.1,166.7,290.4,173.3,287.7,178.1z"/>
<path class="st0" d="M45.6,182.4C45.6,182.4,45.6,182.4,45.6,182.4l114.1-1.7c-5.7-7.1-11.6-20-11.6-20H57.5c0,0-6.6,11-12.1,18.3
	C45.6,180.1,45.7,181.2,45.6,182.4z"/>
<path class="st1" d="M292.7,191.3c0,21.3,17.3,38.6,38.6,38.7c21.3,0,38.6-17.3,38.7-38.6c0-21.3-17.3-38.7-38.6-38.7c0,0,0,0,0,0
	C310,152.6,292.7,169.9,292.7,191.3z M305.9,191.3c0-14.1,11.4-25.5,25.5-25.5c14.1,0,25.5,11.4,25.5,25.5
	c0,14.1-11.4,25.5-25.5,25.5l0,0C317.3,216.7,305.9,205.3,305.9,191.3z"/>
<path class="st2" d="M305.9,191.3c0,14.1,11.4,25.5,25.5,25.4c14.1,0,25.5-11.4,25.4-25.5c0-14.1-11.4-25.4-25.5-25.4
	C317.3,165.8,305.9,177.2,305.9,191.3L305.9,191.3z M308.1,191.3c0-12.8,10.4-23.3,23.2-23.3c12.8,0,23.3,10.4,23.3,23.2
	c0,12.8-10.4,23.3-23.2,23.3c0,0,0,0,0,0C318.5,214.5,308.1,204.1,308.1,191.3L308.1,191.3z"/>
<path class="st3" d="M308.1,191.3c0,12.8,10.4,23.3,23.3,23.3s23.3-10.4,23.3-23.3S344.2,168,331.4,168
	C318.5,168,308.1,178.4,308.1,191.3C308.1,191.3,308.1,191.3,308.1,191.3z M309.7,191.3c0-12,9.7-21.7,21.7-21.7s21.7,9.7,21.7,21.7
	c0,12-9.7,21.7-21.7,21.7c0,0,0,0,0,0C319.4,212.9,309.7,203.2,309.7,191.3z"/>
<path class="st2" d="M309.7,191.3c0,12,9.7,21.7,21.7,21.6c12,0,21.7-9.7,21.6-21.7c0-12-9.7-21.7-21.7-21.6
	S309.7,179.3,309.7,191.3L309.7,191.3z M317.6,191.3c0-7.6,6.1-13.7,13.7-13.8c7.6,0,13.7,6.1,13.8,13.7c0,7.6-6.1,13.7-13.7,13.8
	c0,0,0,0-0.1,0C323.8,204.9,317.7,198.8,317.6,191.3z"/>
<path class="st3" d="M317.6,191.3c0,7.6,6.2,13.7,13.7,13.7c7.6,0,13.7-6.2,13.7-13.7c0-7.6-6.2-13.7-13.7-13.7
	S317.6,183.7,317.6,191.3L317.6,191.3z M328,191.3c0-1.8,1.5-3.3,3.3-3.3s3.3,1.5,3.3,3.3s-1.5,3.3-3.3,3.3h0
	C329.5,194.6,328,193.1,328,191.3z"/>
<path class="st4" d="M328,191.3c0,1.8,1.5,3.3,3.3,3.3s3.3-1.5,3.3-3.3c0-1.8-1.5-3.3-3.3-3.3C329.5,187.9,328,189.4,328,191.3
	C328,191.3,328,191.3,328,191.3z"/>
<path class="st1" d="M62,190.4c0,21.8,17.7,39.5,39.5,39.5s39.5-17.7,39.5-39.5c0-21.8-17.7-39.5-39.5-39.5h0
	C79.7,150.9,62,168.6,62,190.4z M75.5,190.4c0-14.4,11.6-26,26-26c14.4,0,26,11.6,26,26s-11.6,26-26,26l0,0
	C87.1,216.4,75.5,204.8,75.5,190.4z"/>
<path class="st2" d="M75.5,190.4c0,14.4,11.7,26,26.1,25.9c14.4,0,26-11.7,25.9-26.1c0-14.3-11.7-25.9-26-25.9
	C87.1,164.4,75.5,176,75.5,190.4C75.5,190.4,75.5,190.4,75.5,190.4z M77.8,190.4c0-13.1,10.6-23.8,23.7-23.8
	c13.1,0,23.8,10.6,23.8,23.7s-10.6,23.8-23.7,23.8c0,0,0,0,0,0C88.4,214.2,77.8,203.5,77.8,190.4L77.8,190.4z"/>
<path class="st3" d="M77.8,190.4c0,13.1,10.6,23.8,23.8,23.8s23.8-10.6,23.8-23.8s-10.6-23.8-23.8-23.8c0,0,0,0,0,0
	C88.4,166.7,77.8,177.3,77.8,190.4z M79.4,190.4c0-12.2,9.9-22.2,22.1-22.2s22.2,9.9,22.2,22.1c0,12.2-9.9,22.2-22.1,22.2
	c0,0,0,0,0,0C89.3,212.6,79.4,202.6,79.4,190.4z"/>
<path class="st2" d="M79.4,190.4c0,12.2,9.9,22.1,22.2,22.1s22.1-9.9,22.1-22.2c0-12.2-9.9-22.1-22.2-22.1S79.4,178.2,79.4,190.4
	L79.4,190.4z M87.5,190.4c0-7.7,6.3-14,14-14c7.7,0,14,6.3,14,14s-6.3,14-14,14C93.8,204.4,87.5,198.2,87.5,190.4z"/>
<path class="st3" d="M87.5,190.4c0,7.7,6.3,14,14,14c7.7,0,14-6.3,14-14s-6.3-14-14-14C93.8,176.4,87.5,182.7,87.5,190.4z
	 M98.1,190.4c0-1.9,1.5-3.4,3.4-3.4c1.9,0,3.4,1.5,3.4,3.4c0,1.9-1.5,3.4-3.4,3.4C99.7,193.8,98.1,192.3,98.1,190.4z"/>
<path class="st4" d="M98.1,190.4c0,1.9,1.6,3.4,3.5,3.3c1.9,0,3.4-1.6,3.3-3.5c0-1.9-1.5-3.3-3.4-3.4
	C99.7,186.9,98.1,188.5,98.1,190.4C98.1,190.4,98.1,190.4,98.1,190.4z"/>
<path class="st5" d="M8.7,152.2l15.2,20.9h20l11-17.3h96.4c0,0,11.1,24.5,19.9,24.5c4.2,0,26.4-0.1,49.3-0.1
	c24.3-0.1,49.3-0.1,54.2-0.1c0.3,0,0.6,0,0.9,0c0.2,0,0.4,0,0.6-0.1c0.3-0.1,0.6-0.1,0.9-0.2c0.2-0.1,0.4-0.1,0.5-0.2
	s0.4-0.1,0.6-0.2c0.2-0.1,0.3-0.1,0.4-0.2c0.2-0.1,0.5-0.3,0.7-0.4s0.4-0.3,0.6-0.5c0.4-0.3,0.9-0.7,1.2-1.1
	c0.2-0.2,0.4-0.4,0.6-0.6c0.8-0.9,1.5-1.9,2.2-3c0.3-0.5,0.6-1,0.9-1.5c0.1-0.2,0.2-0.4,0.4-0.6c0.3-0.5,0.5-0.9,0.8-1.4
	c0.5-0.9,1-1.9,1.6-2.9c0.3-0.6,0.6-1.2,0.9-1.8s0.6-1.2,1-1.8s0.7-1.2,1.1-1.8s0.7-1.2,1.1-1.8c-0.2-3-0.7-5.9-1.5-8.7
	c-0.9-3-2.1-5.9-3.5-8.7c-2.3-4.5-5.1-8.7-8.2-12.6c-2.3-2.9-4.8-5.7-7.4-8.3c-1.9-1.9-3.7-3.6-5.3-5.1c-1-0.9-1.9-1.7-2.7-2.4
	c-3.5-3-5.9-4.7-5.9-4.7c-6-7,7.7-18.4,11.4-4.6c1,3.2,2.6,6.3,4.7,9c0.4,0.6,0.9,1.2,1.4,1.9c4.5,5.7,10.6,11.1,16.5,13.6
	c1.2,0.5,2.4,0.9,3.7,1.2c1.1,0.3,2.2,0.4,3.4,0.3c3.4-0.2,6.3-2.1,8-6.5c7.1-18.1,16.9-22.8,22.1-4.6s18.1,13.4,17.1-7.4
	s28.3-9.1,21.2,18.8s14.7,13.5,34,3.5s15,14.9,6.5,18.3s-10,12.4-8.7,24.9h23.7c0,0-3.8-3.8,0-11.4c2.3-4.6,7.7-5.2,11.5-5
	c0-1.7-0.1-3.5-0.2-5.4c-10,0-14.8-18.3-16.6-41.9s-12-28.7-51.2-28.7S12.2,82.3,12.2,82.3C10.5,90.6,9.1,109.4,8.7,152.2z
	 M289.1,106.9c-1.6,0-3.7-0.8-3.7-3.4c0-4.4,7.1-3.8,7.1,0c10.2,0,11-0.3,11,1.7S303.2,106.9,289.1,106.9z M34.7,100.9
	c2.2-18.4,41.4-18,49.6-10.1s25.4,11.9,39.5,1.2c11.8-8.9,24.6-3.3,32.5,6.1c-3.3,4.5-8,14.3-6.5,31.8v0.1c-2.3,0.5-5.2,2.6-8.6,8
	c-8.4,13.2-20.4-11.6-7.6-10.1s10.6-25.9,2.5-29.7s-11.4,7-26.4,6.5v31.8c0,1.9-1.5,3.4-3.4,3.4H72.5c-1.9,0-3.4-1.5-3.4-3.4v-33.7
	c0-0.5,0.1-1.1,0.4-1.6c-2.1-6.7-16.2-3.8-18,5.8C49.4,118.6,32.5,119.3,34.7,100.9z"/>
<path class="st6" d="M8.6,157c0.1,0.5,0.1,1.1,0.1,1.6l13.6,18.2l22,0.5c2,0,2.8,0.8,3.2,1.9c5.3-7,11.7-17.6,11.7-17.6h87.1
	c0,0,5.7,12.4,11.2,19.2c2,2.6,4.1,4.4,5.7,4.4h117.6c2.4,0,4.7-2.6,6.8-6.4c2.8-4.8,5.4-11.5,7.9-16.7c4.4-9.3,20.7-16.3,37-16.3
	s33.2,5.5,36.5,19.1c0.9,4.3,2.1,8.5,3.5,12.6c1.7,4.7,3.6,7.2,6.5,7.6c-0.8-1.6-1.3-3.3-1.5-5c-0.4,0-0.8-1-1.2-2.7
	c-1.3-5.7-2.9-18.7-8.6-24c-7.4-6.8-21.5-11.7-33.2-11.7s-31.2,3.5-40,13.9c-7.5,8.8-9.8,20.1-16.1,23.3c-1.2,0.6-2.5,0.9-3.9,0.9
	c-5.6,0-37.1,0.1-64.1,0.1c-19.1,0.1-35.8,0.1-39.4,0.1c-8.7,0-19.9-24.5-19.9-24.5H54.8l-10.9,17.4H23.8L8.7,152.2
	C8.6,153.8,8.6,155.4,8.6,157z"/>
<path class="st7" d="M12.2,82.3c0,0,314,2.9,353.2,2.9s49.4,5.1,51.2,28.7s6.5,41.9,16.6,41.9c-0.9-18-3.7-41.5-11.9-62.6
	c-5.4-15.5-6.8-17.4-10.5-17.5l0,0h-1.9h-2.1H16.7C15.2,75.7,13.6,75.6,12.2,82.3z"/>
<path class="st6" d="M8.5,176.9h8.5l-8.5-11.7C8.6,168.9,8.5,172.9,8.5,176.9z"/>
<path class="st8" d="M379,185.3c0.3,0.1,0.6,0.1,0.9,0.1L379,185.3c1.8,4.1,5.8,6.6,10.2,6.4h56.6v-35.9h-6l-2.2,6
	c-1.4-0.3-2.8-0.5-4.3-0.6c-3.8-0.2-9.2,0.5-11.5,5c-3.8,7.5,0,11.4,0,11.4h-44.6C377.3,180.2,377.9,182.9,379,185.3z M426.5,166.2
	c0.1-0.1,0.2-0.3,0.4-0.4c0.2-0.2,0.5-0.4,0.8-0.5c0.3-0.1,0.6-0.3,0.9-0.3c0.3-0.1,0.6-0.1,0.9-0.2c1.4-0.1,2.7-0.1,4.1,0.1
	c0.5,0,1,0.1,1.5,0.2c1.4,0.2,2.3,0.5,2.3,0.5l-3.8,8.3l-1,2.1h-7.6C423.7,172.7,424.4,169,426.5,166.2L426.5,166.2z"/>
<path class="st6" d="M424.8,176.1h7.6l1-2.1c0-2.6,0.1-5.7,0-9c-1.4-0.2-2.7-0.3-4.1-0.1c-0.3,0-0.6,0.1-0.9,0.2
	c-0.3,0.1-0.6,0.2-0.9,0.3c-0.3,0.1-0.5,0.3-0.8,0.5c-0.1,0.1-0.2,0.2-0.4,0.4C424.3,169,423.7,172.7,424.8,176.1z"/>
<path class="st5" d="M391.7,26.7H25.2c1.1-2.2,2.3-4.2,3.8-6.2c51.5,0,276.4,1.1,358.8,1.1C390.9,24.9,391.7,26.7,391.7,26.7z"/>
<path class="st7" d="M29,20.5c51.5,0,276.4,1.1,358.8,1.1c-2.9-2.8-6-5.3-9.4-7.5C366.9,6.6,250.3,0,175.7,0S59.5-1.1,36.8,13.1
	C33.8,15.1,31.1,17.6,29,20.5z"/>
<path class="st6" d="M385.4,26.7l1.4,3.1l13.5,31v0.1l5.5,12.6l0,0l0.9,2.2h2.1c0.7,0,1.4-0.1,1.9-0.1l-22.5-48.9L385.4,26.7z"/>
<polygon class="st9" points="379.9,29.8 400.3,60.9 386.8,29.8 "/>
<polygon class="st10" points="372.7,29.8 393.7,73.5 405.8,73.5 400.4,61 400.3,60.9 379.9,29.8 "/>
<polygon class="st11" points="357.1,29.8 376.8,73.5 393.7,73.5 372.7,29.8 "/>
<path class="st9" d="M320.8,29.8l19.6,43.8h32.4l-19.9-43.7C352.8,29.8,337.1,29.8,320.8,29.8z"/>
<path class="st10" d="M309.8,29.8l17.8,43.8h12.6l-19.6-43.8L309.8,29.8z"/>
<path class="st11" d="M282.7,31.9v39.5c-0.1,1.1,0.7,2.1,1.8,2.2c0.1,0,0.3,0,0.4,0h42.8l-17.9-43.8h-25
	C283.3,29.7,282.7,30.2,282.7,31.9z"/>
<path class="st9" d="M244.5,29.7l14.9,43.8h5.9c1.7,0,3-1.3,3-3V32.7c0-1.7-1.3-3-3-3L244.5,29.7z"/>
<polygon class="st10" points="234,29.7 248.5,73.5 259.4,73.5 244.5,29.7 "/>
<path class="st9" d="M208.3,32.7v37.9c0,1.7,1.3,3,3,3h37.3L234,29.7h-22.8C209.6,29.8,208.3,31.1,208.3,32.7z"/>
<path class="st9" d="M148.7,29.7l11.6,43.8h30.3c1.7,0,3-1.3,3-3V32.7c0-1.7-1.3-3-3-3L148.7,29.7z"/>
<path class="st10" d="M133.5,32.7v37.9c0,1.7,1.3,3,3,3h23.8l-11.6-43.8h-12.2C134.8,29.7,133.5,31,133.5,32.7z"/>
<path class="st9" d="M59.3,32.7v7.8l9.8,33h47.3c1.7,0,3-1.3,3-3V32.7c0-1.7-1.3-3-3-3H62.3C60.7,29.7,59.3,31,59.3,32.7z"/>
<path class="st6" d="M405.8,73.5h-29l-19.7-43.7h29.7l-1.4-3.1H25.2c-10,19.7-8.5,49-8.5,49h390.1L405.8,73.5z M119.4,70.5
	c0,1.7-1.3,3-3,3H62.3c-1.7,0-3-1.3-3-3V32.7c0-1.7,1.3-3,3-3h54.1c1.7,0,3,1.3,3,3L119.4,70.5z M193.5,70.5c0,1.7-1.3,3-3,3h-54
	c-1.7,0-3-1.3-3-3V32.7c0-1.7,1.3-3,3-3h54.1c1.7,0,3,1.3,3,3L193.5,70.5z M268.3,70.5c0,1.7-1.3,3-3,3h-54c-1.7,0-3-1.3-3-3V32.7
	c0-1.7,1.3-3,3-3h54.1c1.7,0,3,1.3,3,3L268.3,70.5z M340.3,73.5h-55.4c-1.1,0.1-2-0.6-2.2-1.7c0-0.2,0-0.3,0-0.5V31.9
	c0-1.6,0.5-2.2,2.2-2.2h25h10.9c16.3,0,32.1,0.1,32.1,0.1l19.9,43.7L340.3,73.5z"/>
<path class="st4" d="M59.3,40.5v30.1c0,1.7,1.3,3,3,3h6.8L59.3,40.5z"/>
<path class="st8" d="M0,156.7v29c0,3.3,0,5.6,2.5,5.6h0.6h1.1l5.5,0.1c0.3,0,0.7,0,1.1,0l5.4,0.1h1.1l5.4,0.1h1.1l0,0
	c6.7,0.1,12.8,0.3,14.4,0.3c2.7,0,6.4-3.8,8.3-6.7c0.6-0.8,0.9-1.7,1.1-2.6c0,0,0-0.1,0-0.1c0.1-1.1,0-2.2-0.2-3.3
	c-0.4-1.1-1.2-1.9-3.2-1.9l-22-0.5l-13.5-18c0-0.5,0-1.1-0.1-1.6c-0.1-1.5-0.6-2.9-1.7-2.9H3.4C0.7,154.2,0,154.3,0,156.7z
	 M3.3,161.2h2.4l2.9,4l8.5,11.7H3.3V161.2z"/>
<path class="st7" d="M285.4,103.5c0,0.2,0,0.3,0,0.5c0.2,2.3,2.1,3,3.7,3c12.6,0,14.2,0.1,14.4-1.2c0-0.2,0-0.4,0-0.5
	c0-2-0.8-1.7-11-1.7C292.5,99.7,285.4,99.1,285.4,103.5z"/>
<path class="st6" d="M285.5,103.9c0,3.4,0.8,4.5,2.6,4.5h12.8c2,0,2.6-0.5,2.6-2.7c-0.2,1.4-1.8,1.2-14.4,1.2
	C287.6,106.9,285.7,106.3,285.5,103.9z"/>
<polygon class="st12" points="444.5,191.7 443.3,167.9 441.8,191.7 "/>
<polygon class="st12" points="438.4,191.7 437.9,177.2 437.3,191.7 "/>
<polygon class="st12" points="432.6,191.7 431.9,183.7 431.3,191.7 "/>
<path class="st12" d="M22.7,191.8h1.1l0,0l-0.5-8.8L22.7,191.8z"/>
<path class="st12" d="M16.2,191.6h1.1l-0.6-8.7L16.2,191.6z"/>
<path class="st12" d="M9.7,191.5c0.4,0,0.7,0,1.1,0l-0.5-8.5L9.7,191.5z"/>
<path class="st12" d="M3.2,191.3h1.1l-0.5-8.4L3.2,191.3z"/>
<polyline class="st13" points="377.2,177.6 376.3,177.6 372.6,177.6 "/>
<path class="st14" d="M291.6,159.7c0.9-1.4,1.9-2.7,2.9-3.9c1-1.1,2.1-2.2,3.2-3.1c9.7-7.9,26.3-10.7,36.7-10.7
	c11.7,0,25.9,4.9,33.2,11.7c4.6,4.3,6.6,13.8,7.8,20.2c0.8,3.8,1.3,6.5,2,6.5c-0.2-0.9-0.2-1.8-0.3-2.7h8.2
	c-1.6-9.3,19.1-29.9,6.3-26.7s-28,2.1-29.4-9.9s-1.8-36.1-9.2-20.2s-20.4,18.6-25.3,10.7s-14.6-12.7-21.8,0s-15,1.7-13.2,13
	C294.3,154.7,292,158.9,291.6,159.7z"/>
<path class="st4" d="M256.8,109.2c0,0,33.2,23.5,34.7,50.6l0.1-0.1c0.5-0.7,2.7-5,1.1-15.2c-1.8-11.3,6-0.2,13.2-13s16.9-7.9,21.8,0
	s17.9,5.2,25.3-10.7s7.8,8.3,9.2,20.2s16.6,13.1,29.4,9.9s-7.9,17.4-6.3,26.7h12.7c-1.3-12.5,0.2-21.5,8.7-24.9s12.8-28.3-6.5-18.3
	s-41.1,24.4-34-3.5s-22.3-39.7-21.2-18.8s-11.8,25.6-17.1,7.4s-15-13.4-22.1,4.6s-33.8-5.7-37.6-19.5S250.9,102.2,256.8,109.2z"/>
<path class="st15" d="M262.1,160.6c-1.5,0.8-3.3,1.7-5.3,2.5C258.8,162.8,260.7,162,262.1,160.6z"/>
<path class="st15" d="M204.4,154.9c0.2,1.4,0.7,2.8,1.3,4.2C205.2,157.7,204.8,156.4,204.4,154.9z"/>
<path class="st16" d="M205.7,159.1c0.9,2.5,2.1,5,3.5,7.4c2.9,5.2,6.7,9.8,11.2,13.7c24.3-0.1,49.3-0.1,54.2-0.1
	c9.5,0,11.2-13.9,20-24.3c1-1.1,2.1-2.2,3.2-3.1c2.6-13.7-0.2-27.4-2.7-31.1c1.9,8-3.6,14.8-3.6,14.8l0.4,13.8
	c0,0-11.2,6.3-21.4,9.3c-0.3,0.2-0.5,0.4-0.8,0.6c-3.6,2.4-12.5,6.1-22.8,8.2c-8.5,1.8-18,2.5-26.5,0.5
	C212.1,166.7,207.7,163.2,205.7,159.1z"/>
<path class="st15" d="M262.1,160.6c-1.5,0.8-3.3,1.7-5.3,2.5C258.8,162.8,260.7,162,262.1,160.6z"/>
<path class="st17" d="M204.3,153.6c0,0.5,0.1,0.9,0.2,1.4c0.4,1.4,0.8,2.8,1.3,4.2c2,4.1,6.4,7.6,14.6,9.6c8.5,2,18,1.3,26.5-0.5
	c10.4-2.1,19.2-5.9,22.8-8.2c0.3-0.2,0.6-0.4,0.8-0.6c10.1-3,21.4-9.3,21.4-9.3l-0.4-13.7c0,0,5.5-6.8,3.6-14.8
	c-2.1-8.8-16.9-9.3-16.9-9.3l-0.8,1.5c0,0-21.8-0.8-33.7,3.2c-5.4,1.8-10.6,4-15.7,6.5c-0.7,0.3-1.4,0.7-2.1,1.1
	c-2.1,1.1-4.2,2.3-6.2,3.5c-6.4,4-11.7,8.4-13.1,12.8c-0.9,2.6-1.5,5.3-1.9,8l0,0C204.2,150.3,204.1,152,204.3,153.6z M207.7,150.6
	c0-0.2,0-0.5,0-0.7s0-0.3,0-0.4s0-0.3,0-0.5s0-0.3,0-0.4l0.1-0.4c0-0.3,0.1-0.5,0.1-0.8s0.1-0.5,0.2-0.8s0.1-0.4,0.2-0.6
	s0.1-0.2,0.1-0.3s0.1-0.4,0.2-0.5s0.1-0.4,0.2-0.5s0.1-0.4,0.2-0.5s0.2-0.5,0.3-0.7c0.2-0.5,0.4-0.9,0.7-1.4l0.3-0.6
	c0.1-0.2,0.2-0.4,0.4-0.6s0.3-0.4,0.4-0.6s0.3-0.5,0.5-0.8c0.4-0.5,0.7-1,1.1-1.5s0.8-1,1.2-1.5c0.6-0.7,1.2-1.3,1.9-1.9l0.5-0.5
	c0.4-0.4,0.8-0.7,1.2-1.1l0.5-0.4l0.5-0.4l0.7-0.5c1.5-1.2,3.2-2.3,4.8-3.3l1.2-0.7l0.8-0.4l1-0.5l1.1-0.5l1-0.5
	c1.1-0.5,2.3-1,3.5-1.5c25.2-9.8,26-5.5,26-5.5h2.1l2.1-2.3c0,0,5.3,0,6.1,0.4c0.4-0.8,1.1-1.5,1.9-1.9l5.1,1l2.8-2.1
	c8.3,1.9,18.8,7,9.5,19.9c-2.3,12.5-3.8,17.6-3.8,17.6l-10.4,5.5h-5.3c-2.1,1.5-4.3,2.8-6.6,4c-1.4,1.4-3.3,2.3-5.3,2.5l0,0
	c-3.9,1.7-8,3-12.2,3.8c-8,1.8-16.3,1.4-24.2-1c-0.7-0.3-1.4-0.6-2-0.9l-0.9-0.4c-0.2-0.1-0.4-0.2-0.6-0.3l-0.7-0.4l-0.4-0.3
	l-0.6-0.4c-0.3-0.2-0.6-0.4-0.9-0.6l-0.4-0.3l-0.4-0.3c-0.3-0.3-0.6-0.5-0.9-0.8l-0.5-0.5l-0.5-0.6l-0.5-0.6
	c-0.2-0.2-0.3-0.4-0.5-0.6l-0.2-0.3c-0.1-0.1-0.1-0.2-0.2-0.3s-0.3-0.4-0.4-0.6s-0.3-0.5-0.4-0.8l-0.3-0.5c-0.1-0.2-0.2-0.4-0.3-0.6
	s-0.2-0.4-0.3-0.6l-0.1-0.3c-0.1-0.3-0.2-0.6-0.3-0.9c0-0.1,0-0.2-0.1-0.3s-0.1-0.4-0.1-0.5s-0.1-0.4-0.1-0.7s-0.1-0.4-0.1-0.6
	c0,0,0-0.1,0-0.1c0-0.2,0-0.4,0-0.6S207.7,150.9,207.7,150.6L207.7,150.6z"/>
<path class="st18" d="M220.3,165.9c7.8,2.4,16.1,2.8,24.2,1c4.2-0.9,8.4-2.2,12.4-3.9l0,0c2-0.8,3.8-1.7,5.3-2.5
	c2.3-1.2,4.5-2.5,6.6-4h5.3l10.4-5.5c0,0,1.5-5.1,3.8-17.6c9.3-12.9-1.3-18-9.5-19.9l-2.8,2.1l-5.1-1c-0.8,0.4-1.5,1.1-1.9,1.9
	c-0.8-0.4-6.1-0.4-6.1-0.4l-2.1,2.3h-2.1c0,0-0.8-4.3-26,5.5S197.9,157,220.3,165.9z M220.3,143.6c0,0,2-10.4,10.7-14.1
	c8.7-3.7,16.2-6.2,23.1-2.9c4.9-1.3,9.7-3,14.3-5.1h1.8l4.4-0.8c1.4,0.6,4.1,4.4,4.1,8.7c-3.6,2.2-4.8,4.4-4.1,6.3
	c0.6,1.7-2.7,8.7-3.9,11c-0.2,0.3-0.3,0.5-0.4,0.6c-2.7,1.6-4.6,2.7-5.9,3.4c-1.2,0.7-1.7,1-1.7,1l-1.3-1l-5.5,4.4l-8.5,2.9
	l-4.2,1.4l-4.9-1.3l-1,0.4l-2.5,0.9l-1.9-2.3h-3.2l-2.5-2.4h-1.4l-1.4-1l-0.6-1.9l-2.9-3v-2.9L220.3,143.6z"/>
<path class="st19" d="M220.3,143.6l0.7,2.5v2.8l2.9,3l0.6,1.9l1.4,1h1.4l2.5,2.4h3.2l1.9,2.3l2.5-0.9c-3.7-9.1,0.6-19.4,9.7-23.1
	c9.1-3.7,19.4,0.6,23.1,9.7c0.2,0.5,0.4,1,0.5,1.5c1.2-2.3,4.5-9.3,3.9-11c-0.6-1.9,0.5-4.1,4.1-6.3c0-4.3-2.7-8.1-4.1-8.7l-4.4,0.8
	h-1.8c-4.6,2.1-9.4,3.8-14.3,5.1c-6.9-3.3-14.4-0.9-23.1,2.9S220.3,143.6,220.3,143.6z"/>
<path class="st15" d="M262.1,160.6c-1.5,0.8-3.3,1.7-5.3,2.5C258.8,162.8,260.7,162,262.1,160.6z"/>
<path class="st20" d="M246.4,153.8c0,1.5,0.3,3,1,4.3l8.5-2.9l5.5-4.4l1.3,1c0,0,0.6-0.3,1.7-1c-1.7-4.9-7-7.4-11.9-5.7
	C248.8,146.4,246.3,149.9,246.4,153.8L246.4,153.8z"/>
<path class="st21" d="M236.1,151.9c0,2.3,0.4,4.6,1.3,6.7l1-0.4l4.9,1.3l4.2-1.4c-2.3-4.6-0.5-10.2,4.1-12.6
	c4.6-2.3,10.2-0.5,12.6,4.1c0.2,0.4,0.3,0.7,0.5,1.1c1.3-0.7,3.2-1.9,5.9-3.4c0.1-0.1,0.2-0.3,0.4-0.6c-2.8-9.4-12.7-14.7-22-11.9
	C241.2,137.1,236,144,236.1,151.9z"/>
<path class="st18" d="M169,127.9c1.1,1.4,2.3,2.7,3.6,3.9c1.7,1.6,3.5,3.1,5.4,4.4c3.1,2,6,3.8,8.8,5.3c2,1,3.8,2,5.5,2.8
	c3.9,1.9,8,3.4,12.2,4.5l0,0c0.4-2.7,1-5.4,1.9-8c-2.5-0.5-5-0.7-7.5-0.7c-0.9,0.1-1.7,0-2.6-0.3c-2.2-0.8-4.3-1.8-6.2-3l-1.7-0.9
	c-4.6-2.4-8.2-8.3-8.2-8.3c-1-0.2-2.1-0.5-3-1c-0.2-0.1-0.3-0.3-0.4-0.5c-1-1.9-1.9-3.9-2.7-6c-0.4-1.1-0.7-2-0.7-2l-2.1-1.7
	c0.2-1.5,0.2-3,0.2-4.6c-0.2-0.9-6.2-5.1,0.8-9.5s21.2,1.9,27.1,4.8s8.4,12.2,8.4,12.2l8.1,3.6c1.9,0.9,3.6,4.7,3.6,4.9
	c2-1.2,4.1-2.4,6.2-3.5c-2.2-2.5-12.1-9.8-12.1-9.8l-2.4-13.6c0,0-11.7-5.1-18.7-3.5c-10.1-4-22.8-9.2-30.6-1.7
	C155.8,101.5,160,116.8,169,127.9z"/>
<path class="st19" d="M171.3,116.5l2.1,1.7c0,0,0.3,0.8,0.7,2c6.4-5.3,15.8-4.4,21.1,2c4.1,5,4.6,12.1,1.1,17.6
	c0.8,0.2,1.7,0.3,2.6,0.3c2.5-0.1,5,0.2,7.5,0.7c1.4-4.4,6.7-8.9,13.1-12.8c-0.1-0.2-1.7-4-3.6-4.9l-8.1-3.6c0,0-2.5-9.4-8.4-12.2
	s-20.1-9.2-27.1-4.8s-1,8.6-0.8,9.5C171.5,113.5,171.4,115,171.3,116.5z"/>
<path class="st20" d="M176.8,126.2c0.1,0.2,0.2,0.3,0.4,0.5c0.9,0.5,2,0.8,3,1c0,0,3.6,5.9,8.2,8.3l1.7,0.9c0.3-0.9,0.4-1.8,0.4-2.7
	c0-5-4.1-9.1-9.1-9.1C179.7,125.1,178.1,125.5,176.8,126.2L176.8,126.2z"/>
<path class="st21" d="M174.1,120.2c0.8,2.1,1.6,4.1,2.7,6c4.3-2.5,9.9-1.1,12.5,3.3c0.8,1.4,1.2,3,1.2,4.6c0,0.9-0.1,1.8-0.4,2.7
	c2,1.2,4.1,2.2,6.2,3c4.4-7,2.3-16.3-4.7-20.7C186.1,115.6,179.1,116.1,174.1,120.2L174.1,120.2z"/>
<path class="st17" d="M168.5,133.7c0.9,0.9,1.8,1.8,2.8,2.7c0.6,0.6,1.3,1.1,1.9,1.7c2.1,1.8,4.2,3.4,6.4,5c2.1,1.5,4.2,2.7,6.2,3.8
	c10.5,5.8,18.4,6.8,18.4,6.8l0.1-0.1c-0.1-1.6-0.1-3.2,0.2-4.8c-4.2-1.1-8.3-2.7-12.2-4.5c-1.7-0.8-3.6-1.7-5.5-2.8
	c-2.8-1.5-5.7-3.2-8.8-5.3c-1.9-1.3-3.7-2.8-5.4-4.4c-1.3-1.2-2.5-2.5-3.6-3.9c-8.9-11.1-13.1-26.4-7.1-32.1
	c7.8-7.4,20.5-2.2,30.6,1.7c7-1.6,18.7,3.5,18.7,3.5l2.4,13.6c0,0,9.8,7.3,12.1,9.8c0.7-0.4,1.4-0.7,2.1-1.1
	c-3.4-3.5-7.1-6.8-11-9.7l-0.8-4.1c-0.5-5.4-1.2-9.1-2.7-10.3l0,0l-0.5-0.2l-15.2-4.8h-3.6l-6.8-0.9c-0.6,0-1.2-0.1-1.8-0.3l0,0
	c-0.7-0.2-1.7-0.5-2.8-0.9c-4.7-1.6-17.2-3.1-23.4,2.5l-0.1,0.1l-0.1,0c-0.5,0.4-0.9,0.9-1.3,1.4
	C152.4,103.4,154.3,119.1,168.5,133.7z"/>
<path class="st16" d="M149.7,129.9L149.7,129.9c2.3,26.4,18.3,37.8,27.8,41.6s21.6-1.3,23-1.5s2.8,0.8,8.7-3.4
	c-1.4-2.4-2.5-4.8-3.5-7.4c-0.6-1.3-1.1-2.7-1.3-4.2c-0.1-0.4-0.1-0.9-0.1-1.4l-0.1,0.1c0,0-7.9-1-18.4-6.8c-2-1.1-4.1-2.4-6.2-3.8
	c-2.2-1.5-4.4-3.2-6.4-5c-0.6-0.5-1.3-1.1-1.9-1.7c-1-0.9-1.9-1.8-2.7-2.7c-13-13.3-15.7-27.6-12-35.3c0.3-0.7,0.7-1.4,1.1-2
	c0.4-0.5,0.8-1,1.3-1.4c-1,0.9-1.9,1.9-2.7,3.1C152.8,102.5,148.2,112.3,149.7,129.9z"/>
<path class="st22" d="M291.5,159.8l0.1-0.1"/>
<path class="st18" d="M51.5,106.9c1.8-9.6,15.9-12.6,18-5.8c0.4,1.8,0.3,3.6-0.4,5.3c-4.5,12.9-12.9,17.6-18.7,13.1
	s-9.8,7.6-2.7,8.3s14.5-1.4,21.4-14c6.9-12.6,23.2,9.9,15.6,25.9s14.8,23.9,13.4,0.4c0-0.1,0-0.2,0-0.4
	c-1.4-23.3-3.4-35.7,11.5-35.2s18.2-10.3,26.4-6.5s10.3,31.2-2.5,29.7s-0.8,23.4,7.6,10.1c3.4-5.4,6.3-7.5,8.6-8v-0.1
	c-1.5-17.6,3.2-27.3,6.5-31.8c-7.9-9.4-20.7-15-32.5-6.1c-14.1,10.7-31.3,6.8-39.5-1.2s-47.4-8.3-49.6,10.1S49.4,118.6,51.5,106.9z"
	/>
<path class="st6" d="M69.1,102.7v1.9h40.4v-1.9c0-1.9-1.5-3.4-3.4-3.4H72.5C70.7,99.3,69.2,100.8,69.1,102.7z"/>
<rect x="69.1" y="106.4" class="st6" width="40.4" height="5.6"/>
<rect x="69.1" y="113.8" class="st6" width="40.4" height="5.6"/>
<rect x="69.1" y="121.3" class="st6" width="40.4" height="5.6"/>
<rect x="69.1" y="128.7" class="st6" width="40.4" height="5.6"/>
<rect x="69.1" y="104.6" class="st23" width="40.4" height="1.8"/>
<rect x="69.1" y="112" class="st23" width="40.4" height="1.8"/>
<rect x="69.1" y="119.5" class="st23" width="40.4" height="1.8"/>
<rect x="69.1" y="126.9" class="st23" width="40.4" height="1.8"/>
<path class="st6" d="M69.1,136.2v0.2c0,1.9,1.5,3.4,3.4,3.4h33.7c1.9,0,3.4-1.5,3.4-3.4v-0.2H69.1z"/>
<rect x="69.1" y="134.4" class="st23" width="40.4" height="1.8"/>
<line class="st13" x1="72.8" y1="26.7" x2="61.1" y2="26.7"/>
</svg>
