<svg id="Calque_1" data-name="Calque 1" xmlns="http://www.w3.org/2000/svg" viewBox="0 0 445.84 229.92"><defs><style>.cls-1{fill:#0f271b;}.cls-2{fill:#090a0a;}.cls-3{fill:#e4e1e0;}.cls-4{fill:#b3abb1;}.cls-5{fill:#fff;}.cls-6{fill:#90cbb0;}.cls-7{fill:#57a07d;}.cls-8{fill:#eaf5f2;}.cls-9{fill:#e2e2e1;}.cls-10{fill:#b8e2f8;}.cls-11{fill:#e6f5fd;}.cls-12{fill:#f4faff;}.cls-13{fill:#b7b7b7;}.cls-14,.cls-23{fill:none;}.cls-15{fill:#eff5e4;}.cls-16{fill:#efaf2e;}.cls-17{fill:#472611;}.cls-18{fill:#855830;}.cls-19{fill:#f9f6f2;}.cls-20{fill:#eae9e8;}.cls-21{fill:#d3d3d3;}.cls-22{fill:#e0e0e0;}.cls-23{stroke:#fff;stroke-miterlimit:10;}.cls-24{fill:#316e50;}</style></defs><title>vaivan</title><path class="cls-1" d="M309.82,320.16l84.92-1.35a112.92,112.92,0,0,1-3.53-12.59c-3.27-13.62-20.15-19.06-36.49-19.06s-32.68,7.08-37,16.34C315.23,308.7,312.61,315.35,309.82,320.16Z" transform="translate(-22.16 -142.05)"/><path class="cls-1" d="M67.73,324.43a.17.17,0,0,1,0,.09l114.11-1.79c-5.66-7.09-11.62-20-11.62-20H79.62S73,313.71,67.48,321A11.73,11.73,0,0,1,67.73,324.43Z" transform="translate(-22.16 -142.05)"/><path class="cls-2" d="M314.87,333.34a38.65,38.65,0,1,0,38.65-38.65A38.66,38.66,0,0,0,314.87,333.34Zm13.19,0a25.46,25.46,0,1,1,25.46,25.46A25.47,25.47,0,0,1,328.06,333.34Z" transform="translate(-22.16 -142.05)"/><path class="cls-3" d="M328.06,333.34a25.46,25.46,0,1,0,25.46-25.48A25.47,25.47,0,0,0,328.06,333.34Zm2.22,0a23.25,23.25,0,1,1,23.25,23.23A23.25,23.25,0,0,1,330.27,333.34Z" transform="translate(-22.16 -142.05)"/><path class="cls-4" d="M330.27,333.34a23.25,23.25,0,1,0,23.25-23.25A23.24,23.24,0,0,0,330.27,333.34Zm1.6,0A21.66,21.66,0,1,1,353.52,355,21.66,21.66,0,0,1,331.87,333.34Z" transform="translate(-22.16 -142.05)"/><path class="cls-3" d="M331.87,333.34a21.66,21.66,0,1,0,21.65-21.67A21.66,21.66,0,0,0,331.87,333.34Zm7.94,0A13.72,13.72,0,1,1,353.52,347,13.72,13.72,0,0,1,339.81,333.34Z" transform="translate(-22.16 -142.05)"/><path class="cls-4" d="M339.81,333.34a13.72,13.72,0,1,0,13.71-13.73A13.72,13.72,0,0,0,339.81,333.34Zm10.38,0a3.33,3.33,0,1,1,3.33,3.33A3.34,3.34,0,0,1,350.19,333.34Z" transform="translate(-22.16 -142.05)"/><path class="cls-5" d="M350.19,333.34a3.33,3.33,0,1,0,3.33-3.35A3.34,3.34,0,0,0,350.19,333.34Z" transform="translate(-22.16 -142.05)"/><path class="cls-2" d="M84.17,332.47a39.52,39.52,0,1,0,39.52-39.52A39.53,39.53,0,0,0,84.17,332.47Zm13.49,0a26,26,0,1,1,26,26A26,26,0,0,1,97.66,332.47Z" transform="translate(-22.16 -142.05)"/><path class="cls-3" d="M97.66,332.47a26,26,0,1,0,26-26.06A26,26,0,0,0,97.66,332.47Zm2.26,0a23.77,23.77,0,1,1,23.77,23.75A23.77,23.77,0,0,1,99.93,332.47Z" transform="translate(-22.16 -142.05)"/><path class="cls-4" d="M99.93,332.47A23.77,23.77,0,1,0,123.7,308.7,23.77,23.77,0,0,0,99.93,332.47Zm1.63,0a22.15,22.15,0,1,1,22.14,22.14A22.15,22.15,0,0,1,101.56,332.47Z" transform="translate(-22.16 -142.05)"/><path class="cls-3" d="M101.56,332.47a22.15,22.15,0,1,0,22.14-22.16A22.15,22.15,0,0,0,101.56,332.47Zm8.12,0a14,14,0,1,1,14,14A14,14,0,0,1,109.68,332.47Z" transform="translate(-22.16 -142.05)"/><path class="cls-4" d="M109.68,332.47a14,14,0,1,0,14-14A14,14,0,0,0,109.68,332.47Zm10.61,0a3.41,3.41,0,1,1,3.41,3.41A3.42,3.42,0,0,1,120.29,332.47Z" transform="translate(-22.16 -142.05)"/><path class="cls-5" d="M120.29,332.47A3.41,3.41,0,1,0,123.7,329,3.41,3.41,0,0,0,120.29,332.47Z" transform="translate(-22.16 -142.05)"/><path class="cls-6" d="M30.83,294.28,46,315.17h20L77,297.83h96.4s11.15,24.51,19.87,24.51c4.23,0,26.42-.07,49.28-.13,24.29-.07,49.3-.13,54.2-.13.31,0,.59,0,.87,0a5.55,5.55,0,0,0,.63-.09,18.08,18.08,0,0,0,.91-.2c.17-.07.35-.11.5-.17s.39-.15.59-.24a2.71,2.71,0,0,0,.44-.22c.24-.11.46-.26.7-.39s.44-.31.63-.46a9.86,9.86,0,0,0,1.24-1.11,7.8,7.8,0,0,0,.57-.63,22.56,22.56,0,0,0,2.16-3c.31-.48.61-1,.89-1.5.13-.22.24-.44.35-.63.28-.46.52-.94.78-1.44.52-.94,1-1.92,1.57-2.94.31-.59.61-1.18.94-1.76s.65-1.2,1-1.81.7-1.22,1.07-1.83.74-1.2,1.13-1.81a38.44,38.44,0,0,0-1.52-8.74,51.06,51.06,0,0,0-3.53-8.71,76.05,76.05,0,0,0-8.21-12.61,110.42,110.42,0,0,0-7.43-8.34c-1.87-1.9-3.68-3.62-5.34-5.12-1-.87-1.9-1.68-2.74-2.4-3.51-3-5.88-4.66-5.88-4.66-6-7,7.67-18.41,11.44-4.62a30.29,30.29,0,0,0,4.66,9c.41.61.89,1.24,1.37,1.85,4.47,5.69,10.65,11.07,16.47,13.62a20.41,20.41,0,0,0,3.7,1.22,12.12,12.12,0,0,0,3.38.31c3.42-.2,6.3-2.11,8-6.49,7.15-18.06,16.86-22.79,22.13-4.64s18.15,13.44,17.06-7.43,28.32-9.08,21.24,18.84,14.7,13.46,34,3.49,15,14.88,6.49,18.28-10,12.4-8.71,24.92H444s-3.81-3.81,0-11.35c2.33-4.6,7.67-5.23,11.5-5.05,0-1.72-.11-3.53-.2-5.38-10,0-14.75-18.34-16.58-41.94s-12-28.69-51.19-28.69-353.19-2.88-353.19-2.88C32.66,232.63,31.29,251.49,30.83,294.28ZM311.28,249c-1.63,0-3.68-.76-3.68-3.44,0-4.36,7.1-3.81,7.1,0,10.2,0,11-.28,11,1.68S325.38,249,311.28,249ZM56.82,242.93c2.18-18.41,41.41-18,49.56-10.09s25.36,11.89,39.47,1.18c11.76-8.91,24.55-3.29,32.46,6.06-3.27,4.51-8,14.25-6.47,31.83V272c-2.29.54-5.23,2.61-8.63,8-8.37,13.24-20.35-11.59-7.56-10.15s10.63-25.95,2.46-29.71-11.44,7-26.38,6.49v31.78a3.39,3.39,0,0,1-3.38,3.38H94.68a3.39,3.39,0,0,1-3.38-3.38V244.74a3.18,3.18,0,0,1,.41-1.57c-2.09-6.73-16.21-3.83-18,5.82C71.52,260.6,54.64,261.34,56.82,242.93Z" transform="translate(-22.16 -142.05)"/><path class="cls-7" d="M30.79,299.09a14.43,14.43,0,0,1,.09,1.63L44.49,318.9l22,.54c2,0,2.83.83,3.2,1.94,5.34-7,11.68-17.56,11.68-17.56h87.14s5.73,12.42,11.18,19.24c2,2.57,4.05,4.36,5.71,4.36H303c2.37,0,4.66-2.64,6.84-6.38,2.79-4.81,5.4-11.46,7.86-16.67,4.36-9.26,20.7-16.34,37-16.34s33.22,5.45,36.49,19.06a112.92,112.92,0,0,0,3.53,12.59c1.7,4.68,3.59,7.21,6.45,7.65a18,18,0,0,1-1.55-5c-.44,0-.78-1-1.18-2.7-1.33-5.66-2.94-18.71-8.6-24-7.36-6.82-21.52-11.7-33.24-11.7s-31.17,3.53-40,13.88c-7.45,8.78-9.76,20.09-16.1,23.33a8.19,8.19,0,0,1-3.86.92c-5.58,0-37.12.09-64.07.15-19.06.07-35.79.11-39.41.11-8.71,0-19.87-24.51-19.87-24.51H77L66.08,315.17H46L30.83,294.28C30.81,295.85,30.81,297.46,30.79,299.09Z" transform="translate(-22.16 -142.05)"/><path class="cls-8" d="M34.38,224.33s314,2.88,353.19,2.88,49.39,5.1,51.19,28.69,6.54,41.94,16.58,41.94c-.85-18-3.73-41.54-11.85-62.63-5.36-15.47-6.75-17.43-10.52-17.54v0l-1.92,0-2.09,0H38.85C37.34,217.77,35.75,217.66,34.38,224.33Z" transform="translate(-22.16 -142.05)"/><path class="cls-7" d="M30.7,319h8.52l-8.5-11.74C30.72,311,30.7,314.91,30.7,319Z" transform="translate(-22.16 -142.05)"/><path class="cls-9" d="M401.19,327.33a4.07,4.07,0,0,0,.91.09h-.89a10.59,10.59,0,0,0,10.15,6.36H468V297.83h-6l-2.18,6a23.71,23.71,0,0,0-4.29-.61c-3.83-.17-9.17.46-11.5,5.05-3.81,7.54,0,11.35,0,11.35H399.38A19.85,19.85,0,0,0,401.19,327.33Zm47.47-19.08a2.79,2.79,0,0,1,.35-.37,2.51,2.51,0,0,1,.76-.48,3.61,3.61,0,0,1,.85-.33c.28-.07.59-.13.91-.17a15.23,15.23,0,0,1,4.1.11,14.19,14.19,0,0,1,1.48.22c1.35.24,2.31.5,2.31.5L455.6,316l-1,2.09H447A10.69,10.69,0,0,1,448.66,308.24Z" transform="translate(-22.16 -142.05)"/><path class="cls-7" d="M447,318.11h7.62l1-2.09c0-2.64.07-5.66,0-9a15.23,15.23,0,0,0-4.1-.11c-.33,0-.63.11-.91.17a3.61,3.61,0,0,0-.85.33,2.51,2.51,0,0,0-.76.48,2.79,2.79,0,0,0-.35.37A10.69,10.69,0,0,0,447,318.11Z" transform="translate(-22.16 -142.05)"/><path class="cls-6" d="M413.82,168.76H47.35a42.92,42.92,0,0,1,3.78-6.17c51.5,0,276.36,1.11,358.75,1.11C413.1,166.91,413.82,168.76,413.82,168.76Z" transform="translate(-22.16 -142.05)"/><path class="cls-8" d="M51.13,162.59c51.5,0,276.36,1.11,358.75,1.11a62.27,62.27,0,0,0-9.41-7.47c-11.44-7.62-128-14.16-202.6-14.16S81.61,141,59,155.14A28.72,28.72,0,0,0,51.13,162.59Z" transform="translate(-22.16 -142.05)"/><path class="cls-7" d="M407.55,168.76l1.37,3.14,13.55,31,0,.07L428,215.59h0l.94,2.18,2.09,0c.72,0,1.37-.07,1.92-.07l-22.53-48.91Z" transform="translate(-22.16 -142.05)"/><polygon class="cls-10" points="379.94 29.84 400.31 60.88 386.76 29.84 379.94 29.84"/><polygon class="cls-11" points="372.73 29.84 393.73 73.54 405.84 73.54 400.35 60.95 400.31 60.88 379.94 29.84 372.73 29.84"/><polygon class="cls-12" points="357.07 29.84 376.81 73.54 393.73 73.54 372.73 29.84 357.07 29.84"/><path class="cls-10" d="M342.94,171.83l19.58,43.76h32.37L375,171.89S359.25,171.85,342.94,171.83Z" transform="translate(-22.16 -142.05)"/><path class="cls-11" d="M332,171.81l17.84,43.79h12.63l-19.58-43.76Z" transform="translate(-22.16 -142.05)"/><path class="cls-12" d="M304.9,173.94v39.47a2,2,0,0,0,2.18,2.18h42.81L332,171.81l-25,0C305.42,171.76,304.9,172.29,304.9,173.94Z" transform="translate(-22.16 -142.05)"/><path class="cls-10" d="M266.67,171.76l14.9,43.83h5.9a3,3,0,0,0,3-3V174.73a3,3,0,0,0-3-3Z" transform="translate(-22.16 -142.05)"/><polygon class="cls-11" points="233.99 29.71 248.52 73.54 259.41 73.54 244.51 29.71 233.99 29.71"/><path class="cls-10" d="M230.42,174.73v37.88a3,3,0,0,0,3,3h37.29l-14.53-43.83H233.38A3,3,0,0,0,230.42,174.73Z" transform="translate(-22.16 -142.05)"/><path class="cls-10" d="M170.82,171.76l11.63,43.83h30.28a3,3,0,0,0,3-3V174.73a3,3,0,0,0-3-3Z" transform="translate(-22.16 -142.05)"/><path class="cls-11" d="M155.65,174.73v37.88a3,3,0,0,0,3,3h23.81l-11.63-43.83H158.64A3,3,0,0,0,155.65,174.73Z" transform="translate(-22.16 -142.05)"/><path class="cls-10" d="M81.5,174.73v7.82l9.8,33h47.27a3,3,0,0,0,3-3V174.73a3,3,0,0,0-3-3H84.46A3,3,0,0,0,81.5,174.73Z" transform="translate(-22.16 -142.05)"/><path class="cls-7" d="M428,215.59H399l-19.74-43.7h29.69l-1.37-3.13H47.35c-10,19.69-8.5,49-8.5,49H429Zm-286.49-3a3,3,0,0,1-3,3H84.46a3,3,0,0,1-3-3V174.73a3,3,0,0,1,3-3h54.12a3,3,0,0,1,3,3Zm74.15,0a3,3,0,0,1-3,3H158.64a3,3,0,0,1-3-3V174.73a3,3,0,0,1,3-3h54.09a3,3,0,0,1,3,3Zm74.77,0a3,3,0,0,1-3,3H233.38a3,3,0,0,1-3-3V174.73a3,3,0,0,1,3-3h54.09a3,3,0,0,1,3,3Zm72.06,3H307.08a1.94,1.94,0,0,1-2.18-2.17V173.94c0-1.65.52-2.18,2.18-2.18l25,0,10.9,0c16.31,0,32.06.06,32.06.06l19.89,43.7Z" transform="translate(-22.16 -142.05)"/><path class="cls-5" d="M81.5,182.55v30.06a3,3,0,0,0,3,3H91.3Z" transform="translate(-22.16 -142.05)"/><path class="cls-9" d="M22.16,298.75v29c0,3.27,0,5.62,2.53,5.62h.63l1.09,0,5.45.11c.35,0,.72,0,1.09,0l5.42.13,1.13,0,5.4.13,1.11,0h0c6.73.15,12.83.28,14.42.28,2.74,0,6.45-3.79,8.3-6.73a6.42,6.42,0,0,0,1.11-2.64.16.16,0,0,0,0-.09,11.28,11.28,0,0,0-.24-3.31c-.37-1.11-1.22-1.94-3.2-1.94l-22-.54L30.87,300.73a14.43,14.43,0,0,0-.09-1.63c-.13-1.46-.57-2.9-1.74-2.9H25.6C22.88,296.2,22.16,296.37,22.16,298.75Zm3.27,4.53h2.44l2.85,4L39.22,319H25.43Z" transform="translate(-22.16 -142.05)"/><path class="cls-8" d="M307.6,245.55a3.37,3.37,0,0,0,0,.48c.24,2.29,2.13,3,3.66,3,12.63,0,14.23.15,14.42-1.22a4.37,4.37,0,0,0,0-.54c0-2-.83-1.68-11-1.68C314.7,241.74,307.6,241.19,307.6,245.55Z" transform="translate(-22.16 -142.05)"/><path class="cls-7" d="M307.62,246c0,3.38.83,4.49,2.64,4.49h12.81c2,0,2.57-.48,2.64-2.74-.2,1.37-1.79,1.22-14.42,1.22C309.76,249,307.86,248.31,307.62,246Z" transform="translate(-22.16 -142.05)"/><polygon class="cls-13" points="444.48 191.72 443.3 167.85 441.75 191.72 444.48 191.72"/><polygon class="cls-13" points="438.4 191.72 437.94 177.2 437.26 191.72 438.4 191.72"/><polygon class="cls-13" points="432.59 191.72 431.86 183.74 431.32 191.72 432.59 191.72"/><path class="cls-13" d="M44.9,333.84l1.11,0h0L45.47,325Z" transform="translate(-22.16 -142.05)"/><path class="cls-13" d="M38.37,333.69l1.13,0L38.93,325Z" transform="translate(-22.16 -142.05)"/><path class="cls-13" d="M31.85,333.54c.35,0,.72,0,1.09,0L32.4,325Z" transform="translate(-22.16 -142.05)"/><path class="cls-13" d="M25.32,333.4l1.09,0L25.86,325Z" transform="translate(-22.16 -142.05)"/><polyline class="cls-14" points="377.22 177.56 376.3 177.58 372.58 177.63"/><path class="cls-15" d="M313.74,301.73a37.84,37.84,0,0,1,2.92-3.9,25.85,25.85,0,0,1,3.22-3.14c9.69-7.93,26.29-10.74,36.73-10.74,11.72,0,25.88,4.88,33.24,11.7,4.62,4.29,6.56,13.77,7.82,20.19.76,3.77,1.26,6.49,2,6.49a18.84,18.84,0,0,1-.26-2.72h8.17c-1.63-9.26,19.08-29.91,6.27-26.66s-28,2.07-29.39-9.87-1.83-36.12-9.24-20.22-20.35,18.63-25.31,10.72-14.62-12.72-21.83,0-15,1.68-13.18,13C316.49,296.74,314.2,301,313.74,301.73Z" transform="translate(-22.16 -142.05)"/><path class="cls-5" d="M279,251.26s33.2,23.53,34.66,50.58l.07-.11c.46-.72,2.74-5,1.13-15.18-1.81-11.28,6-.22,13.18-13s16.86-7.89,21.83,0,17.91,5.18,25.31-10.72,7.84,8.28,9.24,20.22S401,296.2,413.82,293s-7.91,17.41-6.27,26.66h12.7c-1.26-12.53.17-21.54,8.71-24.92s12.79-28.25-6.49-18.28-41.06,24.44-34-3.49-22.33-39.71-21.24-18.84-11.79,25.57-17.06,7.43-15-13.42-22.13,4.64-33.83-5.73-37.6-19.52S273.05,244.26,279,251.26Z" transform="translate(-22.16 -142.05)"/><path class="cls-16" d="M284.31,302.64c-1.54.81-3.31,1.66-5.29,2.5A9.27,9.27,0,0,0,284.31,302.64Z" transform="translate(-22.16 -142.05)"/><path class="cls-16" d="M226.58,297a14.43,14.43,0,0,0,1.29,4.16A40.43,40.43,0,0,1,226.58,297Z" transform="translate(-22.16 -142.05)"/><path class="cls-17" d="M227.87,301.12a49.34,49.34,0,0,0,3.46,7.36,53.25,53.25,0,0,0,11.18,13.72c24.29-.07,49.3-.13,54.2-.13,9.54,0,11.18-13.9,20-24.25a25.85,25.85,0,0,1,3.22-3.14c2.64-13.7-.24-27.43-2.74-31.15,1.9,8-3.59,14.81-3.59,14.81L314,292.1s-11.22,6.34-21.37,9.3a7.45,7.45,0,0,1-.83.61c-3.62,2.35-12.46,6.08-22.81,8.23-8.5,1.76-18,2.46-26.47.46C234.25,308.77,229.9,305.26,227.87,301.12Z" transform="translate(-22.16 -142.05)"/><path class="cls-16" d="M284.31,302.64c-1.54.81-3.31,1.66-5.29,2.5A9.27,9.27,0,0,0,284.31,302.64Z" transform="translate(-22.16 -142.05)"/><path class="cls-18" d="M226.42,295.61c0,.46.08.91.16,1.36a40.43,40.43,0,0,0,1.29,4.16c2,4.13,6.37,7.65,14.61,9.59,8.46,2,18,1.3,26.48-.47,10.35-2.14,19.19-5.88,22.8-8.24.32-.21.6-.41.84-.6,10.15-3,21.36-9.31,21.36-9.31l-.43-13.74s5.5-6.77,3.6-14.81c-2.09-8.84-16.92-9.3-16.92-9.3l-.84,1.48s-21.78-.84-33.73,3.17a131.64,131.64,0,0,0-15.73,6.55c-.7.34-1.4.7-2.09,1.06-2.13,1.1-4.21,2.27-6.19,3.48-6.43,4-11.68,8.43-13.11,12.81a44.8,44.8,0,0,0-1.94,8h0A22.52,22.52,0,0,0,226.42,295.61Zm3.43-2.91c0-.23,0-.46,0-.69s0-.29,0-.43,0-.32,0-.48,0-.26,0-.39l.06-.39c0-.27.1-.55.15-.82s.11-.5.18-.76.11-.43.17-.63.05-.18.08-.27.11-.36.18-.54.12-.35.18-.52.13-.36.2-.53.2-.49.31-.73c.2-.46.42-.91.66-1.36l.34-.62c.11-.2.23-.41.36-.62s.25-.41.38-.62.34-.53.53-.8c.35-.51.73-1,1.13-1.54s.8-1,1.24-1.48q.87-1,1.85-1.94l.51-.49c.38-.36.78-.72,1.19-1.07l.49-.42.46-.38.69-.55a48,48,0,0,1,4.83-3.33l1.22-.72.79-.43,1-.55,1.07-.54,1-.48q1.69-.79,3.5-1.49c25.19-9.82,26-5.49,26-5.49h2.11l2.11-2.33s5.29,0,6.14.43a4.74,4.74,0,0,1,1.9-1.9l5.08,1.05,2.75-2.11c8.25,1.9,18.82,7,9.52,19.88-2.32,12.48-3.81,17.56-3.81,17.56l-10.36,5.5h-5.29a55.59,55.59,0,0,1-6.6,4,9.27,9.27,0,0,1-5.29,2.5h0A64.58,64.58,0,0,1,266.63,309,47.58,47.58,0,0,1,242.48,308c-.7-.28-1.37-.57-2-.88l-.86-.43c-.22-.11-.43-.22-.63-.34l-.74-.42-.4-.25-.56-.36c-.3-.2-.6-.41-.89-.62l-.43-.32-.41-.33c-.31-.25-.62-.51-.91-.78l-.48-.46-.53-.56-.49-.57c-.16-.19-.32-.39-.46-.58l-.22-.3c-.08-.1-.15-.2-.21-.3s-.25-.37-.37-.56-.3-.51-.44-.77l-.26-.51c-.1-.2-.19-.41-.28-.62s-.17-.43-.25-.64l-.11-.32c-.1-.28-.18-.56-.25-.85,0-.08,0-.16-.06-.25s-.08-.36-.12-.54-.08-.44-.11-.67-.06-.41-.08-.62c0,0,0-.06,0-.1,0-.22,0-.43,0-.64S229.85,292.92,229.85,292.7Z" transform="translate(-22.16 -142.05)"/><path class="cls-19" d="M242.48,308A47.58,47.58,0,0,0,266.63,309,64.58,64.58,0,0,0,279,305.14h0c2-.84,3.75-1.69,5.29-2.5a55.59,55.59,0,0,0,6.6-4h5.29l10.36-5.5s1.48-5.08,3.81-17.56c9.31-12.9-1.27-18-9.52-19.88l-2.75,2.11L293,256.79a4.74,4.74,0,0,0-1.9,1.9c-.84-.43-6.14-.43-6.14-.43l-2.11,2.33h-2.11s-.82-4.33-26,5.49S220.07,299.08,242.48,308Zm0-22.34s2-10.39,10.73-14.11,16.24-6.19,23.11-2.86a83.84,83.84,0,0,0,14.33-5.11h1.82l4.37-.84c1.43.63,4.12,4.44,4.12,8.72-3.65,2.22-4.76,4.44-4.12,6.34.56,1.69-2.73,8.72-3.93,11-.16.29-.28.51-.35.62q-4,2.36-5.87,3.44c-1.16.68-1.74,1-1.74,1l-1.27-1-5.55,4.44-8.53,2.88-4.16,1.4-4.92-1.27-1,.35-2.54.92-1.9-2.27h-3.17l-2.54-2.41H248l-1.35-1L246,294l-2.86-3v-2.86Z" transform="translate(-22.16 -142.05)"/><path class="cls-20" d="M242.49,285.62l.66,2.54V291l2.86,3,.63,1.9,1.35,1h1.43l2.54,2.41h3.17l1.9,2.27,2.54-.92a17.72,17.72,0,1,1,33.34-11.91c1.21-2.25,4.5-9.28,3.93-11-.63-1.9.48-4.12,4.12-6.34,0-4.28-2.7-8.09-4.12-8.72l-4.37.84h-1.82a83.84,83.84,0,0,1-14.33,5.11c-6.87-3.34-14.38-.88-23.11,2.86S242.49,285.62,242.49,285.62Z" transform="translate(-22.16 -142.05)"/><path class="cls-16" d="M284.31,302.64c-1.54.81-3.31,1.66-5.29,2.5A9.27,9.27,0,0,0,284.31,302.64Z" transform="translate(-22.16 -142.05)"/><path class="cls-21" d="M268.54,295.88a9.27,9.27,0,0,0,1,4.28l8.53-2.88,5.55-4.44,1.27,1s.58-.32,1.74-1a9.33,9.33,0,0,0-18.14,3.09Z" transform="translate(-22.16 -142.05)"/><path class="cls-22" d="M258.26,294a17.64,17.64,0,0,0,1.3,6.67l1-.35,4.92,1.27,4.16-1.4a9.33,9.33,0,1,1,17.1-7.37q1.89-1.08,5.87-3.44c.07-.11.19-.32.35-.62A17.72,17.72,0,0,0,258.26,294Z" transform="translate(-22.16 -142.05)"/><path class="cls-19" d="M191.13,269.92a43.89,43.89,0,0,0,3.57,3.93,36.82,36.82,0,0,0,5.38,4.4c3.08,2,6,3.78,8.79,5.25,2,1,3.82,2,5.54,2.75a73.23,73.23,0,0,0,12.18,4.52h0a44.8,44.8,0,0,1,1.94-8,32.09,32.09,0,0,0-7.51-.67,7.51,7.51,0,0,1-2.56-.27,31.57,31.57,0,0,1-6.24-3l-1.67-.89c-4.6-2.38-8.22-8.25-8.22-8.25a9.91,9.91,0,0,1-3-1,1.49,1.49,0,0,1-.37-.46,45.29,45.29,0,0,1-2.69-6c-.44-1.14-.74-2-.74-2l-2.06-1.74a35.84,35.84,0,0,0,.16-4.57c-.16-.92-6.19-5.1.84-9.54s21.21,1.9,27.08,4.76,8.36,12.21,8.36,12.21l8.14,3.65c1.95.87,3.56,4.71,3.64,4.9,2-1.22,4.07-2.39,6.19-3.48-2.22-2.53-12.05-9.83-12.05-9.83L233.39,243s-11.74-5.08-18.72-3.49c-10.15-4-22.84-9.2-30.61-1.74C178,243.57,182.19,258.83,191.13,269.92Z" transform="translate(-22.16 -142.05)"/><path class="cls-20" d="M193.42,258.58l2.06,1.74s.3.82.74,2a15,15,0,0,1,22.23,19.58,7.51,7.51,0,0,0,2.56.27,32.09,32.09,0,0,1,7.51.67c1.43-4.38,6.68-8.86,13.11-12.81-.08-.19-1.69-4-3.64-4.9l-8.14-3.65s-2.49-9.36-8.36-12.21-20.06-9.2-27.08-4.76-1,8.62-.84,9.54A35.84,35.84,0,0,1,193.42,258.58Z" transform="translate(-22.16 -142.05)"/><path class="cls-21" d="M198.91,268.28a1.49,1.49,0,0,0,.37.46,9.91,9.91,0,0,0,3,1s3.62,5.87,8.22,8.25l1.67.89a9.2,9.2,0,0,0,.4-2.69,9.11,9.11,0,0,0-13.7-7.85Z" transform="translate(-22.16 -142.05)"/><path class="cls-22" d="M196.22,262.29a45.29,45.29,0,0,0,2.69,6,9.11,9.11,0,0,1,13.7,7.85,9.2,9.2,0,0,1-.4,2.69,31.57,31.57,0,0,0,6.24,3,15,15,0,0,0-22.23-19.58Z" transform="translate(-22.16 -142.05)"/><path class="cls-18" d="M190.65,275.72c.87.9,1.8,1.8,2.77,2.68.63.58,1.27,1.14,1.9,1.69a77.58,77.58,0,0,0,6.45,5c2.13,1.47,4.21,2.74,6.19,3.84,10.46,5.79,18.39,6.79,18.39,6.79l.07-.09a22.52,22.52,0,0,1,.16-4.84,73.23,73.23,0,0,1-12.18-4.52c-1.72-.79-3.58-1.7-5.54-2.75-2.75-1.47-5.71-3.21-8.79-5.25a36.82,36.82,0,0,1-5.38-4.4,43.89,43.89,0,0,1-3.57-3.93c-8.95-11.09-13.09-26.35-7.07-32.12,7.77-7.45,20.46-2.22,30.61,1.74,7-1.59,18.72,3.49,18.72,3.49l2.38,13.64s9.83,7.3,12.05,9.83c.69-.36,1.39-.72,2.09-1.06a91.53,91.53,0,0,0-11-9.72l-.79-4.12c-.53-5.39-1.16-9.14-2.69-10.28h0l-.48-.18-15.23-4.76H216.1l-6.78-.94a5.25,5.25,0,0,1-1.8-.25h0c-.73-.18-1.67-.47-2.84-.87-4.68-1.61-17.18-3.08-23.45,2.54l-.13.11L181,237a10.8,10.8,0,0,0-1.27,1.42C174.55,245.45,176.5,261.19,190.65,275.72Z" transform="translate(-22.16 -142.05)"/><path class="cls-17" d="M171.84,271.91V272c2.27,26.27,18.26,37.67,27.75,41.48s21.59-1.29,23-1.55,2.79.78,8.74-3.44a49.34,49.34,0,0,1-3.46-7.36,14.18,14.18,0,0,1-1.29-4.16,9.16,9.16,0,0,1-.15-1.35l-.09.09s-7.93-1-18.39-6.8c-2-1.09-4.05-2.37-6.19-3.83a72.36,72.36,0,0,1-6.45-5c-.63-.54-1.26-1.11-1.92-1.7-1-.87-1.9-1.76-2.74-2.68-13-13.31-15.71-27.6-12-35.31a10.8,10.8,0,0,1,1.15-2,10.1,10.1,0,0,1,1.29-1.44,18.56,18.56,0,0,0-2.74,3.07C175,244.59,170.36,254.33,171.84,271.91Z" transform="translate(-22.16 -142.05)"/><path class="cls-23" d="M313.68,301.84l.07-.11" transform="translate(-22.16 -142.05)"/><path class="cls-19" d="M73.7,249c1.81-9.65,15.92-12.55,18-5.82a8.49,8.49,0,0,1-.41,5.27c-4.53,12.9-12.9,17.56-18.69,13.07s-9.78,7.62-2.72,8.34,14.51-1.44,21.41-14,23.24,9.87,15.62,25.9,14.75,23.85,13.38.35c0-.11,0-.24,0-.35-1.39-23.31-3.42-35.7,11.46-35.16s18.21-10.26,26.38-6.49,10.33,31.17-2.46,29.71-.81,23.4,7.56,10.15c3.4-5.4,6.34-7.47,8.63-8v-.09c-1.48-17.58,3.2-27.32,6.47-31.83-7.91-9.35-20.7-15-32.46-6.06-14.12,10.72-31.33,6.78-39.47-1.18S59,224.53,56.82,242.93,71.52,260.6,73.7,249Z" transform="translate(-22.16 -142.05)"/><path class="cls-7" d="M91.3,244.74v1.9h40.43v-1.9a3.37,3.37,0,0,0-3.38-3.35H94.68A3.37,3.37,0,0,0,91.3,244.74Z" transform="translate(-22.16 -142.05)"/><rect class="cls-7" x="69.14" y="106.39" width="40.43" height="5.64"/><rect class="cls-7" x="69.14" y="113.84" width="40.43" height="5.62"/><rect class="cls-7" x="69.14" y="121.29" width="40.43" height="5.62"/><rect class="cls-7" x="69.14" y="128.72" width="40.43" height="5.64"/><rect class="cls-24" x="69.14" y="104.58" width="40.43" height="1.81"/><rect class="cls-24" x="69.14" y="112.03" width="40.43" height="1.81"/><rect class="cls-24" x="69.14" y="119.46" width="40.43" height="1.83"/><rect class="cls-24" x="69.14" y="126.91" width="40.43" height="1.81"/><path class="cls-7" d="M91.3,278.22v.2a3.39,3.39,0,0,0,3.38,3.38h33.68a3.39,3.39,0,0,0,3.38-3.38v-.2Z" transform="translate(-22.16 -142.05)"/><rect class="cls-24" x="69.14" y="134.36" width="40.43" height="1.81"/><line class="cls-14" x1="72.84" y1="26.71" x2="61.06" y2="26.71"/></svg>